<mxfile host="Electron" agent="Mozilla/5.0 (Windows NT 10.0; Win64; x64) AppleWebKit/537.36 (KHTML, like Gecko) draw.io/26.0.9 Chrome/128.0.6613.186 Electron/32.2.5 Safari/537.36" version="26.0.9" pages="2">
  <diagram name="Page-1" id="YJxR5do7-sRpGtA-0XsY">
    <mxGraphModel dx="1257" dy="749" grid="1" gridSize="10" guides="1" tooltips="1" connect="1" arrows="1" fold="1" page="1" pageScale="1" pageWidth="850" pageHeight="1100" math="0" shadow="0">
      <root>
        <mxCell id="0" />
        <mxCell id="1" parent="0" />
        <mxCell id="YaeXBy9BYN40PlVeFBTf-1" value="" style="rounded=0;whiteSpace=wrap;html=1;strokeColor=light-dark(#171717, #4f4a4a);fillColor=none;dashed=1;" vertex="1" parent="1">
          <mxGeometry x="10" y="80" width="150" height="560" as="geometry" />
        </mxCell>
        <mxCell id="YaeXBy9BYN40PlVeFBTf-2" value="&lt;font style=&quot;font-size: 24px;&quot;&gt;Sources&lt;/font&gt;" style="rounded=0;whiteSpace=wrap;html=1;strokeColor=none;" vertex="1" parent="1">
          <mxGeometry x="45" y="50" width="90" height="50" as="geometry" />
        </mxCell>
        <mxCell id="YaeXBy9BYN40PlVeFBTf-3" value="" style="rounded=0;whiteSpace=wrap;html=1;strokeColor=light-dark(#171717, #4f4a4a);fillColor=none;dashed=1;" vertex="1" parent="1">
          <mxGeometry x="200" y="80" width="510" height="560" as="geometry" />
        </mxCell>
        <mxCell id="YaeXBy9BYN40PlVeFBTf-4" value="&lt;font style=&quot;font-size: 24px;&quot;&gt;Data Warehouse&lt;/font&gt;" style="rounded=0;whiteSpace=wrap;html=1;strokeColor=none;" vertex="1" parent="1">
          <mxGeometry x="365" y="50" width="190" height="60" as="geometry" />
        </mxCell>
        <mxCell id="YaeXBy9BYN40PlVeFBTf-6" value="" style="rounded=0;whiteSpace=wrap;html=1;strokeColor=light-dark(#171717, #4f4a4a);fillColor=none;dashed=1;" vertex="1" parent="1">
          <mxGeometry x="760" y="80" width="140" height="560" as="geometry" />
        </mxCell>
        <mxCell id="YaeXBy9BYN40PlVeFBTf-7" value="&lt;font style=&quot;font-size: 24px;&quot;&gt;Consume&lt;/font&gt;" style="rounded=0;whiteSpace=wrap;html=1;strokeColor=none;" vertex="1" parent="1">
          <mxGeometry x="797.5" y="65" width="65" height="30" as="geometry" />
        </mxCell>
        <mxCell id="YaeXBy9BYN40PlVeFBTf-8" value="" style="rounded=0;whiteSpace=wrap;html=1;fillColor=none;strokeColor=#FFCC99;strokeWidth=2;" vertex="1" parent="1">
          <mxGeometry x="220" y="160" width="140" height="470" as="geometry" />
        </mxCell>
        <mxCell id="YaeXBy9BYN40PlVeFBTf-11" value="&lt;font style=&quot;font-size: 18px;&quot;&gt;&lt;b&gt;Bronze Layer&lt;/b&gt;&lt;/font&gt;" style="rounded=0;whiteSpace=wrap;html=1;fillColor=#ffe6cc;strokeColor=#d79b00;" vertex="1" parent="1">
          <mxGeometry x="220" y="110" width="140" height="35" as="geometry" />
        </mxCell>
        <mxCell id="YaeXBy9BYN40PlVeFBTf-12" value="" style="rounded=0;whiteSpace=wrap;html=1;fillColor=none;strokeColor=#CCCCCC;strokeWidth=2;" vertex="1" parent="1">
          <mxGeometry x="380" y="160" width="140" height="470" as="geometry" />
        </mxCell>
        <mxCell id="YaeXBy9BYN40PlVeFBTf-13" value="" style="rounded=0;whiteSpace=wrap;html=1;fillColor=none;strokeColor=#FFD966;strokeWidth=2;" vertex="1" parent="1">
          <mxGeometry x="540" y="160" width="140" height="470" as="geometry" />
        </mxCell>
        <mxCell id="YaeXBy9BYN40PlVeFBTf-14" value="&lt;font style=&quot;font-size: 18px;&quot;&gt;&lt;b&gt;Silver Layer&lt;/b&gt;&lt;/font&gt;" style="rounded=0;whiteSpace=wrap;html=1;fillColor=#f5f5f5;strokeColor=#666666;fontColor=#333333;" vertex="1" parent="1">
          <mxGeometry x="380" y="110" width="140" height="35" as="geometry" />
        </mxCell>
        <mxCell id="YaeXBy9BYN40PlVeFBTf-15" value="&lt;font style=&quot;font-size: 18px;&quot;&gt;&lt;b&gt;Gold Layer&lt;/b&gt;&lt;/font&gt;" style="rounded=0;whiteSpace=wrap;html=1;fillColor=#FFD966;strokeColor=#d6b656;" vertex="1" parent="1">
          <mxGeometry x="540" y="110" width="140" height="35" as="geometry" />
        </mxCell>
        <mxCell id="YaeXBy9BYN40PlVeFBTf-16" value="" style="image;aspect=fixed;html=1;points=[];align=center;fontSize=12;image=img/lib/azure2/general/Folder_Blank.svg;" vertex="1" parent="1">
          <mxGeometry x="65.18" y="160" width="49.29" height="40" as="geometry" />
        </mxCell>
        <mxCell id="YaeXBy9BYN40PlVeFBTf-17" value="" style="image;aspect=fixed;html=1;points=[];align=center;fontSize=12;image=img/lib/azure2/general/File.svg;" vertex="1" parent="1">
          <mxGeometry x="95.18" y="180" width="24.35" height="30" as="geometry" />
        </mxCell>
        <mxCell id="YaeXBy9BYN40PlVeFBTf-18" value="CRM" style="text;html=1;align=center;verticalAlign=middle;whiteSpace=wrap;rounded=0;" vertex="1" parent="1">
          <mxGeometry x="59.82" y="210" width="60" height="30" as="geometry" />
        </mxCell>
        <mxCell id="YaeXBy9BYN40PlVeFBTf-19" value="" style="image;aspect=fixed;html=1;points=[];align=center;fontSize=12;image=img/lib/azure2/general/Folder_Blank.svg;" vertex="1" parent="1">
          <mxGeometry x="65.53999999999999" y="300" width="49.29" height="40" as="geometry" />
        </mxCell>
        <mxCell id="YaeXBy9BYN40PlVeFBTf-20" value="" style="image;aspect=fixed;html=1;points=[];align=center;fontSize=12;image=img/lib/azure2/general/File.svg;" vertex="1" parent="1">
          <mxGeometry x="95.53999999999999" y="320" width="24.35" height="30" as="geometry" />
        </mxCell>
        <mxCell id="YaeXBy9BYN40PlVeFBTf-21" value="ERP" style="text;html=1;align=center;verticalAlign=middle;whiteSpace=wrap;rounded=0;" vertex="1" parent="1">
          <mxGeometry x="60.18" y="350" width="60" height="30" as="geometry" />
        </mxCell>
        <mxCell id="YaeXBy9BYN40PlVeFBTf-23" value="" style="endArrow=none;html=1;rounded=0;entryX=0.979;entryY=0.713;entryDx=0;entryDy=0;entryPerimeter=0;" edge="1" parent="1">
          <mxGeometry width="50" height="50" relative="1" as="geometry">
            <mxPoint x="28.61" y="394.29" as="sourcePoint" />
            <mxPoint x="140.66999999999993" y="394.49000000000007" as="targetPoint" />
          </mxGeometry>
        </mxCell>
        <mxCell id="YaeXBy9BYN40PlVeFBTf-24" value="&lt;b&gt;Object Type&lt;/b&gt;: CSV FIle&lt;div&gt;&lt;br&gt;&lt;/div&gt;&lt;div&gt;I&lt;b&gt;nterface&lt;/b&gt;: Files in Folders&lt;/div&gt;&lt;div&gt;&lt;br&gt;&lt;/div&gt;" style="text;html=1;align=center;verticalAlign=middle;whiteSpace=wrap;rounded=0;" vertex="1" parent="1">
          <mxGeometry x="9.64" y="470" width="150" height="30" as="geometry" />
        </mxCell>
        <mxCell id="YaeXBy9BYN40PlVeFBTf-25" value="" style="html=1;verticalLabelPosition=bottom;align=center;labelBackgroundColor=#ffffff;verticalAlign=top;strokeWidth=2;strokeColor=#d79b00;shadow=0;dashed=0;shape=mxgraph.ios7.icons.data;fillColor=#ffe6cc;" vertex="1" parent="1">
          <mxGeometry x="265" y="255.5" width="50" height="59" as="geometry" />
        </mxCell>
        <mxCell id="YaeXBy9BYN40PlVeFBTf-26" value="" style="html=1;verticalLabelPosition=bottom;align=center;labelBackgroundColor=#ffffff;verticalAlign=top;strokeWidth=2;strokeColor=#666666;shadow=0;dashed=0;shape=mxgraph.ios7.icons.data;fillColor=#f5f5f5;fontColor=#333333;" vertex="1" parent="1">
          <mxGeometry x="425" y="255.5" width="50" height="59" as="geometry" />
        </mxCell>
        <mxCell id="YaeXBy9BYN40PlVeFBTf-27" value="" style="html=1;verticalLabelPosition=bottom;align=center;labelBackgroundColor=#ffffff;verticalAlign=top;strokeWidth=2;strokeColor=#FFD966;shadow=0;dashed=0;shape=mxgraph.ios7.icons.data;fillColor=#ffff88;" vertex="1" parent="1">
          <mxGeometry x="585" y="255.5" width="50" height="59" as="geometry" />
        </mxCell>
        <mxCell id="YaeXBy9BYN40PlVeFBTf-28" value="" style="shape=flexArrow;endArrow=classic;html=1;rounded=0;fillColor=#dae8fc;strokeColor=#6c8ebf;" edge="1" parent="1">
          <mxGeometry width="50" height="50" relative="1" as="geometry">
            <mxPoint x="140" y="279.75" as="sourcePoint" />
            <mxPoint x="210" y="280.25" as="targetPoint" />
          </mxGeometry>
        </mxCell>
        <mxCell id="YaeXBy9BYN40PlVeFBTf-29" value="" style="shape=flexArrow;endArrow=classic;html=1;rounded=0;fillColor=#dae8fc;strokeColor=#6c8ebf;" edge="1" parent="1">
          <mxGeometry width="50" height="50" relative="1" as="geometry">
            <mxPoint x="340" y="279.63" as="sourcePoint" />
            <mxPoint x="410" y="280.13" as="targetPoint" />
          </mxGeometry>
        </mxCell>
        <mxCell id="YaeXBy9BYN40PlVeFBTf-30" value="" style="shape=flexArrow;endArrow=classic;html=1;rounded=0;fillColor=#dae8fc;strokeColor=#6c8ebf;" edge="1" parent="1">
          <mxGeometry width="50" height="50" relative="1" as="geometry">
            <mxPoint x="500" y="279.63" as="sourcePoint" />
            <mxPoint x="570" y="280.13" as="targetPoint" />
          </mxGeometry>
        </mxCell>
        <mxCell id="YaeXBy9BYN40PlVeFBTf-31" value="" style="shape=flexArrow;endArrow=classic;html=1;rounded=0;fillColor=#dae8fc;strokeColor=#6c8ebf;" edge="1" parent="1">
          <mxGeometry width="50" height="50" relative="1" as="geometry">
            <mxPoint x="700" y="285" as="sourcePoint" />
            <mxPoint x="770" y="285.5" as="targetPoint" />
          </mxGeometry>
        </mxCell>
        <mxCell id="YaeXBy9BYN40PlVeFBTf-32" value="Raw Data" style="text;html=1;align=center;verticalAlign=middle;whiteSpace=wrap;rounded=0;" vertex="1" parent="1">
          <mxGeometry x="260" y="330" width="60" height="30" as="geometry" />
        </mxCell>
        <mxCell id="YaeXBy9BYN40PlVeFBTf-33" value="Cleansed, Standarized Data" style="text;html=1;align=center;verticalAlign=middle;whiteSpace=wrap;rounded=0;" vertex="1" parent="1">
          <mxGeometry x="395" y="330" width="110" height="30" as="geometry" />
        </mxCell>
        <mxCell id="YaeXBy9BYN40PlVeFBTf-34" value="Business-Ready Data" style="text;html=1;align=center;verticalAlign=middle;whiteSpace=wrap;rounded=0;" vertex="1" parent="1">
          <mxGeometry x="570" y="330" width="95" height="30" as="geometry" />
        </mxCell>
        <mxCell id="YaeXBy9BYN40PlVeFBTf-35" value="" style="endArrow=none;html=1;rounded=0;entryX=0.979;entryY=0.713;entryDx=0;entryDy=0;entryPerimeter=0;" edge="1" parent="1">
          <mxGeometry width="50" height="50" relative="1" as="geometry">
            <mxPoint x="233.97" y="370" as="sourcePoint" />
            <mxPoint x="346.03" y="370.20000000000005" as="targetPoint" />
          </mxGeometry>
        </mxCell>
        <mxCell id="YaeXBy9BYN40PlVeFBTf-36" value="" style="endArrow=none;html=1;rounded=0;entryX=0.979;entryY=0.713;entryDx=0;entryDy=0;entryPerimeter=0;" edge="1" parent="1">
          <mxGeometry width="50" height="50" relative="1" as="geometry">
            <mxPoint x="392.94" y="370" as="sourcePoint" />
            <mxPoint x="505" y="370.20000000000005" as="targetPoint" />
          </mxGeometry>
        </mxCell>
        <mxCell id="YaeXBy9BYN40PlVeFBTf-37" value="" style="endArrow=none;html=1;rounded=0;entryX=0.979;entryY=0.713;entryDx=0;entryDy=0;entryPerimeter=0;" edge="1" parent="1">
          <mxGeometry width="50" height="50" relative="1" as="geometry">
            <mxPoint x="555" y="370" as="sourcePoint" />
            <mxPoint x="667.06" y="370.20000000000005" as="targetPoint" />
          </mxGeometry>
        </mxCell>
        <mxCell id="YaeXBy9BYN40PlVeFBTf-39" value="&lt;font style=&quot;font-size: 10px;&quot;&gt;&lt;b style=&quot;&quot;&gt;Object Type&lt;/b&gt;: Tables&lt;/font&gt;&lt;div style=&quot;&quot;&gt;&lt;font style=&quot;font-size: 10px;&quot;&gt;&lt;b&gt;Load:&amp;nbsp;&lt;/b&gt;&lt;/font&gt;&lt;/div&gt;&lt;div style=&quot;&quot;&gt;&lt;ul&gt;&lt;li&gt;&lt;font style=&quot;font-size: 10px;&quot;&gt;Batch Processing&lt;/font&gt;&lt;/li&gt;&lt;li&gt;&lt;font style=&quot;font-size: 10px;&quot;&gt;Full Load&lt;/font&gt;&lt;/li&gt;&lt;li&gt;&lt;font style=&quot;font-size: 10px;&quot;&gt;Truncate &amp;amp; Insert&lt;/font&gt;&lt;/li&gt;&lt;/ul&gt;&lt;/div&gt;&lt;div&gt;&lt;b style=&quot;font-size: 10px; background-color: transparent; color: light-dark(rgb(0, 0, 0), rgb(255, 255, 255));&quot;&gt;No Transformations&lt;/b&gt;&lt;br&gt;&lt;/div&gt;&lt;div&gt;&lt;b style=&quot;background-color: transparent; color: light-dark(rgb(0, 0, 0), rgb(255, 255, 255)); font-size: 10px;&quot;&gt;Data Model&lt;/b&gt;&lt;span style=&quot;background-color: transparent; color: light-dark(rgb(0, 0, 0), rgb(255, 255, 255)); font-size: 10px;&quot;&gt;: None&lt;/span&gt;&lt;br&gt;&lt;/div&gt;&lt;div&gt;&lt;br&gt;&lt;/div&gt;" style="text;html=1;align=left;verticalAlign=middle;whiteSpace=wrap;rounded=0;" vertex="1" parent="1">
          <mxGeometry x="230" y="380" width="130" height="150" as="geometry" />
        </mxCell>
        <mxCell id="YaeXBy9BYN40PlVeFBTf-40" value="&lt;font style=&quot;font-size: 10px;&quot;&gt;&lt;b style=&quot;&quot;&gt;Object Type&lt;/b&gt;: Tables&lt;/font&gt;&lt;div style=&quot;&quot;&gt;&lt;font style=&quot;font-size: 10px;&quot;&gt;&lt;b&gt;Load:&amp;nbsp;&lt;/b&gt;&lt;/font&gt;&lt;/div&gt;&lt;div style=&quot;&quot;&gt;&lt;ul&gt;&lt;li&gt;&lt;font style=&quot;font-size: 10px;&quot;&gt;Batch Processing&lt;/font&gt;&lt;/li&gt;&lt;li&gt;&lt;font style=&quot;font-size: 10px;&quot;&gt;Full Load&lt;/font&gt;&lt;/li&gt;&lt;li&gt;&lt;font style=&quot;font-size: 10px;&quot;&gt;Truncate &amp;amp; Insert&lt;/font&gt;&lt;/li&gt;&lt;/ul&gt;&lt;/div&gt;&lt;div&gt;&lt;b style=&quot;font-size: 10px; background-color: transparent; color: light-dark(rgb(0, 0, 0), rgb(255, 255, 255));&quot;&gt;Transformations:&lt;/b&gt;&lt;br&gt;&lt;/div&gt;&lt;div&gt;&lt;ul&gt;&lt;li&gt;&lt;span style=&quot;font-size: 10px; background-color: transparent; color: light-dark(rgb(0, 0, 0), rgb(255, 255, 255));&quot;&gt;Data Cleansing&lt;/span&gt;&lt;/li&gt;&lt;li&gt;&lt;span style=&quot;font-size: 10px; background-color: transparent; color: light-dark(rgb(0, 0, 0), rgb(255, 255, 255));&quot;&gt;Data Standarization&lt;/span&gt;&lt;/li&gt;&lt;li&gt;&lt;span style=&quot;font-size: 10px; background-color: transparent; color: light-dark(rgb(0, 0, 0), rgb(255, 255, 255));&quot;&gt;Data Normalization&lt;/span&gt;&lt;/li&gt;&lt;li&gt;&lt;span style=&quot;font-size: 10px; background-color: transparent; color: light-dark(rgb(0, 0, 0), rgb(255, 255, 255));&quot;&gt;Derived Columns&lt;/span&gt;&lt;/li&gt;&lt;li&gt;&lt;span style=&quot;font-size: 10px; background-color: transparent; color: light-dark(rgb(0, 0, 0), rgb(255, 255, 255));&quot;&gt;Data Entichment&lt;/span&gt;&lt;/li&gt;&lt;/ul&gt;&lt;/div&gt;&lt;div&gt;&lt;b style=&quot;background-color: transparent; color: light-dark(rgb(0, 0, 0), rgb(255, 255, 255)); font-size: 10px;&quot;&gt;Data Model&lt;/b&gt;&lt;span style=&quot;background-color: transparent; color: light-dark(rgb(0, 0, 0), rgb(255, 255, 255)); font-size: 10px;&quot;&gt;: None&lt;/span&gt;&lt;br&gt;&lt;/div&gt;&lt;div&gt;&lt;br&gt;&lt;/div&gt;" style="text;html=1;align=left;verticalAlign=middle;whiteSpace=wrap;rounded=0;" vertex="1" parent="1">
          <mxGeometry x="385" y="380" width="130" height="250" as="geometry" />
        </mxCell>
        <mxCell id="YaeXBy9BYN40PlVeFBTf-41" value="&lt;font style=&quot;font-size: 10px;&quot;&gt;&lt;b style=&quot;&quot;&gt;Object Type&lt;/b&gt;: Views&lt;/font&gt;&lt;div style=&quot;&quot;&gt;&lt;font style=&quot;font-size: 10px;&quot;&gt;&lt;b&gt;No Load&lt;/b&gt;&lt;/font&gt;&lt;/div&gt;&lt;div&gt;&lt;b style=&quot;font-size: 10px; background-color: transparent; color: light-dark(rgb(0, 0, 0), rgb(255, 255, 255));&quot;&gt;Transformations:&lt;/b&gt;&lt;br&gt;&lt;/div&gt;&lt;div&gt;&lt;ul&gt;&lt;li&gt;&lt;span style=&quot;font-size: 10px; background-color: transparent; color: light-dark(rgb(0, 0, 0), rgb(255, 255, 255));&quot;&gt;Data Integrations&lt;/span&gt;&lt;/li&gt;&lt;li&gt;&lt;span style=&quot;background-color: transparent; color: light-dark(rgb(0, 0, 0), rgb(255, 255, 255)); font-size: 10px;&quot;&gt;Aggregations&amp;nbsp;&lt;/span&gt;&lt;/li&gt;&lt;li&gt;&lt;span style=&quot;background-color: transparent; color: light-dark(rgb(0, 0, 0), rgb(255, 255, 255)); font-size: 10px;&quot;&gt;Business Logics&lt;/span&gt;&lt;/li&gt;&lt;/ul&gt;&lt;/div&gt;&lt;div&gt;&lt;b style=&quot;background-color: transparent; color: light-dark(rgb(0, 0, 0), rgb(255, 255, 255)); font-size: 10px;&quot;&gt;Data Model&lt;/b&gt;&lt;span style=&quot;background-color: transparent; color: light-dark(rgb(0, 0, 0), rgb(255, 255, 255)); font-size: 10px;&quot;&gt;:&amp;nbsp;&lt;/span&gt;&lt;br&gt;&lt;/div&gt;&lt;div&gt;&lt;ul&gt;&lt;li&gt;&lt;span style=&quot;background-color: transparent; color: light-dark(rgb(0, 0, 0), rgb(255, 255, 255)); font-size: 10px;&quot;&gt;Start Schema&lt;/span&gt;&lt;/li&gt;&lt;li&gt;&lt;span style=&quot;background-color: transparent; color: light-dark(rgb(0, 0, 0), rgb(255, 255, 255)); font-size: 10px;&quot;&gt;Aggregated Table&lt;/span&gt;&lt;/li&gt;&lt;li&gt;&lt;span style=&quot;background-color: transparent; color: light-dark(rgb(0, 0, 0), rgb(255, 255, 255)); font-size: 10px;&quot;&gt;Flat Table&lt;/span&gt;&lt;/li&gt;&lt;/ul&gt;&lt;/div&gt;&lt;div&gt;&lt;br&gt;&lt;/div&gt;" style="text;html=1;align=left;verticalAlign=middle;whiteSpace=wrap;rounded=0;" vertex="1" parent="1">
          <mxGeometry x="550" y="380" width="130" height="220" as="geometry" />
        </mxCell>
        <mxCell id="YaeXBy9BYN40PlVeFBTf-42" value="BI &amp;amp; Reporting" style="text;html=1;align=center;verticalAlign=middle;whiteSpace=wrap;rounded=0;" vertex="1" parent="1">
          <mxGeometry x="787.5" y="225.5" width="90" height="30" as="geometry" />
        </mxCell>
        <mxCell id="YaeXBy9BYN40PlVeFBTf-43" value="Ad-Hoc&amp;nbsp;&lt;span style=&quot;color: rgba(0, 0, 0, 0); font-family: monospace; font-size: 0px; text-align: start; text-wrap: nowrap;&quot;&gt;%3CmxGraphModel%3E%3Croot%3E%3CmxCell%20id%3D%220%22%2F%3E%3CmxCell%20id%3D%221%22%20parent%3D%220%22%2F%3E%3CmxCell%20id%3D%222%22%20value%3D%22BI%20%26amp%3Bamp%3B%20Reporting%22%20style%3D%22text%3Bhtml%3D1%3Balign%3Dcenter%3BverticalAlign%3Dmiddle%3BwhiteSpace%3Dwrap%3Brounded%3D0%3B%22%20vertex%3D%221%22%20parent%3D%221%22%3E%3CmxGeometry%20x%3D%22790%22%20y%3D%22220%22%20width%3D%2290%22%20height%3D%2230%22%20as%3D%22geometry%22%2F%3E%3C%2FmxCell%3E%3C%2Froot%3E%3C%2FmxGraphModel%3E&lt;/span&gt;&lt;span style=&quot;color: rgba(0, 0, 0, 0); font-family: monospace; font-size: 0px; text-align: start; text-wrap: nowrap;&quot;&gt;%3CmxGraphModel%3E%3Croot%3E%3CmxCell%20id%3D%220%22%2F%3E%3CmxCell%20id%3D%221%22%20parent%3D%220%22%2F%3E%3CmxCell%20id%3D%222%22%20value%3D%22BI%20%26amp%3Bamp%3B%20Reporting%22%20style%3D%22text%3Bhtml%3D1%3Balign%3Dcenter%3BverticalAlign%3Dmiddle%3BwhiteSpace%3Dwrap%3Brounded%3D0%3B%22%20vertex%3D%221%22%20parent%3D%221%22%3E%3CmxGeometry%20x%3D%22790%22%20y%3D%22220%22%20width%3D%2290%22%20height%3D%2230%22%20as%3D%22geometry%22%2F%3E%3C%2FmxCell%3E%3C%2Froot%3E%3C%2FmxGraphModel%3E&lt;/span&gt;&lt;span style=&quot;color: rgba(0, 0, 0, 0); font-family: monospace; font-size: 0px; text-align: start; text-wrap: nowrap;&quot;&gt;%3CmxGraphModel%3E%3Croot%3E%3CmxCell%20id%3D%220%22%2F%3E%3CmxCell%20id%3D%221%22%20parent%3D%220%22%2F%3E%3CmxCell%20id%3D%222%22%20value%3D%22BI%20%26amp%3Bamp%3B%20Reporting%22%20style%3D%22text%3Bhtml%3D1%3Balign%3Dcenter%3BverticalAlign%3Dmiddle%3BwhiteSpace%3Dwrap%3Brounded%3D0%3B%22%20vertex%3D%221%22%20parent%3D%221%22%3E%3CmxGeometry%20x%3D%22790%22%20y%3D%22220%22%20width%3D%2290%22%20height%3D%2230%22%20as%3D%22geometry%22%2F%3E%3C%2FmxCell%3E%3C%2Froot%3E%3C%2FmxGraphModel%3E&lt;/span&gt;SQL Queries" style="text;html=1;align=center;verticalAlign=middle;whiteSpace=wrap;rounded=0;" vertex="1" parent="1">
          <mxGeometry x="782.5" y="370" width="90" height="30" as="geometry" />
        </mxCell>
        <mxCell id="YaeXBy9BYN40PlVeFBTf-44" value="Machine Learning" style="text;html=1;align=center;verticalAlign=middle;whiteSpace=wrap;rounded=0;" vertex="1" parent="1">
          <mxGeometry x="777.5" y="530" width="110" height="30" as="geometry" />
        </mxCell>
        <mxCell id="YaeXBy9BYN40PlVeFBTf-45" value="" style="shape=image;aspect=fixed;image=data:image/png,iVBORw0KGgoAAAANSUhEUgAAAgAAAAIACAYAAAD0eNT6AAAACXBIWXMAAA7DAAAOwwHHb6hkAAAAGXRFWHRTb2Z0d2FyZQB3d3cuaW5rc2NhcGUub3Jnm+48GgAAIABJREFUeJzs3Xd4VFX+BvD3TkvvlTSSmYTQq4KGugoIFuyIFXtnLYhiwd4rCvaGBYS1rYUVwUYXkF4kpFKSkN4zk0y5vz/cn6u7AknumTlT3s/z7LOPynzvGwi578y99xyAiIiIiIiIiIiIiIiIiIiIiIiIiIiIiIiIiIiIiIiIiLyFIjsAka8aNmyYsam2th/0+sEuVe2jAGkKkKECyQCiAegBxABwAmgC0KECDQpQDlU9qAL7FWCXS1G2FRcXFwJwSfxyiCjAsAAQddKwYcOMTXV1J7qACYpONx6qOhSASdD4ZgA/K4qyAk7nioLS0u0AVEGziYj+BwsA0dHpzGZznqKq5yuKchGAeA8dt0xV1U9VRfm4uLh4jYeOSUQBhAWA6C/06tUr3mW3Xwud7iaoaorkODuhqi85VPXD0tJSm+QsROQnWACI/iA7OztNdbnuVYDpAEJk5/kv1QDm643GF/Lz85tlhyEi38YCQASgd+/ecQ67/W6o6k0AgmXnOYZqAE9Ap3ulsLCwXXYYIvJNLAAU6BSLxXKpoqrPwXPX98VQ1WIANxSWlCyXHYWIfA8LAAUss9mco1OUN6GqY2Vn0UCFqn4QZLfftvvQoTrZYYjId7AAUEDKzso6H4ryJoAo2VkEOahT1Yv3lZSslh2EiHyDXnYAIk9KS0sLSYyLexuK8ii8/1p/V0SpinJpbHS0s66hgY8NEtEx8RMAChi9evWKVx2Oz1VglOwsbqUoH9va26cfOnTIKjsKEXkvFgAKCNnZ2X1Vl2upAmTKzuIJCrBGbzKdtXfv3lrZWYjIO7EAkN/L6dmzj6rX/4Df1ugPJNt1BsP4ffv21cgOQkTeRyc7AJE79crKGqTq9asQeCd/ABjkcjpXZWZmBuLXTkTHwAJAfqtXr15ml6Ish6893y+SqvYx6HRf9+vXL1x2FCLyLiwA5JfMZnOUy+H4AkCi7CxeYFiH1bpk3LhxBtlBiMh78B4A8jvjxo0zHNq/fwUUZZwnjhcaZECf9Bj0SY9BVmIEkqNDkBwTCqNBh/BgI1yqirZ2B6wdDhyua0NFfRsKK5qw91A98ssbYXe4PBETqqq+VFRScotHDkZEXo8FgPxOttn8JIC73HmMiFATTh6YilF9kjDYHA+9rnt/ldraHdhUUIXVew5j9e4KdLi7DKjqBYUlJf9w70GIyBewAJBfsVgskxVV/Rpuurxl6RGJaaMsGNM/BSaD2EM0t3Vg2dZD+HhNEaqb3LbrbxN0uqGFhYVF7joAEfkGFgDyG717945zdHTsgRuu+6fHh+OaU/pgVJ9kKG7+W2N3uPD1pv1Y8H0+mqx2dxxiQ2FxcR4Az1x7ICKvxKWAyW/ERES8CkUZKXKmyaDD5Sfn4p7zhyArKcLtJ38A0OsU9EmPwWnH90Rzmx2FFY2iD5EWFxtbV1dfv0H0YCLyHfwEgPyC2Ww+WQesgMDv6YzECNw/dSgsPSJFjeyWdXsP4+lPt6OxrUPk2GYX0L+4uPiAyKFE5Dv4CQD5A31cTIzQR/5G9UnG05ePQGJ0iKiR3ZYeH46TB6dhS3EN6lvaRY0NUoCkuvr6z0QNJCLfwgJAPi/HbL4cwDWi5p0/0oxZ5wyC0eA9fz3CggyYMDgdBeUNKKtrEzW2X2xc3Fd1dXWHRQ0kIt/hPT/hiLohMzMzWKconwKIEjHvgtEW3DC5HxRPXOzvIqNeh3H9U7CvvBFlta0iRipwuXrWNTQsFDGMiHwLVwIkn2ZQlEsAZIiYNWV4T1w/qa+IUW5jNOjw8MXHY2BWnJiBijLJYrEMEzOMiHwJCwD5NEVRZoiYMyw7AX8/Y4CIUW5nMujwyMXHIzUuTMg8RVVvEzKIiHwKCwD5rOysrIkqMFDrnPjIYDxwwdBur+YnQ2SIEQ9eOAxGMYsRTc3Ozk4TMYiIfIfv/MQjt7JYLP11Lte1LkWZqAA9AQTLzuQJigI8c/kJGJadIGxmi82ODflVyC9rQH1rB/QKEBcZjAE9YzHUkiB0BcElq4vw2rI9wub5gFYA+aqqLjU4HK/lHzxYLjsQka9iAQhww4YNMzY2NDwPVb0BAXhT6KnHZWDW2YOEzKpvbcf7PxTg60374XD+9SJ74cFGTBtjwXl5ZgQZtf92u1QVN766BvllDZpn+aBWRVHuKSgqekl2ECJfFHA/8Ok//n3y/wqqehEC8HJQeLARj14yHMEm7X8Ndu6vw21vrse2khq4VPWIv67D4cKWohqs+7USI3ISER5i1HRcRVFgTorEN1sCcj0fE4DJcbGx4XX19StkhyHyNSwAASwsJOQZAJfKziHLpX/rheG9tK8dtKOkFne8+zNa2x2dfk19azt+3FWOcf1TEB6srQQkRIWg+HAz9le3aJrjw/LiYmIK6urrd8oOQuRLAu5dH/3GYrFkAxByB70vCg824uwTMjXPqWmy4f5Fv8DejW1865rbMefDjXC6jvyJQWddPC7HI/sUeCsVeDotLU3+so1EPoQFIEDpgMsBaHvr6cNOPS4DYRrfeQPAO9/la1qjv6CiCV9uKNWco1dKFAaLWhvAN6WGmEynyg5B5EtYAAKUqqrjZWeQ6dRh2tcOqm2yYfnWg5rnLFpVeNT7BjprsoCvyZe5gAmyMxD5EhaAQKUo6bIjyNIrJQo9E8M1z1m7t1LIx/c1TTbkH9J+F//ovj0QbDJonuOrFEErQhIFChaAQKWq2s+APurE3klC5uw5WC9kDgD8KqAABJv0GGqJF5DGN6lAwH5PE3UHCwAFnOE5YnYNrmsWtjUvqhutQuackCtsR2Qi8nMsABRQEiKD0Ts9WnaM/6ETtAzxyN7JPrWkMRHJwwJAAeWM4ZnQCXpeLi4ySMgcAIiLELPycmxEEE7MFXOJg4j8GwsABYy0uDCcN9IsbF7f9FiBs8R9KnHtpD4IEbC6IRH5N5/6rHDcuHGGgwcPjtABeaqq5gLoDSAdQASAKLDQ0BHEhAfh+atORGZihLCZdc02TH36O81PAiRGhWDxrPFCF/JZt/cwHvxoc7cWKKKAYQfQAqBWAfarQD5UdY9LUVYVFxfvAqD9ERfyal5fAFJSUkJDg4PPVoELFWAseKcvddGAnrGYfd4QpMSGCp/93D934OtN+zXNuO3MgZgyvKegRP+xc38dnvh4Kyrq24TPJr9XBWC5qigLi4qKVgBwyg5E4nltAcjt2TPLqdfPAnAxgEjZech3BBn1iA0PQt+MGIwfnIYROYluWya3rrkdV89fifqW7j0RkJsajZevH+W2G/fsDhd+2FGGVbsPo6D8t+2Jj7RTIdFfUpRyqOobHQ7HSwcOHBD37CtJ53UFwGKxpCsu16NQlIsABO6qJl5u6f2TERrEPx4A2HWgHjPfXoeOLn7cHh8ZjFdvGI34SDE3APqqdlsHDlfVY19FMx7/8lfZcejImgG8rDcaH8/Pz2+WHYa085pr5uPGjTPkmM23KKq6G4pyGXjyJx/RPyMG868fjcSozu9FY+kRiXnXjQr4kz/5lAgAsx12e77FYrlMdhjSzituFc7OzrY0NTQsA3AlAHHPVpHbXDw2B0aD1/RH6eIigjBpSBocKlBY3njEGwOjQk24anwu7jhrEKJCTR5O6Z2cDidaWm2obenA6vwa2XHoGBQgQgHOjo2J6R8dE7O8vr5e3IpY5FHS32XnmM3nqC7XO/jtLn4inxURasKNk/viypN7YWNBNQrKG1HTaIVer0d8ZBAG9IzFYHM8F+ohf3GeTlWHZmdnn1dYWLhVdhjqOqkFIDsr6yYVeAledCmCSKtgkwFj+vXAmH49ZEchci9FMcPlWm2xWM4rKipaJjsOdY20E2+22fwQFGW+zAxERKRZmKKqX2RnZU2VHYS6RsrJN8dimQXgfhnHJiIi4UxQlA8tFstk2UGo8zxeALKzsi5VVfUpTx+XiIjcyqio6sdms/l42UGoczxaAMxm8wAoyuvwwvUHiIhIszAd8GmvXr3iZQehY/NYAejXr1+4DvgHgM4/LE1ERL4mXXU43gPf6Hk9jxWAdqv1Sfy2eQ8REfkxFTg1x2y+XHYOOjqPFACLxTIMwPWeOBYREcmnquozvBTg3TxSABSXax68ZNVBIiLyAEWJczmdD8iOQUfm9oWAcrKyJqiKcqLoueFhEchIyUBqUirCQsMQGhoGo8Eo+jB+a9E/P4TdYZcdg0iYxPgkTB53quwYwrS0taCxqdFt8+0OO9o72tHW1oqa+hpU11aJ/5mgqlfnpqc/kX/wYLnYwSSC2wuACtwjcl5MdCyGDTgOqUmpIscSEQUUo8EIo8GI8NBwJMYnQc3pi4rKchTtL0R7h7Dl/YOdRuMdAG4XNZDEceslgH8/9jdOxCydosOIwSfgjJOn8ORPRCSYAgUpSanIGzYK6T3SRY6+KiUlJVTkQBLDrQVA/9u2vpoFmYIwYcwp6J3dB4rCJ0uIiNxFr9cj19IHfbL7ivp5GxkWHHyWiEEkljsLgM6lqhdrHaLX6zF+1AQkJySLyERERJ2QmpyGPjn9hMxSgUuEDCKh3FYALBbLEAXQvB3ayGGjEB+bICISERF1QUpiCnqmZooY9bfMzMxgEYNIHLcVAB1wktYZGak9kZVhFhGHiIi6ITszB6Ehmi/hB+v1+jwReUgctxUAVVXHaHm9oigY2m+oqDhERNQNiqLAkpGtfZDLNU77EBLJnfcAaLp41DM1E1GR0aKyEBFRNyUlJGv/FEBRxNxQQMK4pQD8+1pPhpYZGamaXk5ERAIlxCZqer0C5AqKQoK4pQAYVTULGpb+VRQFqclpAhMREZEWCXHaCgAAi4gcJI5bCoBqNGr67D4sJAwmo0lUHCIi0ig8JEzriGA+CeBd3HMPgNMZoeXlIcEhopIQEZEABqMRep22Pd0MBoOmcwOJ5Za9AFSdLlRR1W6/PthNBcDusMPlcrllNhHJpbpcItewl67D3tHtzXn0ig46vfgNWI0mE5w2a7dfr7fbwwFUi0tEWrilAOhUVdf90z+ELffrdDpRULIPpYdKUFNfA6fTKWQuEXmf6rpqLP5ykewYXsOgNyA6KgY9EnogSdBKqlp/MjuNRo9sQU+d4/bdAGWprq3Cyg0/obWtVXYUIiKPczgdqKmrRk1dNfaX78fA3oMQHMRL8PQfftnGKqoq8O2qZTz5ExEBaGpuxKbtG2DT8PE9+R+/KwBWaxt++vlHftxPRPQH7R3t2L53O1RouUBL/sTvCsD2vdvR4Uc3AhERidLc0oTyw2WyY5CX8KsC4HQ5Uby/SHYMIiKvVV7JAkC/8asCUFtf2+3HZohIDqeGR4ap65pamuB08RIp+VkBaLXypj8iX9PRztLuSaqqor3dJjsGeQG/KgBOh0N2BCLqApfLhZYW3pnuaU4uiEbwswJARL5DVVVU1zTyZEQkid8uBETu5XKpcLl47Za6zul0wdbegabGFjicPPkTycICQN1yqKwaISbxa40TEZFnsABQt7R1OOHi3dskkNXOO9OJPIkFgLpl5sJtsiMQEZEGvAmQiIgoAPETgD8wmkwICQ6M3bKam5uh8iN88iN6vR5hYWGyYwijquoR/462tVnh4mI+pBELwB9Mmnwq7r3/AdkxPOLkMaPQ2sqFk8h/9B84CK+/9bbsGMK0NLegsb7xL//brJm3oLiYy56TNrwEQEREFIBYAIiIiAIQCwAREVEAYgEgIiIKQCwAAcqf7pYmAoCIiAjZEYh8CgtAgOrRI0V2BCKhevToITsCkU9hAQhQI/LyZEcgEupEfk8TdQkLQIA6fcqZCAoKjEWPyP+lpadj+Aknyo5B5FNYAAJUYmIirrj6atkxiDTT6XS4fdadMBi4rhlRV7AABLDpV1yJSaeeJjsGUbcpioKbZvwdeSNHyY5C5HNYmQOYoih44OFHYLZY8M6bb8Bms8mORNRpsXFxuOPO2Thp/HjZUYh8EgtAgFMUBZddfgVOPe00LP36a/y8fj0Ol5dxnwDySlHR0UhPS8eosWMx+bTTERISIjsSkc9iASAAQHxCIqZfcSWmX3Gl7ChEROQBvAeAiIgoALEAEBERBSAWACIiogDEAkBERBSAeBMguY3T6cTePXtQWVmJtrZWhISEAgBCQkMQHRWN6JgYxMbGIph3chMReRwLAAnX1NSE9xe8i6/++TkaGxuP+eujo6PRIyUFqWlpsGTnIDs7Gzm5vZGcnOyBtEREgYkFgITK37sXs267BVVVVZ1+TUNDAxoaGvDrnj34bvny3/99fEIiBg0ehEGDh+CEE/OQ0bOnOyITEQUkFgAS5kBpKW6+/lo0NzcLmVdTXYXvV6zA9ytWAABSUlMxctRonDx+PAYOHgKdjrewEBF1FwsACeFyuTDn3ruFnfz/SnlZGT5eshgfL1mM+IRETJg4EVPOPhtZWWa3HZOIyF/xLRQJseqnH5G/d6/HjldTXYWPFn6IC887F9dfdSVWLF8Ol8vlseMTEfk6FgASYsXyb6Ude9u2rZhz910476wpWPLRItg7OqRlISLyFSwAJMSve/bIjoDysjK88OwzmHrOWVjy0SK0t3N3QyKiI2EBICHq6upkR/hdRUUFXnj2GZx/1pm/30BIRER/xgJAQjgdDtkR/kdVVRXunX0nbrruGpSWFMuOQ0TkVVgAyO9t/uUXXDLtAjz/zNOwWa2y4xAReQUWAAoIDocD/1j8ES6eNhV7du+WHYeISDoWAAooZYcO4ZorpuODBQugqqrsOERE0rAAUMBxOp14ed6LuHPm7WjqxF4FRET+iAWAAtbqlT9h+sUXYs+uXbKjEBF5HJcCpoBWUVGBG669Bo89+SRGjRkrO06nOZ1ObN2yBdu2bEZVVRVaW1tkR6K/YDAYERcfj+ycHOSNHIXo6GjZkYh+xwJAAa+93Ya77piJ2ffehzPOPEt2nGNasXw5Xpn3IirKy2VHoS4wGo049/ypuPaGGxEaGio7DhELAP1Hh0tBXbuCOpsOrQ4FbQ4FrXYFLiiwOYH0MCdGJNrdcuz7EjOw29qK7e2tKOmwwdO35zmdTjz+yMOor6/HZZdf4eGjd46qqpj73LNY8tEi2VGoG+x2OxYvWohNGzbg+XnzkZSUJDsSBTgWgABV36FDUaMe5W16lLfpUNGmR6tdOeprbHF2txWAC/sOgKHDDsVmQ0NTM1a3NOCHlgassTaj0emZRYZUVcUr815CXW0tbrl9JhTl6L8fnrbgnbd58vcDRUWFuOOWGXjz3fcQHBIiOw4FMBaAANFiV1DUZEBpsx4lzXocatXLjvRnCqAEBwHBQYiOjsLptgSc0WaFo82K1S0N+LixBj+1NsLhgc8GFi9aCL3BgBm33Or2Y3XWgdJSvPX6a7JjkCAFBQV47913cN2NN8mOQgGMBcCPtdoVbK01YnONEQdb/veEr7qcsLfUw9HWAEdLPVyODjg72qA67NCbQmCKTUFojxwoiucfFvn/MmCIjsS4lnCMi4hBjb0dHzfW4P2GKtS5+VOBhe+/h7jYWFx06WVuPU5nffjB+3A6nbJjkECLFy3E9CuvQnBwsOwoFKBYAPyM0wXkNxqwucaI3fVGOFyAo7UBLYf2oK08H61l+bDVHICtrgwd9RVQXUc/qZgiE5CUNxVpE64FEOSZL+KPdDookRFARDjiW9twgykYl0cn4R9NNXi7/jAqHe65JAEA816ci5jYWEw+7XS3HaMzVFXFqpU/Sc1A4lmtVvyycYNPPX1C/oUFwE9YHQrWVJqw5rAJ9dVVaNi7Bo2FG9FUvAXWyu5vhNPRVI2Dy15G1cbP0fPOl4GcTHGhu0JRoISHAWFhCGlpwXSDAVMj4/F2QyXeqj8Mq8sl/JCqquKxhx9CVEwM8vJGCp/fWY2NjWior5d2fHKf0pISFgCShgXAx7XaFaytNOFfmwpR9ssy1O36Ea2HfhV+nPa6cnz+yHSck/MeMjIzhc/vNAVQIsKBsFCENjThZp0O50bG4amaMnzTLH5LYofDgXvunIW333sfFku28Pmd0drCZ/z9VQv/bEkiFgAf1epQ8Nm2eiz98jNUbvoa1qoStx+zvbUJ994zG+99uAg6neRFJHU6IDYaCAtFj/oGzE3OwqSwaDxYfQD1gu8PsFmtuPeuu7Dggw+l3LUdExvr8WOSZ8TGxcmOQAGMSwH7GBXAB8s24oKrb8MrN4xH6dJ5Hjn5/7+C/Hx8/90Kjx3vWJQgE5SkBCgRYZgUEYOvMvpidGik8OOUlhTj6SceFz63M0JDQ5GZZZZybHKvfv36y45AAYwFwEeoqorPv12JM86/DC/fex1qdv54zBv43GXFsmVSjntEigJERwHxsUgwmfBGSjZuiE2G6Kf4/7X0a3z95ReCp3bO+IkTpRyX3CclNRV9+vWTHYMCGAuAl3M6nfjmm2WYcs4FeOqeW1FTvFN2JOz20s1zlJBgKMmJ0AWZcGtcKuanWBAq+BHGZ596EsXFRUJndsa0iy5GdEyMx49L7nPDTTfLv5RGAY3ffV5s04YNuOD88/HQfXej+kCB7Di/q6+v895n0vV6KInxUEJDMD4sGu+l9UK0TtyiRzabDQ/fP8fjX394eDgeefxJ6PVetoATdcvpU87EhFMmyY5BAY4FwAvV1lTjofvnYMaN1+PQfs9d3+8sl8sFl7cWAOC3SwJxMVDCQzEwOAyL0nORbDAKG7/311/x+aefCJvXWccPH47n5r6EiIgIjx+bxDnrnHMw+977ZMcgYgHwJk6nEx8t/BBTzzkb3yz9WnYc3xcTDURGwGIKwQdpuUgQWAJef+Vl1NXWCpvXWSfk5eGjjz/BWeeei7CwMI8fn7pHp9Nh0JChmPfKa5h97xwYDHwAi+Tjd6GX2F9agvvuuRsF+fmyo/gVJSoCqqIgo7EJb6fk4NKyfUI2F2pubsa8F+figYcfEZCya+ITEjH7nvswc9Zd2Ld3L2pqa+Cwe2bDJOq6qOhomM1mPvJHXocFwAt8s/RrPP3E47BarbKj+CUlMhxwOZEL4PWUbFxetg82ASsHLvvXUkw580wMGXac9pDdYDQa0W/AACnHJiLfx0sAEtlsNjz28EN46P45PPm7W3QUlLBQDAkOwyMJGUJGqqqKuc8/B1V1/w6FRESisQBIUlpSjKsuuxRfffFP2VECR2w0lJBgTImMw/ToRCEj8/fuxfp1a4XMIiLyJBYACbZt24prrrgcRUWFsqMEnrgYwGjAXQnpGBYcLmTkgrfeEjKHiMiTWAA8bM2qlbjlxhvR3NwsO0pgUhQocTHQKwqeTs5EmICFWHbs2I7Nv/wiIBwRkeewAHjQ119+gbvumIn2dpuU44dExSNz2HiMuHAWFIGL4/gcoxGIiUSaMQiz4tOEjFzw9ptC5hAReQqfAvCQDxYswCvzX/LoDWM6gxEp/U5E1vCJSOs/EhGJ6b//t00fz5W2l4A3UMLCAFsHpiEB/2qpx8Y2bZ/IbNq4Ebt37uRd+UTkM1gAPOCjhR/i5XkveuRYiqIgpd+JyB17LjKGngRTKFeNO6LYaCjt7bgnPg3nHtwLp8Zy9tmnn7AAEJHPYAFws+XLvsG8uS+4/TjG4DBk552BfpMuQ2x6L7cfzy8oChAVhT5OF86LiMOSphpN475bvhy3zryDS/USkU9gAXCjdevW4uEH7odLwKIzR2IICsXA067EwNOu4rv9blDCQoDWNtwSn4ovW+pg1fBn1d5uw/fLl+Osc88VmJCIyD14E6Cb7Nq5A/fcOQsOh3uWaNUZjBgw+Qpc+NKPOO78W3ny1yImCnEGI86PjNc8asXyZQICERG5Hz8BcIOKigrMvOXvsLlpdb/k3GEYfc1jiEnNdsv8gGM0QAkPxVX2ZHzUWA27hnsBtm3ditraGsTFaS8TRETuxE8ABHM4HJhz92w0NjYKn20KCceoKx7EGfd/xJO/aBERSDaacEZErKYxTqcTK3/8UVAoIiL34ScAgr368nzs2rlD+Nz4zH6YcNv8Pz3KRwLpdVDCQ3FBZDw+a9K2ze+6tWtxznnnCwr215xOJ7Zt3YqtWzajuroKLVxYyisZjSbExccjOzsbeaNGIyoqSnYkot+xAAi0dvUqLPrgfeFz+5w8DXnT50BvDBI+m/4gIhyDm9uQYwpGQUf3F2vavGkj7B0dMJpMAsP9x4rly/Hq/JdQXlbmlvnkHkaTCeedPxXXXH8DQkNDZcch4iUAUSorK/HwA/cLXehH0ekx5trHMfrqR3ny9wS9HkpYCM7VeDOg1Wp1y6dAqqrihWefwZy77+LJ3wfZOzrw0cIPcc3l01FZWSk7DhELgCiPP/KQ0Ov+hqAQnDLzVfT+21RhM6kTwsNwSkSM5jHbtm0TEObPFrzzNpZ8tEj4XPKsoqJC3HHLDLfdJEzUWSwAAny3fDk2rF8vbF5QWCROvftdZAw9SdhM6iSTESkhYegdFKJpzE7BBeBAaSneev01oTNJnoKCArz37juyY1CAYwHQqK2tDS8+/5yweaaQcJx67/tIzj1O2EzqorAQ/C0sWtOIXbt3CQrzmw8/eB9OZ+Du3eCPFi9aCJtNzsZgRAALgGZvvf4aqqurhMzSG4MwcdbrSMjqL2QedY8SGoqRGhdWampsRFWVmO8LVVWxauVPQmaR97Barfhl4wbZMSiAsQBoUFhYIOyarKLT4+S/z0VKnxFC5pEGeh0GRMVA64bJhQX7hMRpbGxEQ329kFnkXUpLSmRHoADGAqDBvLkvCPtYdviFdyDzuAlCZpF2waFhyNV4H0BJUZGQLK0tLULmkPdp4Z8tScR1ALppz+7dwm78yxoxGQNPu1rILF+1vr7Wu74ZnU7EGkxAe/fv1C4vLxcSJSZW2+qE5L1i4+JkR6AA5lU/c33JgrffEjInKsWMsdc9AUVRhMzzVVdv+1l2BOEqBD2rHxoaiswsM0pLioXMI+/Rv/8A2REogPFE9+QFAAAgAElEQVQSQDcUFhZg9aqVmufo9AaMnzEXppBwAanI21RUVAibNX7iRGGzyDukpKaid9++smNQAGMB6Ib33n5byIp/g6dch7hM/gDwV/UN4m7cm3bRxYiO0b5AEXmPG266GTodfwSTPPzu66JDBw/ih++/0zwnOtWCIWffJCAReavmpia4XC4hs8LDw/HIY09Ar9f6bAJ5g9OnnIkJp0ySHYMCHAtAF33+2adC7vwffdUj0Bvds1kMeQen0yn0Lu/jR4zAM8+/gLCwMGEzyfPOOe98zL73PtkxiFgAusJut2PpV19qnpMx9CT06DNcQCLydvaOdqHz8kaNxuJPP8NZ55zDIuBDdDodBg0ZinmvvIY7774HBgPvvyb5+F3YBatXrtS8IIui02H4tJmCEpG36+iwC5+ZkJCI2ffOwcw7Z2Pf3r2oqa2Bw+4QfhwSIyo6GmazmY/8kddhAeiC71Z8q3lG9sgpiE3PFZDGywT4Y4xH4nC478RsNBrRbwAfIyOi7uElgE6yWa1Yt3at5jmDzrhGQBrvExkZJTuCV4qM4u8LEXknFoBOWrtmjeb9u1P7neif7/4BpKWny47gdSKjohAZGSk7BhHRX2IB6KT167S/++97yqUCknin0aNHy47gdUaOGh3wKzwSkfdiAegEVVWxft06TTPC43qg57CTBSXyPlPOOhsREdq20PUnOp0OF13iv4WPiHwfC0AnFBUVoramWtOMrBGTodP57yIukVFRuHXmHbJjeI0LL7kUOb16yY5BRHRELACdsHP7ds0zzCP8f9Wv086YghumnB3wH3tPOGUSbrx5huwYRERHxccAO2GHxgIQFpOExOzBgtJ4t+kP3I+eY0bhpReeR7mg3fB8RWRUFK6+7nqcP/WCgC9BROT9WAA6YfeunZpenzHsZCgBtOnHuL+dhJGjRmPD+nXY+PPPKK+oQHu7TXYstzAajEhITMTQYcMwasxYrs5HRD6DBeAYbFYrDh08qGlGSp/jBaXxHUajEaPGjMWoMWNlRyEior8QOG9Lu6mwsEDzjm5JvYYJSkNERCQGC8AxlJaUaHp9WEwSwuNTBKUhIiISg5cAjkHrjWwJOf5589+mXzbBqPe9b5+wsDAkJSchLj5BdhQiIql87ye4h1VUVGh6fVRyppggXub2GTfLjqBJRmYmzjjjTJw/bRqCg4Nlx+kyp9OJrVu2YNuWzaiqqkJra4vsSPQXDAYj4uLjkZ2Tg7yRoxAdHS07EtHvWACO4fDhw5peH5nENfK90YHSUrw870V8/tkneOq5F5CTkyM7UqetWL4cr8x7ERXl5bKjUBcYjUace/5UXHvDjQgNDZUdh4gF4Fga6uo0vT4yMUNQEnKH8rIyXHLVZWiYdx0cPRP/9N9mYghujO4hKdn/UlUVc597Fks+WiQ7CnWD3W7H4kULsWnDBjw/bz6SkpJkR6IAx5sAj6GxqVHT6yMS0gQlIXdRWm0Ie3ghmnQNaDQ2/f6/DlXb0x+iLXjnbZ78/UBRUSHuuGWG5t1FibRiATiGxoYGTa83hXKDHF9gKq1BxL92/OnfBXvR4k0HSkvx1uuvyY5BghQUFOC9d9+RHYMCnPf8hPNCTqcTTqdT0wxDUIigNOI4OmxQNa5t4I8iVvz6p38OV7znCtmHH7yv+XuRvMviRQths/nnCpnkG1gAjsJut2t6vaLTw2DyvjvMd3z9FlQXTyb/LXhXGeBSf//nHnqTxDT/oaoqVq38SXYMEsxqteKXjRtkx6AAxgJwFA6HQ9Pr9V548m+tO4xtX70hO4ZXUhxO6Bv/c1022egdBaCxsREN9fWyY5AbaF1ojEgLFoCj0Gm8Buy0dwhKIs6Gj56Bw9YmO4bXUv5waSTDYJSY5D9aW/iMv79q4Z8tScQCcBRGg7ZrwKrT7lUloLJgK4rWfik7hldTjXoAQJgjFBE677gHIDYuTnYEcpPY+HjZESiAsQAchcFo1Lyvu7WtWVAabVSXC+vfewSqqh77Fwcw1fjbST/WES45yX+EhIQgM8ssOwa5Qd++fWVHoADGAnAUiqIgJETbXfytzd5RAApWf46qoh3H/oUBTNUrcAX/VgBS1EjJaf5s/MSJsiOQYCmpqejbr7/sGBTAWACOITomRtPrvWGNdrutFRuXPCc7htdzRYYA//7Ep7fiXWu2T7voYs3fi+Rdrr/xJs33GRFpwe++Y4iKitL0+vpqbXsJiLDl81fQVl8lO4bXc0b959OewUZtf+6ihYeH45HHnoBer5cdhQQ49bTTMXHSZNkxKMCxAByD1m1j6w/uE5Ske5oqD2DXN+9KzeArnHG/XfdXVAXjQryrAADA8SNG4JnnX0BYWJjsKKTB2eeeh3vuf0B2DCJuBnQsKT20bQbTfCgfdidglPTG7ecPnxDyJEJwcizCMr1nY5y/0lJcjvaq7j8vb+/x20k/wR6D9HDvWAPgv+WNGo3Fn36Gt994HSu+/Ratra2yI1En6HQ6DBg0GFddfQ2Gn3CC7DhEAFgAjik5JUXT69sOF6DVAURLKABlu9ah9JcV2gcpCoY8dxOiBlq0z3KjTVc+qa0AJP9WAAY7k0VFcouEhETMvncOZt45G/v27kVNbQ0cdm2LVpH7REVHw2w283FO8josAMeQkaFtO9+2yhK02JyIDvJsA1BdTqx//zEhs1JOz/P6k7/qdKFht7ZV1expv91k9zdj4jF+pXcwGo3oN2CA7BhE5KN4D8AxWHJ6aXq96rSjvGgnPP30/a/ffYS6g/ma5+hDg5B763kCErlXc8EhONvaNc3oMCdAURVMCeXiLETk/1gAjiE5ORnh4doWhand9ROaPLggYHtLAzZ9PFfILPPVpyMo0fsfP2vYWqDp9arJAHt6HFI64pFk5AdjROT/WACOQVEU9MrN1TSjfvdPaLBpW1GwKzZ/8hLaWxo0zwlJS0DWZZMEJHK/6tXbNb2+w5wAVa/gJFXbJR8iIl/BAtAJgwYP0fT6loO70VBXBbvr2L9Wq4ayQuz5bpGQWb1nToMuyDs2xDkaR5sNtRv2aJphHZQGRVVwfXi6oFRERN6NBaATBgwapG2AqqJ+z2o0aLtE3Snr3n8MLqf2O8Ljju+NpPHDBCRyv+qV2+Hq0PY12/qnwtKegtwg79vCmYjIHVgAOmHgoMGaV2Cr2vhP1NsUuHMvnv2bv8ehHas1z1H0OvS+6yIBiTzj8IpN2gboFFgHpuMcXaaQPEREvoAFoBPCw8PRf6C2TwEa8tehqaIQdW76FMDlsGPDwieFzEo7bxwicn3jWnh7dQOqf9qmbUavZChRkbgmStuaD0REvoQFoJPyRo7UPOPwmsWoddOnADu/eRcNFdqegwcAY2QYet18joBEnnHwk5/g0rgITuuILIxoNyNGx3X2iShwsAB00qgxYzTPqNrwGdptVjQKfiTQ2liDrZ+/ImRW9vVnwhit7bFHT1GdLhz8ZKXmOW15ObgvTNuTHkREvoYFoJMslmxkZZk1zXC0NaJ60xeotipCFwbatOR5dFi1bzscltUDGReeLCCRZ1Qs26Bp6V/gt/X/+/U8EceHcIMdIgosLABdcPLEiZpnHPjXS7DZrKhuE7MuQE3pHuSv/ETIrN53XgjF4Bsfg6tOF4pe+1LznJaT++LesD4CEhER+RYWgC6YfOppUBRtJ+6OhkqU/7gANTbA5tSWR1VVrFvwMFSX9gUGEsYMQsKogZrneMqhz1ehtbRC85zkseMxJjRSQCIiIt/CNU+7IDUtDccdfzw2bdyoaU7ZiteRPGoaDhti0DNSRXcrRdHPS3E4/xdNWQBAZzSg96wLNc/xFKetA0WvfaF5jq1/Kh7N9Z1LHn/kdDqxdcsWbNuyGVVVVWht1X4JiMQzGIyIi49Hdk4O8kaOQnR0tOxIRL9jAeiiKWefq7kAOKzNOPjNfBjPm4PGdiA6qBsz2q3YuOhpTTn+X8ZF4xGW6d1b4P5R0etfwlap7do/ACSfcgrGh0UJSORZK5YvxyvzXkRFebnsKNQFRqMR554/FdfecCNCQ0NlxyHiJYCu+ttJJ6FHivbnxStWfoDmkq2oaFXQ3o1LAdu/fhMtNdpPAKbYSGRff6bmOZ7SnH8AJQu+0TzHGReBV868QkAiz1FVFS88+wzm3H0XT/4+yG63Y/Gihbjm8umorKyUHYeIBaCrDAYDLrtc+4lDdTmx7/074Gxvw6EWBa4uPBbQUluB7V+9qTkDAOTMOAeG8BAhs9xNdbqw68F3oTo03jwBoP9558Ic5huPO/6/Be+8jSUfidnngeQpKirEHbfMgM1qlR2FAhwLQDecfsYUxCckap5jrSpFyedPot0JlLd2/k6AjQufgqNd+w+PyN4ZSDtb+/oGnlL81tdo3KV9sSM1MgzzL7lGQCLPOVBairdef012DBKkoKAA7737juwYFOBYALrBaDLh4ksvFTKrYs0i1O9ZiaYOoL4TywQfzv8FRT8vFXLsPnddDEXvG98CtT/vRuGr/xQy65QLLkSYj12D/fCD9+F0av/kg7zH4kULYbPZZMegAOYbP/290NnnnIvomBjtg1QV+Qtuh7WqFIdbFTQfZZVA1eXC+vcehSpgLeHkU4Yj5jjfWP2uvaoe2+96HapT++OOhrBQ3HnJdAGpPEdVVaxa+ZPsGCSY1WrFLxs3yI5BAYwFoJuCQ0KE3AsAAI7WBux55Up0tNbjUKuCVvtf/7p9qz5FdckuzcfTB5uQe/tUzXM8wWltx5bb5qOjrknIvCunX4HwcN+69t/Y2IiGeu1PPZD3KS3RfkmLqLtYADSYOu1CWCzZQmZZq/fj19eug7OjHYdaFFj/a3+bDmsLNi5+TsixMqdPQkhKvJBZ7qQ6nNh2+8to3FEkZF6P9HRccomYSzee1NrCZ/z9VQv/bEkiFgANDAYDZs2erXl1wP/XVLwZ+z6YBYfTiQPNyp9WCtzy2cuwNtZoPkZwUgzMV56meY67qS4Xdt73FqrX7BA28647Z8MU1I1FFySLiY2VHYHcJDYuTnYECmAsABoNHjoMk08Vd0Kt2bwU+e/cAofDjpJGBS12oKlyP3YtWyBkfq/bpkIf6t0nQdXpwp5H3kf50vXCZp40fjxOyMsTNs+TQkNDkalxIyryTn379ZMdgQIYC4AAM269DZGR4taTr9n6DXa/eg2c7W042KJg9XtPwOU4wo0BXRA9yIKUU08QkNB9XHYHtt/1Gg5+8pOwmSEhIbh15ixh82QYL2AjKvIuKamp6Nuvv+wYFMBYAASIiY3FTX+/RejMhl9XY9f86aj+ZSnKtn6neZ6i06HP7EsAQZcr3MHZ1o4tM17E4W+1LbX83264eQYSE7Wv2yDTtIsuFvPUCXmN62+8CTodfwSTPPzuE+TMs8/BBMHv0pqKt2DvO38XMivljDxE9c8SMssdWksP4+dLHkHN2p1C544eOw7nXzBN6EwZwsPD8chjT0Cv943tmunoTjtjCiZOmiw7BgU4FgCB7rn/QWRkZsqO8T8MocHodct5smMcUdWPW/HzRQ+jueCQ0LlJSUm474EHhd2kKdvxI0bg2RdfQkREhOwopMFZ55yD2ffeJzsGEQuASCEhIXj08SdhMnnXTXbma89AUIL3bUPqbGvHr098iC23vAR7c5vQ2QaDAY899TSionxvt7+jOfHEPCz6+BOcdc45CAsLkx2HOkmn02HQkKF46eVXMfveOTAajbIjEXE7YNF65ebilttvxzNPPiE7CgAgND0RmZeeIjvG/6j9eTd2PbQA1kPVbpl/44y/o/+AgW6ZLVtCQiJm3zsHM++cjX1796KmtgYOu+PYLyQpoqKjYTab+cgfeR0WADc49/yp+HXPHnz95ReyoyD3jmnQmbznj7m9qh77XvoUZV+uBQQsafxXJk6ajAsvvsQts72J0WhEvwEDZMcgIh/lPWcGP3P3fXPQ0tKMn374QVqGuOF9kHTSUGnH/yN7UyuK3/4XDnz0HZzWTux61E3HHX885vjRdX8iInfhPQBuotfr8dCjj2HQoMFSjq/odeh9t/x3we3VDSh4+XOsmnwnSt5Z6taTf99+/fDMCy/CaDK57RhERP6CnwC4UVBQMJ6Z+yJuuPoqFBUVevTYjVMGY1MPHfo4rOhhCPHosQGgYXsR9i9agcoVv8DlgevTGT174vkX5yEkxPNfKxGRL2IBcLPIyEjMffllXHfVlSgvK/PYcUM2FKPqxX+ieHQOQvpnondIDCzGCETr3fTuWFXRuLMYh7/bjMrvfkHbwSr3HOcvJCUl4cX5r3ChHCKiLmAB8ICEhES8+e4C3DrjZhTk53vkmMbyBkR/tAHRH22AMzYMxcdlYk/fFJgGZSK9dzbSg8ORrA+BUeneVSDV6UJLURnqt+xDw/Yi1G36FbZKz29Zm5VlxtyXX0FSUpLHj01E5MtYADwkLi4er77xFu68/VZs2bzZo8fW17UiYvluRCzfDQBoCDGhOiMWjpRoGFLjEZ6eiMiYSERFRCIqLBwhIcFQoMJhs8Nla4e9qQ2O5ja0HaxC26FqWA9WobX0MBxtNo9+Hf9twICBeO7FlxDpZ8/6ExF5AguAB4WHh+PF+a/goQfm4Lvly6Xl0Fk7EJR/GEH5hwEAdgC1//6frxh+wgl46tnnec2fiKib+BSAhxlNJjz06OM4b+oFsqP4rClnnY0XXprPkz8RkQYsABLo9XrccddsPPH0swgPD5cdx2eYTEG47Y5ZuGfO/dwUh4hIIxYAif528sl45/0PkZObKzuK1+uZmYV3PvgAF1x4kewoRER+gQVAsoyePfH2u+9h6rQLZUfxWpNPOx3vfbgQ2dk5sqMQEfkN3gToBUxBQbh91p0YdvzxeP7pp1BZWSk7kleIT0jErbfPxPiJE2VHISLyO/wEwIuMHfc3LPnsn7j62usCejlbvV6PqdMuxJJPP+PJn4jITVgAvExwcDCuvu56LFz8Dww/4QTZcTyuT9++ePPd93D7rDu53z0RkRvxEoCXyujZEy/OfwXfrViOd998E8XFRbIjuVVGZiauvOpqnDL5VO7kR0TkASwAXkxRFEyYeArGT5iItatX4Z2338KeXbtkxxLKYsnGxdOn45RJk/loHxGRB7EA+ABFUTBqzFiMGjMW69atxXtvvYXt27fJjqVJ3/79ccWVV2HUmLF8x09EJAELgI/JyxuJvLyRKCwswDdLl+Lbb75BTbXndt7TIjQ0FBMmTcKZZ56Nvv37y45DfqyhoQFrVq3Evvx81NfVwaW6ZEdCcFAwkpKTMXzECAwYNJifeJF0LAA+Kjs7BzNuuRU33jwDmzZswDf/WoqVP/4Am03uBj3/zWQKwol5eRh/yikYPXoMgrl8L7mRzWbDG6+9ik+WLEFHR7vsOH/pnbfeRFaWGbfOvAMjTjxRdhwKYCwAPk6v1+OEvDyckJcHm9WKXzZtxLq1a7Hh5/UoO3RISqYeKSkYceKJODFvJIaPOIFr9pNH1NXW4ra/34z8vXtlRzmmkpJi3Pb3m3HTjL/j4sumy45DAYoFwI8Eh4T8fq8AANRUV2Hb1m3YuWM7Cgv2oaCgAE2NjUKPGRkZCUtOL+RkZ2PA4MEYNHgIEhMThR6D6FjsHR24a+btPnHy/38ulwvzXpyLuPh4TDr1NNlxKACxAPix+IREjJ848U+L6dTWVOPgoUOoKCtDeXk5Gurr0dDQgMbGBrS0tMDldMLhdEJRVegNBuh0OoRHRCAqMgpR0dGIjolBSmoqUlNSkJqWhvgEnuxJvo+XLMbOnTtkx+iW5595GnkjRyEyKkp2FAowLAABJi4+AXHxCRg8eIjsKERCuFwuLPzgA9kxuq2pqQmff/Yppl9xpewoFGC4EiAR+bTdu3ehtrZGdgxNVq9cKTsCBSAWACLyaftLSmRH0Gx/qe9/DeR7WACIyKeJvrFVhubmZjgcDtkxKMCwABCRT1NVVXYEIfzl6yDfwQJAREQUgFgAiIiIAhALABERUQBiASAiIgpALABEREQBiAWAiIgoAHEpYCIKaD2HjUfOqCndfn1ZiwIVQP67t0J1OcUFI3IzFgAiCmhRPbJgPuHUbr++ve7fBWDB7QBYAMh38BIAERFRAGIBICIiCkAsAERERAGIBYCIiCgAsQAQEREFIBYAIiKiAMQCQEREFIBYAIiIiAIQCwAREVEAYgEgIiIKQCwAREREAYgFgIiIKACxABAREQUg7gZIFCBaWlrgcrlkx0B4eDh0Or73IJKNBYDITzU0NOCTJYvx008/4kDpfnR0tMuOBADQ6/VISk5G3shROG/qVGRmmWVHIgpILABEfuhfS7/Gc089idbWVtlR/ofT6UR5WRk++ccSfP7pJ5h28SW48eYZ0Ov1sqMRBRR+DkfkZxZ98D4evn+OV578/5vT6cTC99/DnHtme8XlCaJAwgJA5Ed+2bQJ8196UXaMLvvhu+/wwXsLZMcgCigsAER+QlVVzH3+WZ99J73g7bdQV1srOwZRwGABIPITv+7Zg8J9+2TH6Dar1YoVy7+VHYMoYLAAEPmJzZs2yY6g2aaNG2VHIAoYLABEfqKqqlJ2BM0qKw/LjkAUMFgAiPyE1WqVHUEza1ub7AhEAYMFgIiIKACxABAREQUgFgAiIqIAxAJAREQUgFgAiIiIAhALABERUQDiboBEBADQhwZBZ+jejwQVQIfqBFwqdK3ese0wER0dCwARAQD63n0JUs8a3a3XNjg78GFTEYxl9eh54RuCkxGRO/ASABERUQBiASAiIgpALABEREQBiAWAiIgoALEAEBERBSAWACIiogDEAkBERBSAWACIiIgCEAsAERFRAGIBICIiCkBcCpiIKMCpqgq7vQPtHe1wqSqcTgcAwO6w//v/f/tnp9MpLSOJxwJARBRgig8UQVVVtLfb0G7vgN3eAVVVZcciD2MBICIKMNW1VXIO7HK9mm02r1EVZZNer9+0b9++GjlBCGABICIiz5kAYIKiqnA5HMg2mwugKD8pqvqj3eX6sbS09LDsgIGEBYCIyMe4VJfsCKLkQFVzVOAag06HbLN5J4CvodN9VVhYuAGA33yh3ogFgIjIB5SXl2HtmlVYs2YVDh08KDuOuwwAMAAu193ZZnMVFOVLFVhUVFS0EiwDwrEABJjysjJs/PlnHD5cgYaGetlxYDSaEBsXh169euG44cMRFBQsOxKR16itrfntpL96FYqKCmXH8bREqOrVCnB1ttlcBmCJTlXf31dSsl12MH/BAhAgiooKMf+FF7B+/TrZUY4oLCwMl0y/HJdcehmMJpPsOERSqKqKXzZtwpJFC7Fu7Vq4XHz0DkAqgNtdinJ7ttm8Ear6Rmhb2+IdlZWtsoP5MhaAAPDTD9/jwTn3wWazyY5yVK2trXj9lZexfs0aPP3CXERHR8uOROQxbW1tWPHtMnzyj3+gtKRYdhxvNhyKMrwtLOx5i9n8rtHlmru3tLRUdihfxJUA/dy2LZsx5567vf7k/0c7dmzH7Jm3w263y45C5DFnnTYZzz71JE/+nRepALc4dLqC7KysxWaz+TjZgXwNC4Afs9vteOShB33yRLpt21b846NFsmMQeYzVapUdwVcZoCgX6IBNFrN5Ra+srOGyA/kKFgA/tvzbZSg7dEh2jG57f8G7cPx7CVIiomNRgPEuRdmQbTZ/lZ2dPVR2Hm/HAuDHVv7wg+wImjQ2NmLrli2yYxCR7zkdLtembIvlfYvFki47jLdiAfBjxcVFsiNoVuIHXwMRSaGDql6qqOpeS1bWIwOTksJkB/I2LAB+rKFe/nP+WtXX1cmOQES+LVRRlPvawsL2ZGdnnyk7jDdhAfBjLpfvL5zlD18DEXmFDLhc/8w2m7/KysrqKTuMN+A6AEREhPAQPWKjTIiJNCEyzIDwED0AwGjQITRIhw6HCmv7b4sSWdudaG51oL7FgYamDtQ32+FDuwmfrleUsZasrJlFJSVvAfCd5IKxABARBYge8UHI7RmOXhnhSE8OQXpiMFITg5GaEAKjQen2XJdLRWVdB8qqrDhYZcPBSiuKDrVh7/4W7C9vg9PldefYCEVR3sg2m8/WGQzX7Nu3r0x2IBlYAIiINGot3wd42Q59UeFGDOkViSG9ozCsTzR69wxDVLjRLcfS6RT0iA9Cj/ggHNf3z/+tvcOFfQdbsS2/EVvyG7H51wZU1LS7JUc3THY5HDtzzOZrCoqLP5UdxtNYAIiINKjc+DmKPpoDVfKa/Qa9gmG9ozBmaBzGDIlDr4ww6HTdf1cvSpBJhwGWCAywRODSU9MAAGXVNqzZVotVW+qwbkcdWqxSf+9iVOCTbLP5Zeh0MwsLC72mnbgbCwARUTc47e1Yu+Bh7PthibQMQSYdxg6Jw+SRiRg3LP736/beLjUhGBdMSMUFE1LhcKrYuLsB36ytxLc/V6O+WdrKpTfB6cyzWCxTiwJk60UWACKiLmqq3I8Vc2egtnSPx4+tKMAJ/WNw7kk9cPLwBJ856R+JQa8gb2AM8gbG4MHrcrFuex0+/+kwlm+oRnuHhy+rKMoQRVU3ZmdlTSssKVnu2YN7HgsAHdGcGUNgMnXzSVG7HbB3YPWWWizfUC02GJFEZbvX47sXbkJ7a5NHjxsXZcK5J/XA+eN7ILNHqEeP7Sl6nYLRQ+IwekgcGpvt+HzlYSxZXobCQ22ejBEDRfmXJSvrrqKSkuc8eWBPYwGgIzp3cibCQrr5LWKzAtY2NDTZWQDIb+xb/TlWvXEPXA7PfUydnRaKK87IwFnjkmEyBs7SLVERRlx+ejqmn5aONdtq8dYXB7Fuh8cWBtMrivKsxWzuHx0Tc+3mzZt9b0e1TmABICI6BlVVseWzedjy6TyoHnrgfUivSNw4NQtjh8RBkXgvX4fdBWu7EyaDDiHBnr/coCj4/VOBvaUteO3TUnyzvhouDzxaqACXN9bXp+Tm5p8mf54AACAASURBVJ6Xn5/f7PYDehgLABHRUbgcdqx6817sW/WZR47XzxyBWy80Y9ywOLcdo8PuQsHBVhw4bEVZtQ2HKm0or7GhvtmOhiY76pvtaGw58pve0GA9YiKMiIk0IibShMQYE9ISQ5CWGIyMHiHISQ9DRKj400vvzHDMndkfN+xvwUuLS7BiY7UnFiCa6OzoWNmnZ8/Tft2/v8LtR/MgFgAioiNw2juwYu7NOLDF/TtrpiaG4K7LLJh0YqLQd/xOl4o9JS3Y8msDthU0YW9JM0rKrZoW52mzOdFmc6Ks2nbEX5OaGILcnmEYYInEsD5RGJwTKewThNye4Xj5rgHYWdSMx98pwC+/NgiZe0SKMsSu16/Oyso6uaSkZL97D+Y5LABERH/B0WHDiudvxMHtq9x6nNBgPa4/pyeunJKBoO7edPtfig+1YuXWOqzaWovNexthtXn+OfuyKivKqqz4YVMNgN9u8OtnicDowbEYOyweA7MjoNe4TsEASwQWPToUS9dW4un3C929wJBFryirzGbz+OLi4gJ3HshTWACIiP6Lo92Kb5+7AWU717j1OBOGx+OBa3ORFBukedbOomb8a00llv1cjUOVVgHpxHK6VOwoaMKOgia8/HEpoiKMOPm4eJw2Kgl5A2Ng0HevDCgKcPqoJJx8fDzmLSnBO18edOfSwxkKsDI7O3t8YWGh558BFYwFgIjoDxy2Nix75lqU7/nZbcdIiDHh/qt6YVJeoqY5lXXt+OT7Cnz2YwUOHPa+k/7RNDbb8dmPv2WPDjfgtFHJuGBCD/TJiujWvJAgPe68LBunj07G3fP3YE9Ji+DEv1GAHnC5vjebzWN8/ZMAFgAion9z2jvw7bPXufXkf/qoJDx4ba9ur8uvqsCabbVY+G05fvqlxhs32umyhhYHFi47hIXLDmFgdiSmTUzBmWO799hj36xwfPbM8Xj9s/14aXGJu35/knXA91lZWaN9+Z4AFgAiIgCqy4WfXp2Fst3r3TI/PESP+6/Jxdnjkrv1+g67C1+trsS7Xx1E/n73vLv1BjsKm7CjsAnPLyrGpaem4aJT0hAd0bVTlV6n4MbzMjFyYAxmzt2D/e75dCRdryjf9+nZc7SvPh0QOKtKEBEdxfoPHkfR+qVumT0wOxJfPT+8Wyd/h1PF4uXlGH/Tesye/6tfn/z/qKahAy8sKsbY69biuYVFaOzGHgGDekXhi+eG48yx3StdnWCx63RLc3Nzu3fdQjIWACIKeNu/egO7li1wy+zzx6dg0aNDkZYU0qXXqSrwxcrDmHDzz5jz2l5v2kLXo9psTrz26X787Yb1mP+P0i4/0RAWosezt/TF/Vf36vaNhkelKEOcDsfHw4YNc89ey27ESwBEFNAObP0RjeVFwueajDrcf3UOLpiQ2uXXbstvxCPvFGBHgWf3G/BmzW0OvLi4GEtWlGHWpRacMTq5S+slXHpqGvqaIzDjmV2orhdcplT1lMb6+tcAXCV2sHuxAJDfczqd2PDzeqxdvRoVZWWoq/fYeuJHpCgKYmLjkJGRgdFjx2HosGFQZK73GsAaysTv/BoVYcQrd/bH8H4xXcvS7MAT7+7D5ysPe2KFO590uLYdM+fuwcJvyvDojb2Rkx7W6dcO6x2FT586Dtc8tt0dl1KuzDabdxUWF78gerC7sACQX9u2ZTOefuIJFBeLf4cnwjoAixctRL8BAzD77nuRk5srOxJplJ4UjLfuHQRzWudPTADw9ZpKPPp2AWobO9yUzL9syW/EmTM34vpzM3HDuZkwGjpXoHvEB2Hx48Nw89M7sXa78DcDT5vN5h3FxcXfix7sDrwHgP6vvfuOj6rK4gD+e2/6JJNJ75BOQg2996YoimBDRUUFu2JviIgK6rqioq4NsZcVxYagFKX3jgES0gkhvSfT5+0fyMqyZN5k7nszmXC+/+xnzbx7bzLDvPNuOafDWv3LStx7153t9uZ/tqzDhzH7tluwbau8iWeIvLolBWL5S/3bdPOvbbThnpcP48HFWXTzbyObXcCb/y7AFY/swrFC95/oA3UKLH06E1d4eCLDBSUvCP9OT0hIkrphOVAAQDqkA/v2YuFzC2C32309FLeZTSbMffwxvwhYyP/rnW7EZ8/1RZhR7fY1Ww7U4NIHdlHJbEY5xc246ok9+HjlCbeXTpQKDi/f2xXXXdT2PRoucVyYQ6H4pnv37u5/EHyEAgDS4TgcDvzjxRf96uZ/hslkwuJ/vOzrYZA2GtQ9GJ/M742gAPdWVR1OAYu/zMetzx+QfkPaBcpidWLhsuO4fdFBl5UMz8bzHBbcno7bpnSWejj9LSZTu/+HTAEA6XB27tzh10/Re3bvxvHsbF8Pg7ipf7dgfPB0JvRuVrqra7Rj1gsH8c63hX6z0c+g48D7yd1iw95qTHtsj9tLAhwHPHFzKm69XPIgYE5qUtJlUjcqJdoESDqcbZs3+3oIzLZs2UwbAv1Ar7QgfDA3EzqNezf/3JIWzF54sN0U6wkL4pESq0RStAJJ0QqkxCoRbuRh0HHQaznoNRwCtH9vrjNbBZisQJNJQFOLA3UtQOEpO/JO2ZF/yomCMjtKqx1wOn34SwEoLjPhmif34p9zumHi4Ai3rnni5lSYLA589dtJqYbBAfgoMTGxR2FhYZlUjUqJAgDS4ZSWlPh6CMxKTpzw9RCIiIzEQCybl4lAnXs3/+2Ha3HvPw6jodl3S1NpcQoM6arGoG5qDExXIziwbUdPtWoOWjUQEsjhzATykK7/m//GbBVwIM+OHUct2HHEhoP5Nti9X40YJosD9/3zTzx+U4pbT/ccBzw7uwtMFgd+2CDR/ZrjwpQ8/x6AKdI0KC0KAEiHU9/o/8lTGhr8/3foyKLDNFj6dKbbBX1+2lSGJ946Cpvdu3P+aiWH0b3VmDRAg8Fd1Qg3yj+Pr1VzGNxVhcFdVcA0oMUiYHe2Db/vt+CXXRbUN3lvesDpFPDix7k4WWHG3FvTwPOuAx6e5/DiPV1RUWPFtkMSHREUhMtTUlJuysvL+1SaBqVDAQAhhLRBgE6BD+ZmIipU49brv15bivnvZcPpxap9vVNVuGKoFpMHaWAM9O3ivV7DYVQvNUb1UmPuDYHYcMCK77eYsPGwFTYvTYZ8uqoETS12LLq3KxQiQYBSweGtx3pg+lN7kVPcLEn/nCC8kd6p07rsEydKJWlQIhQAEEKImxQ8hyWP9ERGYqBbr/945Qks+ui4Vzb7aVQcrh6lxU0T9EiKdm9ZwtvUSg4T+2swsb8GtU0Cvt1kwrJfW1BVL/+swIoNZTBZnVj8YHfRmgAGvRIfPJ2Jqx7fg8paSXIzBDvU6tcBXCNFY1Lxk32dhBDiew/PSMHIPqFuvfazVSVYuEz+m79ew+GmCTqsfyUM8280tNub/7lCAjnMvkSPjYvD8I/bg9A5Uv5xr95WgTmv/gmHG7MxseFavPVYT7czDIoShKvTkpMvlaYxaVAAQAghbpg4OAKz3DwvvnxdKZ7/MEfW8eg0HO6ZosfGxeGYN8OAqBD//DpXKzlMHabFry+GYdGtBsSEyvt7rNlRiafeOurWkkzfdCMeuylVsr4F4I3ExEStZA0yoiUAQggRkRSnxz/u6+ZW9blft1Vg3rvZsj75j++jxtMzDIgLl++puajcgV93W3Ao34aaRicMeh4psQqM76tBvzTpK9+qlMDVo3S4dLAWb37fjI/XtMh2emDFhjIEBigx77Yuoq+dObkTDuY0YOWWcim6TlEpFI8CeF6KxlhRAEAIIS6olBxee7A7Atw47rc/pwGPLjnq1hSzJ+IjFHhmRiDG9HZvA6InmkwCFn7ZhO+3mP/v9/jjALB0VQsGZqjxwsxAJMVIfwvRazg8Pj0Q00boMP+TRuzOlqc+wqe/lKBTlA4zJ3cSfe1zd6Zjf04DTlaw528QBOHRxMTED9pDbgD/nDMihBAvefD6FHRPNoi+rrjMhDsXHYTZKv1jK8cBt03SY/WiUFlv/pV1Tlz9XA2+3WRyGcTsOmbFVc/VyXZzBk7nLPjiyWC8NCsIeo08pbJf/DgXa3dVib7OoFfi1Qe6iZ4gcJNBxXELpGiIFc0AEHKOl7r1QZcA8S/88xEsFqCuAXtMjXix0v8TEl3oBvcIxm2Xiz8htpgduPPFQ6hpcC8HfVsEB3J45XYjRmfKW1vGZgfufKMeuaXuBTANLU7cvaQePywIlW0pguOAK0do0TdVifvfbsCxE9KeG3Q6BTzyeha+fbk/0jq5ruDYL8OIO69MwNvLC5n7FTjuttTU1CW5ublZzI0xoACAkHOk6ALQw2D06FpBaQZMdlTYqKyrv9NpFFh4d1fR5DGCADz59jEcPyHNmfGz9UpW4Y27gxAfIf8O+a/+MOFQftsCmLomAS9+1YS37vPs34u7kmKU+HZ+CP7x7yZ8ulbaNMotZgfufukwVrzSHwa961vifdcm4fc91Tha0MjarQJO57MArmZtiAUtARBCyHnMmZ6EztE60dct+6kYq7ZKskHsf8y6RI9v5oV45eYPAB/91uLRdWv2WnCySv5cvxoVh3kzDFh8ZxA0KmmXBApPteDxJUdEN24qeA7P39FFqqWAaUlJSb2kaMhTFAAQQsg5eqUGYeZl4lP/f+Y14tUvpK08yfPAvBkGPH5tIBRe+obOLXWgpNKzm7ggABsOem/G67IhWnz8aDCC9NL+cdbuqsKXv4kv22V2MWLGJfFSdMkrOO4ZKRryeAC+7JwQQtobnufw7B3pok95JosDD79xRNL8/iol8OodQbhpgvjMg5SKy9nW1ovKvVvtp3+6Cl88FYzIEGlnR176OA+5JeIzIQ9el4yIEEn2ZExLSUnpIUVDnqAAgBBCzjJ1dDR6pohvAn35kzzkl0i37q/XcHj/gWBMHuz9PDH1LWxBTH2z9+v/ZnRS4pungyXNfGi2OvDQa1mwO1z/PQJ0Cjx8Q4oUXXIQhIelaMgTFAAQQshf3P1i33OkDl+tkaxuPHQaDh8+EozhPeXd6d8ab9QqkENcuAJfzQ1BYpR0QcDRgkYs/aFY9HVTR0ejhxuBohgOuK5rQkIMc0MeoACAEEL+cvvUBNGpXYvViafeOSZZdT8FD7xxdxD6d5E+u56Y+iYnvt9qxvKNbDvrNx+2YvG3zfiz0Evl/c4SFsTjo0eDEREs3e3sreUFKCh1vRTA8xyempkmRXcau1J5jxQNtRUFAIQQAiA0SOVWVrh3VxSi4KRnO+bPxXHAotuCZE3ucz57cmx48J0GDJ1Tjcfeb8CeHLb8BZX1TrzzczOmzq/BhMeq8ek6E5rN3ptWiI9QYNnDwTDopDkdYLE6Mf+9bNHXDegejOG93SsO5YogCHekpqZ690MACgAIIQTA6ad/vdb1VPLJSjOW/nBCsj4fuzYQ04Z7b81/d7YV1y+qw3ULa7FyhxlWCTcwnlFY7sDznzVixANV+NdPLTBbvRMIZHRW4t0HjJIdEdx+uBZrdlSKvu6B6UlSdBfOOZ3TpGioLSgAIIT4tbr6OuY2IkI0uGFSnOjrXvk0V7JUv1eP0mHWJL0kbYmprHfiwXcacP0iedP3nq3RJOC175pw8ZM1+G2PxSt9DsxQ4/lb2Nflz3jpk+OwWF1vcMzsYsSY/uHMfQnAbOZG2ogCAEKI3xIEAevXrmVu5+ZL46FVu37635/TgFXbKpj7AoAu8UrMuyFQkrbErN9nweS5NVi5w+yV/s51ssqBe9+sxxNLG2CyyD8bMHWYFleOkGZW5US5GZ+tFs8NcMe0BCm6G52cnCzJpgJ3UQBACPFbB/btRelJtt34eq0C0yfGir7u9S/zJNktr9NwWHJPEHQyFbg5QxCAJd83464l9ahp9P4xvXN9t9mMqc/WotALOQPm32hAWpw0JwPeX1GEZpPrMffLMKJPlyDWrjhOEG5ibaQtKAAghPitVb/8wtzGVeNiYAx0vQN/Z1Ydth2qZe4LABbcbEBKrLxlWJxO4MkPG/DmD83t6ohfXqkd1y+slbyoz7l0Gg5L7g2WJMiqbbTh45Xi+z5mXcE+C8Bx3HTmRtqAAgBCiF+yWiz4fR3b9D/Pc7j5UvGd/0u+LmDq54zLhmgxdZi8m/4E4fTN/7vNvpnyF1NZ78SMF+twuEDeICA1VoGnrpNmmWXZT8VoEpkFGDcwHPFRzBkcU5OTkwewNuIuCgAIIX5p966daG5my8Q3uEeIaMGfQ7kN2JXF/vQfpOcluyG58vZPzVixpX3e/M+ob3bijtfqcKpG3qWJa0bp0DuVPb9CQ7Md36x1vdSk4DlcPY49nw8PXMfciPt9EUKI/9m4YQNzG+6s/X/0kzTH/h68Uo9wo7xfuRsPWbHke+nLEsuhst6JO16vR4uMGwN5/vSSixTV+z5ZWSKaIvjKsTHMfQnAVKYG2oACAEKI33E4HNi0cQNTG2FGNcYPjHD5mtIqM1ZLsPO/R6IS142Vt8BPbZOAJ5Y2tKs1fzFHi2x44YsmWfvo1lmJG8axL7uUVpnxq8hnISpUg1H9wpj64YDE5OTknkyNuIkCAEKI3zl88ADqatmm5S8ZFgmV0vXT2vJ1pXAwpvyV8inUlcXLG1FV7/vd/m317SYTtmXJm5vggSsDESHB7MtXa0pFXzNlZBRzPzwwmbkR9/ohhBD/snPHDuY2LhkW6fLnDqeAb9efYu7nov5a9EqWN89/Tokd32xq3+v+rREEYO5HjbLmCDDoONx5eQBzO7uP1IrWCBjTPxw6kYySbqAAgBBCzmfXrp1M10eHadA33ejyNZv2VaOsmi2DHccBd02Wd+ofAN77pQVO/3v4/6+SSge++J2tIJGYa0ZqmWcBBOH0rJArOo0CYxmXAQAMSk5Odv0BlQAFAIQQv9LY2IhjR44wtXHRkEjwIlPyP20qZ+oDAEZnatA1Qd6n/+oGJ1bt9M+n/7N9uLpF1lkArZrDrRKkXv55c7loJchLhjEvAygUwAjWRsTIm42CEEIktnfPbjgcbNnkxvZ3/YRmsjjw+54qpj4A4K7L5M/1/8tOC+wSJ9dLjFJgTG8NuiYoER/OQ6fh4XAIqGl0oqDMgd3HrNh+1CZpxb+qeif+vcGEmRfJ9ze7fqwO765sQX2T59MlZdUW7MuuR/+uwa2+ZlhmKFRKDjaGYksCx40GsNLjBtxAAQAhxK8cOnCA6XqdVuHyyxsANuytRouZ7a46uKsKfSQ4gy5m3V5pnv45Dpg8WIvZk3QuZy3GALj1Yj2aTAJWbDHjvV9aUFErTQSyfJNZ1gBAr+Fw8wQd81HJ1VsrXH6GAnSnP2PbDzNsVBWE0Z5f7B5aAiCE+JWsw4eZrh/SMwRqleuvvrU7xcvAirl2jPxP/yaLgL3H2TPqRRh5fP5EMBbfGeT2kkWgjsNNE3RY9UIILhkkTXbDnBI7ymvlTw7EeiJjjRufj5F9mfcB9O4VFcW+c9EFCgAIIX7Dbrfj2LFjTG0Mywx1+XOHU8CWAzVMfRh0HMb3UTO14Y7jJ+2wMkwzA0C4kcfyZ0IwMMOz8RoDebxxdxBuGi/NZseSKnmLBUWF8BjcjW1mpqzaguwi1/kLhot8ztygaAoI6MPaiCsUABBC/EZebi4sFrYpb7Hp/z9zG1DbaGPq4+KBWmjV8p77B04/MbN6eXYQ4sLZK+fNvcGASwdpmNsRvHCa4Yqh7DMWm0WCxC6dAxAUwLbKzgP9mRoQb58QQvzDUcbd/wE6BdITXM+qbj7Anvd/6jD2G6E7ymvZnv4zOikxsqc0MxU8D7xwSxCiQthuKzFh8t+WJvbXQM9YKXDz/mqXP+d5Dn1Ejpq6gQIAQggBgPy8XKbre3cxiq7/7jlax9RHXLgC/bvIP/0PADUNbNPlI3tJO85AHYd7GBLuJEQpJJmNEKPXcJjYny1I25/TIFoboG8GcwDQm7UBVygAIIT4jYL8PKbrM9OCXP7c4RRwIKeeqY8xvdXg5J/9BwDYGafLw4KkvwVcOVLr8U382tHyJ006Y0wmW/BjMjtwpKDR5Wt6d2EOANJGjx4t22k9CgAIIX4jPy+f6fqMRNfleLOLmtEsUvddzJCu3nn6BwCFwkuRRhuolRwev7btswCJUQrMGOe9AGBwN/ZAbd8x18Gi2HKTG9TFxcXJrI20hgIAQohfqK+vR3U1W3KejATXAcDhXLanf56Hx7vpPRESyHYH25vDttmxNZMGanH7pe4fgwwO5PCvOcHQMa7Lt0WogUd6PNvD9eFc1zMAYUY1IoLZPg88z3dlasBV23I1TAghUio9eZLpep1Ggc4xrp8ws4vYEsRkxCsRzHhTbotoxg136/dbcShfniDg0WsCMe9Gg+hNvXuCEt8+E4q0OPnX/s81uBvbzTmnWLyUcbrIrJMYThC6MDXgAgUAhBC/UF7GVpkvMVYvugHwmMjZbjGsN5S2iotgu2k6nALufKMeR4vkCQJuGq/DupdDcddlAUiPV0L9V/llYyCPcX01eO2uIKx4NhQJUd6/+QPAkK5s+QDySppF0/2mxDMuAzidndgaaB2lAiaE+IWysjKm6ztFip/9Ps4YAPRO8e5XamayCkoFmGoBVNY5cfXzdbh/agBuHK+TfBo+MkSBh64KwENXnb4R2uyAqp3ceXozpmq22QUUnmpBWqfWb/LufO5cEThOtgCAZgAIIX6hnDEAiBP5Im5ssaOuiS2xTnKsd+9sAVoOPZPY6w1YbAJe+aYJox+uxpLvm5FbKl82vvZy8wdO7wNgXbI5Uea6jHE8YwAAgGYACCEXtqrKCqbr46Ncr/+frGDLMMjzp3eye9uQbirsz5VmCr+m0Yk3f2jGmz80IzlWidG91OiVrEJmshLxjMsN7VVytBL7GP5+JSKfm7hI5pMN8awNtIYCAEKIX6irZ9uhHx3mOvFLSSVbABAbpoBG5f1jeZcP0eJfP7VI3m5+qR35pX/PiIQEcshMUaFXsgo9k1TITFExn0JoD5JiFIwBgOsZgBiRz50bQgFwAKSrvfwXCgAIIX6hgTEACDW4niqvqLYwtZ8c7Zsn5JRYJYZ0VWH7UXk28p1R2yRgw0ErNhy0/ve/dY5UoFeyCsN7qDGqlxrhRv9bVU6OYbsNltdYXf7cEKCEggccnidtUqWnpwdmZ2e7PnPoAQoACCF+oaGhgen64CDXO/RZCwAl+igAAIB7rgjE9qPsNQzaqrjCgeIKB1buMIPnT29KvHyIBpMH67x6HJIF6/tW1+g6AOB5DsZAJWoaPN9fYrVaQwFIHgD4X7hGCLkgsc4AhBhcP++wBgDBgb77Oh2UocLEft4pQNQapxPYn2vDgs+aMHROJR56t0G2HANSCg5gC1RqGsR/x5Agto2aSkEIYWqgFRQAEEL8gsXCNkVv0LsOAOoYA4AArW+feJ+eYUCQvn18pdvswM/bzbhyQS1ufKlWsk2KcgjQsf3N3PnciH32xDgVCuacwufTPj4thBDigiAIsNs9n0LlOECldP11Z7ayVdbxdQAQE8rjpdkGrxUicteOozZc83wt7nurHhW18h0v9BTr+2a2iP9OahXzrVaWDFMUABBC2j2Wmz8AKBWc6I3Rxlhaz9cBAABM6KvBnKlsqWfl8utuCy5+sgbfbWY7bSE11vfNKpIJEGAPADiHgwIAQsiFiTUAEHv6ByCa0lVMewgAAOCeKXrcNsn9Qjze1GgS8MTSBjz2fgPMVslPtXkkkPF9cydwVCkZPxscRwEAIeTC5HCwTR2L1QA43QfbDICa9UteQk9MD8QjVwe2u+WAM77fasbMf9Shvontby4FNWPuBnc+Nko3Pn+uCDwvyxETCgAIIe2eRsO2w93uEH/adGeWwJVmS/t4oj3jjsl6vHWfEUYfnk5wZe9xG2a8XIeGFt8GAS2M75s7T/ess0uCILg+a+ih9vnJIISQs6hUKigUnj8EWW1uTNMq2J7Sms3tKwAAgIn9NFj5QiiG9/RulUJ3HSu2447X6mGx+e5v12Ri61vtRuDozudPBNsRmFZQAEAI8QsqlednqR1OAU6n6y96FeNGrZZ2GAAAQHQIj48eCcZ7DxjRObL95fPfk2PDi1+xVWFkwRq4ubPBjwIAQghhoNWyVVWziBzzC2Q8q90eZwDONraPBr++GIaXZwchNbZ9BQJfrDdh3X5ZZrlFNZsYT3/oxP+WFsYAQElLAISQCxnrPoDaJtcJW4IDO3YAAJwuxTttuBarFoVh2SNGXD5UC52mfewUfP6zRph8sI+C9X0LEUkxDQC1jGWmnQpFM1MDraBaAGc5diQLb7/5xn//v14fAKXi7z+RRqeFWvX3m63WqKFR//2lpFKroNP+XfpRoVRCr//7OA7HcTAYDP/TZ2BgIMBxUKtU0OqYy0YS0mFpGGcA6hrtiA1v/eehRrZ18rKa9pfkpjUcB4zoqcGInho0mwX8ccCCzYet2PynFZV1vtmUV1rtwMdrWnDXZbIkvWtVWS3b7xviRuBY50a6YFfsdns1UwOtoADgLMePH8fx48d91n9gYCBiYmIwYPAQjB47Fr16ZfpsLIS0N4HnBM9tVdvgehY1lDFfe0GZ/wQAZwvQcpg8WIvJg7UQBCDnpB0H82z4s9COrEI7jhXb3Up2I4WPfzNh5kS9V2clWN83sc+NzS6gycTUhxAQEFDD0kBrKABoR5qamv4bhHz52afo068/7pvzALp17+7roRHic5ERkTjCcH11vesAIDqMbYYh308DgLNxHJAer0R6vBLXjDr93+wOILvEjsP5NhwqsONQng3ZJWxT2q2paXRi9W4Lpg1ney/aIv8U2+8SE+F6rDUigacbGrOysmTZA0ABQDu2f+8ezL7lZtw75wFcd8MMr/ff0GiF3dP0qBYbYLLBYvO/L8Vmhx31Ns+m7AS7DXDY0SL4PsFJWzlMVtgaPFtqtDus4BvN4Jvl28gVERnJdP3JCtcpaDtFsS3BBajUyAAAIABJREFU1Tc5UdPoRKjBN1urymqdWL/PgtxSOyy201Xu+ndRYWh3NbRqz5+olQqge4IS3ROUmD7m9H87WeXAun1WrNlrwe5sKwQJJwh+3Gr2bgBQyhYAiH1uSkQ+d6IEoYqtgdZRANDOORwOvLH4VVRWVuL+Bx70at8jr/3Fq/21FzMP7PD1EHziyKLPcGTRZx5fnyzhWM6HOQCodH2SKiZcAwXPwSFyXNCV/FMOrwcA5bVOLPqqCb/uNsN5Ttz5wSog3Mjjnsv1uGGcXrLMgHHhCtw8UYebJ+qQXWLH+7+04JcdZrey4onZecyKJpOAQJ38ywAOp4DiCrZBx4sEACcrTEztg+NOsTXQOjoF4Ce+/OxT/Pj9Cl8PgxCfCY+IYLr+RLnrL2KlgkNcJNuT53GZpsZb82ehHVOeqcGqnf9/8z+jqt6JBZ814d4362GXYUIuPV6JV+8IwvJnQpEUw/5M6XACu7O9cySwqMzBvL8hMUbmGQCgkLWB1lAA4EcWv/IKKioqfD0MQnwiIoJtBqBYJAAAgIwEtkp6u4557yx7ea0Tt75Si+oG955g1+y14OmPGmQbT88kJX5YEII+qWybKQHgYD7brnl37cpm68doUCEq1PXx1KJTbDMAgiAUMDXgAgUAfsRiMeODd9/x9TAI8Yko5j0AJjSL7MZOT2QLAHYes0m6Hu7Kc581orapbZ19t9mMrX/KF6ToNRzefzAYIYFs0/fHT3pn79D2o2wBQEZn8SOLx4vZshxyHEcBgDt4rkP9Ouf16+pVaG6WJScEIe1abHw8UzpgQQByTrj+t8M6A1BZ70Ruqfw3r/xSO9bu8yw77AerWyQezf8KDuRwy8Vs5YiLK+T/GwoCsOMIWzAkFjA6nAKOi3zmxAgUALjn7CQ8HZXNasW2rVt9PQxCvE6pVCIxMZGpjexC109jvbsEMbUPANuPyr8M8MdBz3fe7zhiQzlj8hsxI3uxZW30Rpng7BI7ahrZ+unTxejy58WnTDCLpKAWo7bbjzE14EKHCgDCQsMviFmAwwcP+HoIhPhEcmoa0/VHChpd/jwyVCO6q1vMDnmObP+P7BOebzZ0OAX8uI15Y5pL0SGMpZXlHR4AYDvj0z8A9O3qOgDIEvm8uaHyaFERnQJwh1qlRlxMvK+HIbuKinJfD4EQn0hJTWW6fn92vehr+mW4/lIXs/lPKxoZS8yKaWbMmb98owk2GQ8ssJ42UPDyb6RYtYutwF5suBax4a5Pjew/Jv55c4UDDjE1IKJDBQAA0Ltb7w4/C1Bb7V5WyIAAtvXM9iAgsO2/Q0CAd3OJy8GT3+HsuhP+Suz3TmUMAHKKm9HY4vrON6h7MFMfZquAX3fJ+wgbFcJWza+w3IG3fpRvLxHraQiWxEXuKCx34EAu2wbAQT3EPyd7j9Ux9SEAh5kaENHh7pShwWHonznA18OQlaO1A7/niI6Olnkk8ouJiWnzNdHRbb+mvfHo9/bgmvYmJjbW5c9ZlwCcTgH7s10fhRvZN4w5Yc73W2Up3/5f3Tqzl/N9b2WzxxsJXalrEvDad2w732NC5S1X/MNWxuQ8OP05caXZ5MCxQrYgi+O4g0wNiOhwAQAAdE3thh7pPX09DNk4ne7Nrw0aMkTmkchLoVBgwMBBbb5u4KDBMozGuwZ78N75+/sNAIMHD3X586ioKASHhDD1sSur1nUfoRqkM54G2JNjRUmlfDvZx/bRQMH47e1wAve9WY+vN0g3W5FXasf1i2pwopJt41vnKPkCAEEAftzGFvgoeA7DM10HAHuO1jFllQQA3uncztSAWPtyNu5LfXv2Q5fkdF8PQxZON2cALr18CtRqtt24vjR23DiPvuxHjBqJSMYz476UlpaGnpm923xdSkoqMvv0lWFE3mE0GjFu4kSXr+E4Dn379WPqZ9N+8SW0USJPd2KkuMm4EmrgMTCdPeGOwwnM+6gBt/yzjiknfkmlAws+a8QV82slOcPfM5n9d2uNFMFZZloQgg2usx5u2s9cwbcyu6Agh7URVzpsLQAOHAb3GQKHw4G8olzJ2w8LC0O37j3hcPz9j8ZiNsNm//v/Wy0W2M4qKmO1WmG1WmGz2VBT4/mHw90AICYmBjfNnIml77/ncV++YjAYcNe993t0rUajxX0PPox5Tz4u8ajkp1Ao8NCjj4HnPYvNH3z4Ecy+dSZsVu9lpJPKXffeD4MbJX/79uuP39et87ifY4WNqKy1ICKk9eB40tBIvLeiyOM+AOCL31sw6xIdNCp51rMvHqhlTmRzxpbDVlz8VA2Gdldj2jAthnZXI9zo+jNYWO7AtiwrNh+y4I+DVknqAJwxIE2+W9NHv7JP/08aJv6AsWkfYwAgCNsAyLobssMGAMDpp4Vh/YfDbrej6GShpG3X1NSge/cemDDx4jZfW1iQj4cf8uzmBgDONhwAvnX27SgoyMf6tWs97s/bNBotnl/0EmLj4jxuY8LEiSjIy8WypR9IODJ5cRyHhx59DH369fe4jYyuXTF33jN4/tn5cDj8pxLj1ddOxxXTprn12j6MMwCCcHoW4Mqxre+Z6J5sQEK0DkVlnt8sKuuc+HaTGTeMkyc/yRXDtHj9u6Y2ZwNsjSAAW/+0YuufVnAc0DlSgYRIBaJDFVCrTk8Xn6pxoqLeidIqByrr5Tmr3zlSgYzO8swA5JTYsW4/28wMz3OYNNR1AFBcZkIhYwpgjudlT/jSYZcAzuA4DiMHjUJctOc3k/MRBAHvv/cvbN60oe1j8vDp7r/asK7E8zyeX/QSZt1+h18sByQmJePdpR9i8FDXa8HuuP2uuzH3mfkICmJP7iK3sPAIvPzqYlx59TXMbV18yaV4bclbfrEJVK/X46HHHsfDj7k/W5OcnMK8D2DtLvEKq5cMj2LqAwA+WNUiSwEe4HTa3dsmyXPiRRCAonIHNh224puNJny+zoRP15mwdp8FB/Nsst38AWDKUK1kVQvP9c7PLcypmvtmGEXz/6/dWcnWCQCHIGxgbkREh54BOIPneYweMhbrtqxFeWWZZO06nU4seWMxNFodBrZhs5qn07tn99sWPM9j1h134tLLp+CXn37Eju3bcerUKdis8u5UdleQ0YjUtDSMHTce4yZMhEIh3Qagy6ZcgVGjx2DlTz9i29YtKC4qgtnshSwjbggICEBCUhJGjByFSydfBq1OuifFgYMH45sVP2D1ql+wccMGFBbko6mROSmJJNQaLeI7dcLQYcNw2eVTEBIa2qbrz+wDYFkG2Ly/Go0tdhj0rX8FTh0djXe/K2S6YZyscuCn7fLVt58xXoelq5tRJ9EsgK/pNByuHyvPjElBmQOrGc/+A8CVY8RP26zayly0rTI/P38vayNiLogAAACUCiXGDRuPNZt+Q1UNe3R2htPpxOJ/voQnn5qHzN7ubcDiwBbetmUJ4GwxMTGYdcedmHXHnUz9+5sgoxHX33gTrr/xJl8PxavUGg2mTJ2GKVPdm1r3J/36D2AKAKw2J9buqsK00a3PkiTF6jGwWzB2ZrGd5X7352ZMGapl3rV/PgFaDo9fG4gnP2wfwR2r6aN1onsPPPXuz83Mu/IDdQpcKrL+f6LcjMN5zFUXfwMgez7kDr8EcDaVUoXxwycgJLhtTxxibDYbXn5pIY4eyXLr9TzPGgDInyebkPZsxKjR4BjniVdtEc+oee1E9qXDgjIHPlkjXwGeq0bqMLZP+1/eExMRzOO+qfIsaRzKt+EHCdIfTx4eBZ3W9QzlL1vKpagI+StzC264oAIAANCoNZg44iIEGdjSfZ7LYrFg4QsLkJt7XPS1rHsAhDYuARDS0URGRqJ7D7ZcH1sO1KCs2vWU8EWDI1yeFnDXku+bZS3As/AWA0IN/vt1znHAczODYNBJv/jvcAp45uNGsH5tchxwwyTXqeYFAVjxB3PqfgevVP7G2og7/PcTw0Cr0eKiURcjMED8yFFbmEwteO7Zp1FQkC/ySsYZAAoACMGYsWOZrnc4BXz3u+sva7WKx4xJ7LMAzWYBi75iy47nSriRx/sPGqHTyJtCVy63XazH+D5qWdr+cr0JWUXshQ+G9w5Dhkj5311H6lBQyjzbszEnJ0d8l6oELsgAAAD0Wj0mjrwIOp20+dObm5ux8Pn5OHWqtNXXKBiXAAQJ5pcI8Xejx45jbmP5ulI4RdaFb7goTnTa1x2rdpqx5bB8+RkyU1RYco8RSnmz6EpuYj8NHrlGnrolVfVOvL5CmuWXWVM6ib5m+brWv/fdxXHcN8yNuOmCDQAAwBBgwEUjLoJWI+0O3draWiyYPxeVleffCUpLAISwi4uPR1o6W7bPk5VmbBRJ2GI0qDB9gusaBe565pMGWSsFjs5U45U7jFD5yfbuMb01eP1uoywbJAHg2U8b0dDC/n3ZKzUIQ3u53jtW02DDb9uZN5jbOYXiO9ZG3HVBBwAAYAwKxoQRF0Gtknb6qbKyEgvmz0Vd7f+nHeUYqxX6U4IXQuQ0dtx45jaW/VQs+prbpyZIMgtwotKJucvk3bE/eZAGnz4W0u73BFw3Vod35sgXrHy+rgW/7ZHmqPOc65LF+1tdArOV8buZ49Z7a/ofoAAAABAaHIrxIyZCqZT2k3jq1CkseHYeGs85f81+CoDpckI6jEmXTmbOG7Hjzzr8mef6phwerMaNIhvA3LV6lxlfrGdPR+tK/3QVVjwbgozO7W8qQK/h8OJtBjx3s0G2J/+sIjte/Eqacsf9MowY2cf107/Z6sAXq0vYO3M6v2BvxH0UAPwlIjQCY4eOlzQJDQAUFxfh+QXz0NLy94eRZzy+REsAhJwWHR2NQUPYs0Z+6M4swBWdYTRIk6L2xa+acKSYfWOaK3HhCqyYH4oHpgXKVo+grYZ2V+PH50Nx1Uh5kv0AQKNJwP1v1cNql+ZJ6eEbUkRfs+L3MtQ0MNdlqDPbbN+yNtIWFACcJSYyBqMHjwHPOEV/rry8XCx6YQEsZzLQMbZPeQAI+dtUN2sIuLJ6awXyS1w/MRoNKtx/TRJzXwBgsZ2+ScmdwU+lBO6ZosfKhaEY0dN3uQJSYpVYck8QPnksGIkylvp1OoEnljaguEKaZdJJQyMxoHuwy9dYbU68/z1b4SgAAMd9XlJSIu/U0DkoADhHfEwnjBg4UvIg4OjRI3j55YWw2WzMSwA0A0DI34YOH8Fc/tnhFPDmN4Wir7v+4jikxEuTrKao3IHZr9XBZJF/TS8xSoFljxix4tlQXDJIy3wSyV390lR4/W4jVi0MxaSB8qRDPtvCLxqxRqJ1f61agcdvEn/6/2ZdKU5WsicZ4p3OpcyNtLVPb3foDxI7JWFo/2HMKXvPdfDAfrz6z5dEjx2J8TQVMCEdkUKhwOVXTGVuZ9W2CmQXuT6rr1RweGZWmmTFag7k2nD/2/WyFQw6V88kJd64Owjr/hGK+6cGoGuC9FX3EqMUuGPy6VmHr58OwaWDNGCtf+aOd35uxqfrpHuAvn1qZ8RFul6qMFsdeOc7CZ7+gZ05BQUHpWioLWSZiwkLCekK4FpPrzcGBSOpkzRTbZ4KDQ6FRq3ByTIJNnacpfTkSZSUnHCZJ0CMWq3GTTNvkXBUhPi3uE6dsPzrr5hyZAgCcKragstGuK4C2ClKh5IKM44WSpPYp7DcgdIqB8b31chWBe9cQQE8BmWocd0YHa4coUWLBUzJcpJjlXjoqkA8eV0g7p8agKHd1QgP8t7z5fKNJiz8UrpES6nxevzzge5QKFy/IR/9XII1OySoLSMID9fU1bmXS15CNAPgQkZqV/TtwVZ7/Hz27d3NdD1lAiTkf0VFRWHCRRczt/PHnipsOfD/R3fP9dTMVIQHS3d0+PutZrzweaMUOeTbLC5cgf7pbDMBmUlKTB+tRVK097MQrdppxryPpfvb8TyHF+7uCrXK9e2xqs6Kfy0vkKLLgtyCAq+d/T8bBQAiemb0Qq+umb4exv+gAICQ/3fzrbcyl9oGgIXLckSrxhkNKjx3ZwZzX2f7dJ0Jj77f4LXlgLOpGO/bYk/KcvlivQkPvtsAh4RfiTddEo9+GeK1YhZ/mY8mE/ubJXDcawB8ktyFAgA39OneF11Tu/l6GP9FqYAJ+X9JSckYOXo0czu5JS34fJX40t+EgeG4dgJ7nYCz/bjNjDtf987GwLOFGdkigMhg799KXl/RhGc/ZS/yc7aMxEA8eqP4xr/DeY2idSTcIgjVAU1Ny9gb8gwFAG4a0HsguiR18fUwAIB5EyEhHdVts25nLhMMAK9+mY+ScvENZXNvSUVSnLT1RDYesmLGS3WoafTeTF+3TgqmpDw9k6XfTNgah1PAvI8b8faP0pZY1qh5vHJ/N9Gpf4dTwLx3jknzPcxx/zxUXi5NxiIPUADgJg4cBvUd4vPNiQAgUB4AQs4rLT0dQyRIDGQyO7BgaY7o63RaBZY83AM6jbRr34fybbhqQQ0O5TMnl3GLMZDH0O6e5QkI0vMY1s07AUBlvRO3vlKPr/+Q/rj8s7PTRav9AcCyn04gK1+SdM4VGp3uLSka8hQFAG3AczyGDxyJTrGdfToO2gNASOtmzp4tySzAhr3VWLm5XPR1GYmBeOEutqJE53Oi0onpC2vxyRqTVzYHzpmq9+gUwp2X6b1Shnj7URumzKvBtiPSV1ScPjEWV42LEX1dUZkJS76WZOMfALyclZUlX41oN1AA0EY8x2PUoNGIiZSmOpgnaA8AIa3r1SsTY8ezFwkCgGeX5qC8RjyxzOUjo3HzZPFysW1lswMvfNGIe9+sl6SqnSuZKSrMmdq2srzDeqhx68XSLoGcy+EUsOT7ZtzyjzpU1kv/N+idbsS828SXdx1OAY++nsVe8AcAOK7UbLW+w94QGwoAPKBQKDB26FhEhrFlH/OU0+mkIIAQF+65bw7UavbUt/WNNjz6xhG31nufnJmKMf3Dmfs8nzV7Lbh8Xi1+3y9NlrvW3H25HvdPDXBrJmBsHw3evk++Ur4AkFNix4wX6/DmD82iJzM8ER+lwzuP9xRd9weAt5cXYn9OgzQdC8I8b6f9PR9KBOQhnlcgIT4RpypKYTJ7/328ddZsSY48EdIRGYKC0GJqxqEDB5jbKqkwI0CnRF+Ro2E8x2HcgHBs3l+Dylrpp6kbWwSs3GHBkWI7+qSqEKSX/t8/xwGDMtQY1kONk5UOlNY4/2/5ISlGiadvCMRDV8pXZKjFImDxd814YmkDSqrkmfkwBqrw2YLeiBfJ9gcAe4/V48m3jkq1FLM3Nz//HgA+f4qT5d1LS06eJgAeJzboHJeAMUPGSjkk2VisFvy6YRXqGuq82u+WnbslL19MSEfS3NyMq6dOQU11NXNbSgWHz5/v69b58MpaC66buw9FZfI9GOg0HO66TI9ZkwKgkvFroKreiT8L7aiqd8AYyCMlWoHkWHm/d1bvMmPRl00oq5VvyUOnUeDDpzNFC/0AQE2DDVc8sgunqiSZfREEjhuRl5e3VYrGWNEMACOlQomE2AQUnyqG1Sp91N+aW26bJXnpYkI6ErVajYCAQGzZvIm5LacAbNxXg8tHRiFA5/oGGKBTYtzACPy2owJNLfLkd7E7gO1HbPh+qxkqBZDeSQmlDMl49FoOidEKdEtQISVGiRCDPLOOggD8ccCCRz9oxMe/mdBklu/hWKXk8K8nemForxDR1zqcAu568ZBkaZ854N+5+fmvSdKYBGgGQCJNLU349Y9VaDZ550inwWCQZKczIR2Z0+lEU5N0G637dw3GZ8/1cetmW1Daghvm7ZNlOeBcEUYet03S47qxOui9sCNfKk4n8NseM/71cwuOFXtei8BdCp7Dkkd6YOLgCLde//InuVj6Y7FU3depHI5uR4uKJMggJA0KACRU31iP3zau9smeAEKId1w9PhaL7nYvDXDhqRbcPP8ASqvYy8W6IziQw9UjdZg6XIe0uPY7Q1hZ78TKHWZ8vcGM/FL5b/wAoFbxeOORHhg/wL2Nmis2lOGJN49IdgRTEITb8woKPpCmNWnQEoCEtBotYqPiUFhSAIfDJ6mdCSEyO5LfCJWCw4Bu4uvHwQYVLhoSgQ17qlHXJH9SH7MV2Hfchi/Wm7B6lxktFqBzlAIBWt/PClhsAjYdsuK1FS2Y91EDNh6yotZL2Q51GgXefaIXRvcLc+v1u7JqMefVLDgcEt39OW5jXn7+HGkakw4FABLTaXWIjohB4YkCSthDSAe1489aJMXq0SVB/Ny8Qa/EpKGR2JVViwovLAecUdMoYFuWFR//1oJdx6w4VeOEUsEhMlgB3kvxQF6pHat2mvHeLy2Y/0kjVmwxI/ekHd7MZh4apMKyeZkY2EN8zR84XQti5oIDaDFL9hBncgKX1tbWsu9GlRgtAcikoqoca7esgd3unektQoh3ndlMNrqve0+VJrMDD75+BOt3SVA/nkGAlsOAdBUGZqiRFqdEUrQC8RFstQAAoLzWifwyBwpO2bH3uA3bj1hRWefbh6CkOD2Wzs1E52jxo34AUFJuwvS5+9xK/uQuQRDuyyso8GnK39ZQACCj0rKT+H3bejictBxASEekVSvwwdOZGNxDfDkAOL2r/JXP8vChdBvLJKFSAgmRp4/4hQfxCNRxMOg46HU8AjQc9BrAYjt9Pr/JJKDRJKDF7ERtk4DCMjvyTznQLOPOfU8M7RWKJQ93h9HgXp2C8hoLrpu7FyfKpduvIQC/5OXnX4Z2cOb/fCgAkFlxaTE2bP+dMvcR0kHptQp8NL83+qaL5wg445etFXjq7aNSTjOTv3AccPvUBDx4fTIUbq51VNVZMeOZ/cgrkfQUV7nAcb3y8vIqpGxUSrQHQGZGgxGGQANOlLaviJ8QIg2bXcCqrRXokx6M+EitW9d06RyA8QMjsCurDjUN3qn4dyEwGlRY/GAP3DgpHrybx6RPVVlw4zP7kX9S0vLCToHjrsnLyzsoZaNSowDAC0KMoQjQB6Ck9ISvh0IIkYHNLuCXLeXokhCIlDj3iuOEGdW4alwsmkx2HMqVKMf8BWxwj2B8PL8PMtOC3L6mpNyEG+fLkrXx2bz8/A+lblRqFAB4SWhwGJRKJUrLS309FEKIDBxOAWt2VCA+UudWXXngdIrhUX3D0DM1CLuy6tBsoiWBttKqFXh4RgqeuyMdhgD30xRn5TfipmcPSJXi97/+Wve/C+103f9sFAB4UWRYJDhwKKss8/VQCCEycDqBtbsqIQAY2D3Erap6AJAYq8c1E+JgsjhwOK9RsuQzHV3/bsH44KleGDcwok2ZUbccqMHsFw6irlHa5RcBKFSp1ZdUVVVJup4gFwoAvCw6Ihp2ux2V1e12XwghhNGurDqUVpkxqm+42xvR1Coeo/qGYUjPEBwtaERlnfdyBvibiBA15s/ugqdv7YJQo7pN136+ugSPvHEEFpvkRxTrOZ4fn5OTUyR1w3KhAMAHYqJiYbaYUV1b5euhEEJkcrSgCRv3VWNEnzAEtWFqOjZCi2snxKJztB77s+vppMBZlAoOMy6Jx78e74XMtCC3Z1gAwGpzYv77OXh7eaEcMyw2ThCuyM3P3yF5yzKiAMAHOHCIi45Hs6kZNXU1vh4OIUQmFbVWrNxSjszUIMS5eUIAADiOQ9fEQEyfGAetWoEj+Y2wSv/E6jcUPIdpY2Lw9mM9MHlENNSqtmUtKq0y49bnDuD3PfI8dHHA7OMFBR4fffcVCgB8hOM4dIrtBAWvQEV1BeUJIKSDajE78MPGMih4Dn0zjG4fTwNOLwsM7B6M6RNjoVTwyC5qkmPqut1SKjhcPioaSx7pgavGxSIowL2kPmdbu6sKt79wUI6d/mcsyM3Pf12uxuVEiYDagaaWJmTnHUNxaTGamhrhFC6cf+CEXEgGdA/GP+d0Q2y4+7MBZ2s2ObB8fSk+/vkETlZ6p8KgLwToFLh2QhxmTu6EmHCNR22YLA4sWnYcX6+V7+SVIAhL8goK2l2RH3fJEgCkpKRcwQnC955e3ym2M8YOHSflkPyGAAFWK23+IcRXikoKsWP/dtlm5YIClJh7WxdMGx3tcRsOp4A/9lbjm7Wl2LSvGg5vVteRUY8UA64ZH4vLRkYjUOf5BPW+7Ho88dZRFEib3Odcy3Lz82fBD477tUaeGYCkpAkCx63x9PqIsEhcMuZSKYdECCFuO16Qg+37tsm6NDcsMxTP35mBTlGezQacUVZtwY8by7BqazmOFDRJNDrviQnXYNLQKEwZFY1uSe7lT2hNk8mBVz/Pw5e/nYRTzqBIEP6dW1BwAwC/3qEpSwCQmpg4GDy/3dPrA/QBuOqSa6QcEiGEtIk3ggCdRoH7rk3CzZfGt3lj2/kUlLbg120V2LivGgdyGtrtzEBqvB6j+oVjwqAI9E03tmk3f2t+3VaBhR8dR1m1tIl9zuOL+M6dZ27YsMHvS73KEgB0SUzMcPL8UU+v5zgO1152HTRqz9Z+CCFECt4IAgAgIVqHJ25Jw/gB4ZK1Wd9kw7ZDtdiVVYc9R+uQU9ws71OxC3GROvTvakT/bsEY0TsUcRFssx5nO1bYhBc+zMHOrDrJ2mwNJwjvHy8ouAtAh9ioJc8MQGqqBk5nMxhOGYwYMBLJCSkSjooQQtqusKQAW3Zt9kpZ76G9QvDwDSno1YZ89u5qbLHj0PEGHCtsQk5xM7KLmlB0qgVNEqYfVqt4dIrSoUvnAKQnBKJLQiB6pRoQFSr9w1xplRlvLy/Ed+tPeWumY3Fufv4j8OM1/3PJEgAAQGpSUh44LtnT6y+0kwCEkParvLIMv29bD6vNOxt0xw4IxwPTk9A1ySB7X3WNdpRUmHCq2oKaegtq6m2oa7KjxWSH3Sn8T30CjZqHVsVDreYRYlAj2KBESJAa0WEadIrUIiJEI8l0viuVtRa8810R/r221Fu5EQQAT+bm57/sjc68Sb4AIDn5JwCXeXo9z/G4bMIUBAcFSzgqQgjxTG1xVl30AAAFvElEQVRDLdZtXoMWk3fSvHMcMKZ/OGZd3hkDutP3YFGZCct+KsaK38tgtnpt750ZgnBzbkHBN97q0JtkSQQEAKEhITEALvL0egECmluakdzZ40kEQgiRjE6jQ1KnZJRVlsFkli2pzP8oKG3Bd3+cwsZ91TDoFUiKCwDvZm2BjmLP0Tos/Og4FnyQg0PHG2B3eGkGXhCqBZ6/JC8//1fvdOh98s0ApKb2gdO5j7Wd4QNGICUhVYohEUIIM7vdju37tiG/OM/rfYcHqzF1dDSuHh+LpFi91/v3ltpGG37YUIZv1p5Ebon3C+txwCGB56fl5uZ6/032IjlDST41ObkYQBxLIwpegYmjLkZkWKREwyKEEHZHjmdhz6HdPknjzXFAv4xgTBoWiUlDIhAR4v8npkxmB9bvqcKqLeXYuL/Gl7UPvmgxm28vLS31i5K+LGSdS0pJTn6ZAx5jbUej1mDkoFGIjWKKJQghRFJllWXYuOMPmC2+S8ur4DkM6GbE+IERGNknDElx/jMzUFVnxeYDNfhjTxU27K2GyeLTvDo2geMezsvLe9OXg/AmWQOA1NTU7nA6/5SiLY7j0K9nf3RL6w5O7m2mhBDiJpPZhK27N+Nk+UlfDwUA0ClKixF9wjCwewj6dzXKcgTPU40tduw7Vo+9x+qxeX81svIb5SjN64njTuCG/Pz83b4eiDfJfidNS05eJwCSJfY3BgWjb49+6BTbCZz8wyeEEFECBBzLPYq9h/fA4Whf2WHjIrTom2FE1yQDMhIC0CUh0CtBQUOzHTlFTcgubsKxgiYcON7g02RELizT6HRzsrKy/C+PMiPZ76ApKSljOUFYL3W7ep0enWI7Iy4qDoGBBui1esocSAjxqbqGOmzeuRE19TW+HopLRoMKnSO1iIvSIT5Ci9gILcKMKoQaNQgOVCIoUIkA7elDYnqtEiolB0EAGpptAACrzYn6ZgfqGqyobbKjpt6CU1UWnKw0o6TcjOJyEypqZE/Jy6oKgnBXbkHBt74eiK945RE6LTl5swAM90ZfhBBCiIjPeaXywZycnCpfD8SXlN7oxAHczQP7vNUfIYQQch4nBY67Ny8v7wdfD6Q9kC0R0Nlqa2srQkJCwjhgsDf6I4QQQs5i5jjuZX1z87XHTpw47OvBtBde20XXKyoqoCUgYBeAbt7qkxBCyAVvpcLhuD+7qKjA1wNpb7y6jT4lJaUHJwg7AfjPQVVCCCH+RxC2QxCezC0s3OjrobRXXj9Hl5KSMp0ThC8A8N7umxBCSIe31wk8k5+fv8rXA2nvfHKQPi05eY4AvO6LvgkhhHRIewSOW5iXl/cjTpfwJSJ8lkknLSXlaUEQnvdV/4QQQvyeIACrOJ7/Z25u7gZfD8bf+DSVXlpy8p0C8Ba8dBqBEEJIh9AgAF9yPP9mbm7uEV8Pxl/5PJduWnLyZAH4BECor8dCCCGkXdvGAUt1zc3fHCovb/b1YPydzwMAAEhOTu7MC8LX4Lghvh4LIYSQ9kMAsjng35zD8fXxoqKjvh5PR9IuAoC/KNJSUu4RBOE5AEZfD4YQQoiPcNxRCMIPnNP5zfHCwgO+Hk5H1Z4CAABA14SEGKtCMZ8DZgKg6j6EENLxNUEQ1nMc96tdEFYXFBQU+XpAF4J2FwCckZqaGg+n82EAN4H2BxBCSIchAKc4YBuALU5ga+fOnfdv2LDB7utxXWjabQBwRmpqqoZzOi8VgOsAjAUFA4QQ4i/MAHIF4DAHHOKAww7gcH5+frGvB0b8IAA4B5+SktIHwFBOEDI4IF0AEgAYAAQCCPDt8AghxG+0QBBM4LhyACdxOnmOEYBRAIwcoP3rdQacruRqB9D4139rgiDYOI6rFgShGn/9L8/zlYLTWSjwfIHSai3IPnHiFCgpDyGEEEIIIYQQQgghhBBCCCGEEEIIIYQQQgghhBBCCCGEEEIIIYQQQoio/wCRI9nKmtQmCQAAAABJRU5ErkJggg==;" vertex="1" parent="1">
          <mxGeometry x="802.5" y="155.5" width="70" height="70" as="geometry" />
        </mxCell>
        <mxCell id="YaeXBy9BYN40PlVeFBTf-46" value="" style="shape=image;aspect=fixed;image=data:image/png,iVBORw0KGgoAAAANSUhEUgAAAgAAAAIACAYAAAD0eNT6AAAACXBIWXMAAA7DAAAOwwHHb6hkAAAAGXRFWHRTb2Z0d2FyZQB3d3cuaW5rc2NhcGUub3Jnm+48GgAAIABJREFUeJzs3Xd0FFUbx/HvlvTeE5JA6CX0XqWrIIIgiKioqNgLFvS1gth7wYZYEAsq2EUUpDfpvSdAICEhhCSkly3vHwFFpCQzszu72edzDicY9t75EWLm2Tu3gBBCCCGEEEIIIYQQQgghhBBCCCGEEEIIIYQQQgghhBBCCCGEEEIIIYQQQgghhBBCCCGEEEIIIYQQQgghhBBCCCGEEEIIIYQQQgghhBBCCCGEEEIIIYQQQgghhBBCCCGEEEIIUTsZ9A4gxFnUAZoDDYBwIAgw65pICCH0UQgUA4eBPcBeoEKLjqUAEK7AB7gMGAr0BerqG0cIIVxWCbAKWADMoqowUEQKAKGneOAB4Eaq3ukLIYSoPhuwCHgFmF/TxlIACD2EAE8Dt1P17l8IIYQ6a4H7gL+q20AKAOFsQ4EPgDi9gwghRC1jAz4EHqTqUcF5SQEgnMULeJmqClW+74QQwnF2AKOAXed7kfwgFs7gD8wGBusdRAghPEQ+VSOuy8/1AikAhKMFAH8APfQOIoQQHqaUqiLgz7P9oRQAwpG8gJ+AQXoHEUIID1VI1fLqDWf+gdH5WYQHeQ25+QshhJ6CgLlA7Jl/IAWAcJThwN16hxBCCEEMMIMzRv1NukQRtV0wMI+qylMIIYT+GgFpwOZTn5ARAOEIzyPr/IUQwtW8zGm7rsoIgNBaIvAZ8r0lhBCuxh8oB5aAjAAI7U0EvPUOIYQQ4qzupeoxrSwDFJryAzKp2utftXoNG9G110XE1InHz89fiy6FEEJX1kqwV/O1NquV4znHSNmzk3WrllJZockpwAC3AtPljHWhpWFocPPv3qcvE59+jradumgQSQghXIfVYsCi4D5ecCKfGe+/wafvvU5pSbHaGGOB6TICILQ0C7haaWOj0ciDk57hjocewWCQb00hRO1UUWrAXt1hgDPs27WdO64bRnraATURbEC0/JQVWjEARzjLZhPV9cgzL3D7gw9rl0gIIVyQpdKAtVJ5+yOH0xg1sAvHc7LVxBgpkwCFVuqj4ubfa8BAufkLITyCyaTw7f9JdRLr8cybH6qN0UMKAKGVZmoaPzzlea1yCCGESzMYQe1Tzn6XDqV9F1VnrDWVAkBopbHihs1b0LJtey2zCCGESzMY1I0CAAwdda2a5o2lABBaCVXasGuv3lrmEEIIl2fQ4O7buUcfNc3DpQAQWlG8739sfIKWOYQQwuVpsdApto6qn51BUgAIrXgpbegfEKBlDiGEcHnqHwCAf0CgmubeUgAIIYQQHkgKACGEEMIDSQEghBBCeCApAIQQQggPJAWAEEII4YGkABBCCCE8kBQAQgghhAeSAkAIIYTwQFIACCGEEB5ICgAhhBDCA2mwG7HwEAagBdAHaAk0BcL55wyACCBEScdh4REEhShqKoTQkH9AIKHhYTRo3JSmyS3pelFvGjdPxqDFxvXiXyyVYK1U/3VtFqn8fbz8q4oLaQbcBFwDxOucRQjhZDFxdRh61dWMun4cjZu30DtOrSEFgHBlbYBJwDDkUZEQHs9gMDDgssuZ8MQkWrRuq3cctycFgHBFgcCzwN2ASecsQggXYzKZuHb87Uyc/CyBwcF6x3FbUgAIV9MC+IaqZ/xCCHFOCfWSeOfzWbTp2FnvKG7JFQoAGdoVpwwA/kJu/kKIakhPO8hVA/sw78fv9Y4iFJICQACMBH7jnxn9QghxQRXl5dxz/Rh+/vZrvaMIBaQAEAOALwEvvYMIIdyP1WLhwfE3suzP+XpHETUkcwA8W11gI1Vr+IUQQrGAoCB+WbGW+o2b6B3FLcgcAKEnE/AtcvMXQmiguLCQ+268DovFoncUUU1SAHiuu4EueocQQtQe2zZtYMZ7U/WOIapJHgF4pghgPyCLeIUQmgoICmLZjn2ER0bpHcWlySMAoZd7kZu/EMIBigsL+eSdt/SOIapBRgA8jw+QgTz7F0I4SHBIKGv2p+Pr56d3FJclIwBCD0OQm78QwoEKTuTz59xf9I4hLsCsdwDhdKPUduBtNDG2XmdGJLSjfmAE3kY5MkAIV2IvqoC8khq1qbRbOViezw95u5iZs5lyu7rZ/L99P5shI69S1YdwLHkE4FkMQBYQrbSD5OA4vusxniZBirsQQjiBPS0PbDZFbVPKcxm572u2lR5VfP3QsHA2HD6K0SgDzWcjjwCEszVCxc2/QUAki/veJzd/IdyAwV/55p6NfMJZ1GwcjX2VPy3Mz8slZc8uxe2F40kB4FmaqWn8QccxRPoEapVFCOFA9gBvVe3DzX58mDRMVR+pe/aoai8cSwoAz9JAacOWIXUYENNUyyxCCAcyeKmfm3NRUD3a+8cpbn9of6rqDMJxpADwLCFKG/aLlv29hXArZm0m5/YNVvy+gcKCE5pkEI4hBYBnCVDaMNZP9g0Swq0YAKP6SWbx3spPCS8uKlJ9feE4UgB4FsX/3maDLPUTwhOZDcpvEzaFqxCEc0gBIIQQQnggKQCEEEIIDyQFgBBCCOGBpAAQQgghPJAUAEIIIYQHkgJACCGE8EBSAAghhBAeSAoAIYQQwgOZ9Q4ghN7KrJVklhWQV1FCpc2KDTvBZl+CvXyJ8wtRtRFKbVVps5JfWUqhpYwTFWUUW8vxM1WdPudv8ibeL5RgL1+dU2qv3GbhcEkelTYrdfxCCPHy0zuSEIpJASA8SrGlgtXHD7Ds2D5W5exnX9Ex0kvysWM/6+u9jCbq+YfTLDiGzuFJdI9sQPeI+vialB+16m5OVJay9FgKq3JS2VOYze6Co+wvzqHSZj1vO3+TN02CokkOiaNNaAK9IhvSIbyuWxZUczO38/beJSw7lkK5zQKA0WCgTWg84xv05Kb63fA2ym6Zwr1IASBqvTJrJXMzdzDr0Hp+y9xBmbWy2m0rbVZSio6RUnSMX49sByDA7M3AmGZcmdCO4Qlt8DepO3bVFe0rOsaXB9cyL2snG/MOY7XXfEvXEmsFm/PT2Zyfzpdp6wAINPtwaWwLRiS0ZUidlgSafbSOrqkyayW3rPuSrw6t/8+f2ex2NuWlc+eGr/lo/0rmdL+FpIAIHVIKoYwUAKLWKrNW8l7qcl7cNZ+ccu0OJSm2VPBjxlZ+zNhK8EZfxtbrzANN+1PfzX/4l1or+TxtLTMPrmFVzn6HXKPIUs6c9E3MSd9EkNmXa+t15PaGvWgdGu+Q66lhx841f33KjxlbL/jajXmHuXjpO6we8BAR3orP3BLCqaQAELXSDxlbmLBpDodL8hx6nYLKMt5NWca01BVcldieic0G0sYFb2bnU2gp4/2UFbyxdyFHywqdet0PUlcwLXUlQ+q05IkWl9IpvJ7Trn8hnx9cW62b/ykpRcd4bOvPTOs4xoGphNCO+z2ME+I8yqyVTNg0hytXTnf4zf90FruNrw6tp/38Fxm9+mMOOfHaSlntNt5NWUb9X5/if1t/dOrN/3R27PxyZBtd/3yV6/6aQXppvi45zvTanoU1bvPJgdVkl+vzdRSipqQAELXG8Ypiei16g7f3LdEtgx07sw9votXvz/HanoWKnp07w7rcNLr++Sr3bPyW3IoSveMAVV+7rw6tp/m8KbyTsvScEzOd4UDxcbadOFLjdla7jd8ydzggkRDakwJA1ArHyosYsORtNuQd0jsKUDW8PXHLD1y06A0OFB/XO87frHYbk7fPpdvCV13ma3WmYksF926czYAlUzlSekKXDHsLs5W3LVDeVghnkgJAuL0yayWXLX+PLfkZekf5j9XHD9BpwUv8kbVL7yhklp3g4qXvMGXnPGx2/d5dV9fi7L10XPASS7L3Of3aR8sKFLfNUtFWCGeSAkC4vXs2fsv6XNd8NwuQW1HC8JUfsvSY829kp2zOT6fj/JdZnL1XtwxKZJUVcMmyd/j0wF9Ova6a8kjPRxdC1IQUAMKtfX1oAx8fWK13jAsqs1Yybu0XFFsqnH7tJdn76Lv4LTLL9BlOV6vSZuWWdV/y/K4/9I4iRK0iBYBwWyXWCv639Ue9Y1TbweLjfHlonVOv+euR7Qxe/h4nKkudel2t2bHzxLZfeHbn73pHEaLWkAJAuK2Xdi1wi+V2p/vu8CanXWv5sVRGr/64Rjsfurqntv/K1H1L9Y4hRK0gBYBwSyXWCt5Ncb8bgZKlZUpsP3GEK1ZOo7QW3fxPeWDzd8zL3Kl3DCHcnhQAwi19lbbeZdav10TFyYNkHCmnvIjBy94jzw2/PtVhtdsYu2YGKUXH9I4ihFuTrYCFW/o8bY2m/fmbvEkKCMfP5M2JylIqbBbSS/M1Xy4X6xusaX9nstnt3LB2ptN20wv39ifKJ4gwbz8qbTaKLOUUVJY5fMJhbkUJV6yYxqr+D9XKY4eFcAYpAITbKbSU8dfxg6r7aRAQyS0Nu3NZXEtahsRhwPCvPy+ylLM5P52VOfuZfXgjG/MOq75mz8iGqvs4n5f3LHDY8Li/yZs+0Y0ZGNucdqEJtA6NJ9TL76yvzSkvYnN+BiuOpTAnfRM7C7I0z7OzIIuHt/zAB7L3vhCKSAEg3M6yYykXPIv+fLyMJiYnX8bDzQZgOs/Z9IFmH3pGNqRnZEMeaTaQPYVHeWvvYmYcXKN4Yt34hj2Uxr6gnQVZTNo+V/N+e0Q2YHyDHoxKbI+fyatabSJ9AhkQ05QBMU2Z3PIytp84wht7F/FF2jpV/3Znmr5/FdcldXZ4YSVEbSRzAITbUbPjnwEDH3W6lkebX3zem//ZNA2K4b0OV5N62WTG1e+K0WC4cKPT3FS/Gx3C6taoTXXZsXP3xm80vbn2iGzA4r73sbzfA1yf1KXaN/+zaRlSh487XceeQU9xdd0OmmW0Y+f29bOo0PDvLYSnkAJAuJ2DKvbWv7xOS8bW66zq+nG+IXzc6TqW9J1A/YCIarXpE92Yt9qNUnXd8/kybb1mW+YGe/kyreMYlvW7n95RjTXp85SkgAi+6jqOH3rcSpxviCZ97izI4uXdCzTpSwhPIgWAcDtq1v7fUL+rZjl6RjZk8yWPcnvDnuccDTAbjDzYtD9ze91JgNlbs2ufrsJm5YltP2vSV8uQOmy8+H+Mb9DjP3MitDQsvjXrBj5Mx3BtRkRe3DVf9uAXooZkDoBwO2qO2K3rH6ZhEggy+/Jeh6uZ2Gwgsw6tZ2PeYQoqSwn18qdTRD3G1O1Igl+optc80+dpazXZEKl/TFO+7zGeILNzZtXX8QthSd8JjFn9Kb8c2aaqrxJrBS/vXsDrba/UKJ0QtZ8UAMLtGFW8M91XeMwhz+HrB0TwWPNLNO/3Qqx2Gy/vmq+6n95Rjfmp5234mxwzSnEu/iZvvu1+M5cvf58/j+5R1deHqSt5vMWlRHgHaJROiNpNHgEItxOkYt33OylLVY0guJpfjmxnn8oNcRoFRvF9j/FOv/mf4mM0832PW2kflqiqnxJrBR/vd/2DoYRwFVIACLfTODBKcdtVOfsZt/ZzDrvZGQLn8vlBdRsi+Zq8+L7HeMK8/TVKpEyg2Yevu92kelOfD1NXaJRIiNpPCgDhdhoHRatq/0XaOhrOncSoVR+xOHuvRqmc73hFMXMzt6vq48kWg2gZUkejROo0CozinfajVfWxvzhHkw2bhPAEUgAIt6PF0jSL3cZ36Zvpv+Rtms97hrf2LaHIUq5BOueZfXiTqvXvjQOjeKhpfw0TqXddvU70iVb37/tD+maN0ghRu0kBINxOw8BImgfHatbfnsKj3L9pDom/PMHdG791m3eQ87PUbfn7dMsheBlNGqXRzuttr6zxJk2n+04KACGqRQoA4ZauTGireZ8nKkt5L2UZHRe8RMcFL/F+6nJOVJZqfh0tWO02lh5LUdy+nn84oxLbaZhIO21DExgW31px+92FRx1y9oAQtY0UAMIt3dWot6qtaS9kY95h7trwDXE/P8bo1R/z59E92NH2ZEA1Nuenqzru95aGPVS9y3a0uxpdpKr9omx1SwqF8ASu+xNAiPOI8Q3ipvrdHH6dMmslsw9v4uKlU2n5+3O8vncRx8qLHH7dC1mj8jTE0YnttQniIH2jm9A0KEZx+7UanBYpRG0nBYBwW5OSBxPrG+y06+0qyOKhzd+T+Mvjuo8K7C3MVty2RXAsjVQspXSWoXVaKW67wU3mcQihJykAhNuK9Alkmg5nwVfYrH+PCrSb/yKzD29yeiGwu/Co4ra9ohppmMRxLo1robhtatExLLVowychHEEKAOHWLq/Tivub9NPt+lvzMxi9+mO6/PkKfx0/4LTr7lMxAuCoI4m11i2ivuJ5ChU2KwdUnBophCeQAkC4vVfbDnfKfIDzWZ97iB4LX+eWdV86ZeWAmnkI7jD8D1W7FFb3uOWzySw9oWEaIWofKQCE2zNgYFrHMYxv0EPXHHbsfHJgNe3nv8iqnP0Ou47NbqfEWqG4faLGJyI6kpr9HrLLCzVMIkTtIwWAqBVMBiPTOo5hRuexuh1qc8qB4uP0WfwmHzhoX/piazk2u/I5B2r323emEBVZCyvda2dHIZxNCgBRq1yf1IXVAx5SvZ2sWha7jTs3fM2zO3/XvO8SS6Wq9j5G9zkFXE0xV2GzaJhEiNpHCgBR67QKqcOiPvfx14CJXFuvE946bnf71PZfeWHXfE37NBvV/W9bZlNXQDiTwWBQ3NbmQhs3CeGKpAAQtVbn8Hp83uUG0oY8ywuth5HgF6pLjse3/cyMg39p1p/ad/DuNDSeXab8OX6Azo+ChHB17jMWKIRCMb5BPNJsIPc36cec9E1MS13O8mOpTs1w94Zv6RBWl1YaHL3rZ/LCZDBiVbjO/VBJLg0DI1XnqIn00nx+ytjKprzDFFrKiPAOoGtEfYbGtybUy++c7bLKChRfM8iN5joIoQcpAITH8DaauKZuR66p25E9hUeZceAvpu9fSa6KPfWrq8RawfVrPmPtgIdVn8BnMhiJ9gkis0zZMrfUohz6RjdRlaG6yqyV/G/rT3yQuvw/Rxd/kLqCUC8/Hm9xKQ807YeBfw/32+x29qjY8MiZu0QK4Y7kEYDwSE2DYnih9TDShjzL9E7X0jUiyeHX3JKfwXupyzXpq45fiOK263LTNMlwIQWVZfRd8hZv71vyn5v/KfmVpUzc8gNjVn/6n9fsLMhUVZzVdaPljkLoQQoA4dECzN7cXL8bq/o/xM5BT/JIs4HE+AY57HrP7/ydQkuZ6n6aBkUrbrsyxzmPP8au+azahxZ9e3gjo1d//K8iYJmK4479Td7E+SovkoTwBFIACHFSs5OjAumXP8f83vcwKrEdZo2PzD1WXsTnB9eq7qdFSJzitjsLslQdJlQdczO388uRbTVq81PGVoavnEb5yeV7sw6tV3z9NqHxGFWsIBDCE0gBIMQZTAYjA2Ka8k23m0m97Gn+1+xiIrwDNOv/4wOrVPfRLjRRVfvZ6ZtUZzifD1NXKmo3L3MnV6/+hG0njrAqR/nZCm1DExS3FcJTSAEgxHkk+ofxfOuhHBzyDJNbXqbJLoOb8tJVH1TTI7KBqtGJj1JXKl5FUB2Ls/cqbvtTxlb6Ln5T1QmLF+m8EZQQ7kAKACGqIcDszVMtBrHh4kdoF6b+3eX8rF2q2gd7+dI+TPkoQFpJLrMPO2YU4ERlKUUWdXsNqJn8Z8BAPyetchDCnUkBIEQNNA2KYUnfCaq3Gt6Ud1h1lsvjW6tqP2n7r1SeY3a+Gr4mr/8s6XOmLhH1iPIJ1O36QrgLKQCEqKEgsy/fdruZeBU7C+4qzFKd48qEtqra7ys6xqt7FqrOcSYfo5l6AeGa91tdVyV20O3aQrgTKQCE20otymFO+iY+3L+Sn49sU7wxjhKRPoHc16Sv4vbZZUWqMzQLiqFDWF1VfTyzcx7bTxxRneVMw+q00rzP6jAbjFyV2F6XawvhbmQnQOF25mXu5Kntv7Ih79C/Pm80GBgY04wXW19Bm9B4h+cYGNNMcVu1z8hPua1hT25d/5Xi9mXWSkasnM6aARMJ8/bXJBPAA037M23/Ssqszj14aHhCG1WbJAnhSWQEQLiVR7f+xJDl7//n5g9VW8f+kbWLTgte4tMD2h2+cy5q1pmbNFqjPqZuR8JV3rhTio4xYuV0SqwVmmSCqtUTU9tfpVl/1XV3oz5Ov6YQ7koKAOE2ntv1By/tXnDB5WEWu41b1n3JtNQVDs3ze9ZOxW1DznMATk0EmL2Z0KSf6n6WHtvH5cs/oKBS/S6Fp9xcvxuTkgdr1t+F9I5qTK+ohk67nhDuTgoA4RZ2FWQxZcdv1X69HTt3bfyGt/YtcUieMmsl01KUFxiJGu5Tf0/j3qpHAaBq7X6Pha+RWpSjQaoqk5IH85STioApLYc45TpC1BZSAAi38Pa+JTVesmaz27l/0xzGrvlM8xP/Jm2fy/5i5TfK5GDlW/meKcTLj8ktL9Okrx0FmXRY8CIf7l+paiOe0012QhEwPL6NvPsXooakABBuoab7yp/uy7R1JP/+DB/uX6nJuvc39i5SvXyuU0Q91TlOd3vDXrQKqaNJXwWVZdy+fha9Fr3B0mP7NOnTkUVAgNmbN9qNdEjfQtRmUgAIl1dsqSCztEBVH0fLCrl9/SyazpvCK3v+JLu8sMZ9ZJcXct1fM3hw8/eq3h17GU30j26quP3ZmA1GPu50naaHF63K2U/fxW9x0aI3mHlwDaUqZvQvP5bK3sKjDjmgJzk4jljfYM37FaK2k2WAwi1oNRx9sPg4j2z5kce3/kzPqIYMikuma3h92oUlEGj2+c/r8ypKWJmzn+/SNzH78CZNZsr3jW6i6ZK7UzqG1+Wx5pcwZec8TftdkZPKipxU7tzwDX2iG3NxbHPahSbSKrQOoeeYzJhWksvW/AzmZ+3it8wdqs8+OJ+1uWlcteojvu1+C95Gk8OuI0RtIwWAcHn+Zi8ivAM4XlGsWZ8Wu40l2ftYkv3PEHekTyB1/ELwMpiosFk4WlaoaKTgQm6u313zPk95InkQK3JSWaTiMJ5zKbFW8FvmDn7L3PH35yJ9Aok6+avEWkFBZRlZZQWariaojp+PbHOZImB+1m4uXjr1rH9WYq2k3Gr5z+dNBgPRvkG0DolnZGI7Oc1QOIUUAMLlGTDQL6aJww6vOSWnvIiccvU79J1P/YAIrlC5h//5mA1GZnW7iU4LXuJQSZ7DrnPKqa+ZuqONtOEqRUBm2QnFu1L+emQ7L+yaz4iENnzQcYymx1ALcSaZAyDcwj2N++gdQROPt7gULwffnKJ8Apnb606HPGZwdT8f2caNa2dq9shID3bsfJe+ma5/vuLU7a2F55ECQLiFnpENGd+gh94xVOkQVpcbkro45VrJIXH81PM2AszeTrmeK/n60Abe2bdM7xiqpRblMHLlR9js7lvMCNcmBYBwG2+1G8nFsc31jqGIt9HEhx2vwaThLP0L6RnZkN963UWQ2ddp13QVz+ycR7FFu62N9bL6+AG+OrRe7xiilpICQLgNX5MXP/a4lUFxLfSOUmMvtRlOuzDnT+zqFdWQ+b3vJtonyOnX1lNOeRHzj7rCzAT1ZhxYrXcEUUtJASDciq/Ji+973Mrw+DZ6R6m2cfW7cp+Ocxi6RCSxasCDNA+O1S2DHtYdT9M7giZW5KTKYwDhEFIACLfjYzQzp8ctTGk5xCEby2hpSJ2WfNBhjN4xaBAQyV8DHmJM3Y56R3EaNctGXem7qsJm1XQJrBCnSAEg3JIBA0+0uJS5ve4k0idQ7zhndWVCW+Z0H+/wWf/VFWT25cuuN/JRp2s1O43Qlak5IMmVVlAYMBB0lk2qhFBLCgDh1i6Jbc6eQU9xa4MeGFzofdu9jfvwTbebdd+U5mxuqt+NbZc+ztA6rfSOclahXn681+Fq1UcJdwxXft5CS43OVdBCg8AIfE1eescQtZBsBCTcXpi3Px90HMPouh24d+NsdhRk6pYl2ieIDztd47I311MS/EL5sedtLDi6mwc3f8/2E0f0joTRYODaup14sc0w4nxD/v780zU4BvqUcG9/LlGxYqR+QATtwhLYlJeuuA+tjIhvq3cEUUvJCICoNfpGN2HLJY/xTbebaR0a79RrGw0GbmnQ3aXfWZ/NwJhmbL74UV2+ZqcYMDCkTks2Dvwfn3W5/l83/0nJgxWNBDzW4tKznu1QE0+2cOwRxtURZPblgab99Y4haikZARC1itFgYFRiO0YmtmXukR18emA1czO3U6HBMcDnut6VCW15rPmltNHpBqrWqa/ZqMR2LM7ey/spy/nlyDbKbf/ds15LQWZfrqnXkXsb9znvCoVTBUB1RwKGx7dhQuO+qvNdEd+a8Q16MH3/StV9KWHAwEedriXG17OWcArnkQJA1Eqn3lUOqdOS4xXFzDq0nl+PbGfFsVRNTvRLCojgunqduLF+VxoERGqQ2DX0jW5C3+gm5FWU8EPGFn7M2MLi7L2abaoTaPahf0xTRiW254r41vibqrdT4aTkwdQLCOeejd+eM4vRYODuRr15pc1wzVaHvNdhND5GM++mLHPq9sL+Jm+md7qGUYntnHZN4XmkABC1XoR3AHc36s3djXpTbrOwOucAy3JS2Hkik72F2ewpPHres+69jCbq+YfTISyRThFJXBzTzKUmiTlCmLc/N9Xvxk31u1Fhs7L6+H7W5qaxPjeN3QVHSSk6dt6vGVQt10wKiKBlSBwdw+vRNSKJbhENFE+MvDGpK4Nik3ln3xLmZu5gb2E2FruVBL8wBsQ05Y5GF2k+CmMyGHm7/SiuTGzLK7v/ZFH2Xsou8PdWI9In8OSI0iUk+oc57DpCgBQAwsP4GM30iW5Mn+jGf3/OZreTW1FMgaWM/IpSiizleBlN+BjNxPgGEesb7NQtfF2Nt9FE76jG9I7652tmx052WRG5FcUcryim7OQRt74mMyFefoR7+1PHL0TzlRkxvkE80+pynml1uab9Xsipv3+ptZLMshOUWiops1VyorJU4IigAAAgAElEQVSsxpv0eBmNZ52fEOMbTJyHf68J55ICQHg8o8FApE9g1X4CcvpqtRgwEOMb5HHPp/1MXrXqkY/wbFJqCiGEEB5ICgAhhBDCA0kBIIQQQnggKQCEEEIIDyQFgBBCCOGBpAAQQgghPJAUAEIIIYQHkgJACCGE8EBSAHgWm9KGFrtjDtMRQrg2i13xjw2MRrnFuDL51/EsxUobZpUWaJlDCOFodjvY1B9glFFRqLhtQGCg6usLx5ECwLOcUNpwUfZeLXMIIRzNqs3phYsL9ituGxQcokkG4RhSAHiWA0obbj9xhAVHd2uZRQjhQPYKi+o+lhYeZGNJpuL2dRs0VJ1BOI4UAJ5ll5rGd6z/mpzyIq2yCCEcyFBcoap9nqWU2w7+rKqPhk2bqmovHEsKAM+SAmQrbby/OId+S95mX9ExDSMJIRzBXqq8AEgtz6X/nhnsKzuuuI/QsHAaNW2uuL1wPDkO2LPYgcXAaKUdbD9xhFa/P8uNSV0ZntCWRoFRhHv7a5dQCKGavagCyktq1CbPWkZqWS4/5O9ixrFNlNvVPULo1ruPrAJwcQa9AwinGwnM1juEEKJ2mzpzFkNGXqV3DJdlqQRrpfpbcLNI5UWWFACexwfIACL0DiKEqJ2CgkNYeyADXz8/vaO4LFcoAGR8xvOUA+/qHUIIUXtdf/udcvN3AzIC4JkigP1AsN5BhBC1S0BQEMt27CM8MkrvKC5NRgCEXo4DT+kdQghR+9z32FNy83cTMgLguczASqCz3kGEELVDy7bt+WHpKsxeXnpHcXkyAiD0ZAFGAbl6BxFCuL+AoCDemvGF3PzdiBQAnu0QcDWgbsswIYRHM3t58e4X39Cgiez8506kABALgOupGhEQQogaMZlMvDLtE3oPvETvKKKGpAAQAN8AgwHZ6F8IUW3ePj5MnTmLK66+Ru8oQgEpAMQpC4AuwA69gwghXF983Xp8M38xg4ZfqXcUoZAUAOJ0O4FuwFTAqnMWIYQLMplMXH/bnfy+djNtO3XRO45QQZYBinNpC0wGhiLfJ0J4PIPBQL9Bl3H/k5NJbtNO7zhuzxWWAcoPdnEhycA4YAxQR+csQggni46N4/JRo7nqhnE0adFS7zi1hhQAwp0YgJZA35MfmwBRQCAQBPhTddBQjfn5++PtraipEEIj/oGBBAQGEh4ZRf1GjWma3JJuvfvQNLkVBoPcKrQmBYCoTd4C7lXScNKrb3LjnfdoHEcIIVyXKxQAMglQCCGE8EBSAAghhBAeSAoAIYQQwgNJASCEEEJ4ICkAhBBCCA8kBYAQQgjhgaQAEEIIITyQFABCCCGEB5ICQAghhPBAUgAIIYQQHkgKACGEEMIDSQEghBBCeCApAIQQQggPJAWAEEII4YHMegfwUH6APxACBJ78feDJ//YHAk77M6/z9HO2Pz8B2IC8kx9PAFagAKgEioCKkx9zgGNAqQZ/JyGEEG5ECgBthAMxQNTJj6f/Pvbk76OBCCAUUH8ItLaKqSoGjlJVEOSc/JV98r+PAGnAQaBMn4hCCCG0JAXAhZmBBKABUP+MjwlU3dy9dUunjYCTv+pV47VZVBUDKcAuYM/Jjz4OSyeEEEJzUgBU8QeaAY34742+Lucfhvc0sSd/ddE7iBBCCOU8rQDwAlqe/JUMtDj5MQmZECmEEMKD1OYCwA9oA7QH2p381Qr3H66vddauWEbT5Fa0bt+BgKAgveMIIYRHcLXJaGo0BLqe9qsNMnTvVkwmE42bJ9Oucxfade5Kh67daNCkqd6xhBBCc5ZKsFaqvwU3i1Q+eO3OBUALoC/QB7iIqln2opaJjo2jW+8+dOvdl669elOvYSO9IwkhhGpSANRMIjAI6A/0pmqJnfAwcQmJXDTgYvpcMohe/QbIIwMhhFuSAuD8vICeVN30B1E1cU+Iv3l5e9O5R0/6XDKYAYOHkNSosd6RhBCiWqQA+C8/4BJgJDCEqt3whKiWFq3bMnjESC4bMVKKASGES5MCoIovVTf7kcBlVG1vK4QqLVq3ZcjIqxh+zXXE1onXO44QQvyLpxcAHYDrgWuASB1ziFrMaDTSrU9fRowZy+ARI/H189M7khBCeGQBEA3cDNwINHHytYWHC4uIZOR11zP2tjtJTKqvdxwhhAfzpAKgHXA7MJaq5/xC6MZoNNLnkkHcdNd99OjXX+84Qqhy7GgWGYfS8PXzI7FefVkZ4yZqewFgAK4AHgR6OPA6bsXs5Y2PfwA+/gH4BQbj6x+Aj18AZu+qs3R8AwIxGP/5B/ULDP7790ajCd+AQEqLC7HbbH9/vrSo4O/fWy0WKkpLAKgsL6O8pJjy0mJKiwspKy6ivKQYq6XS0X9Nt9GybXvufPhRLh02HIPBFabECHFhlspKvvpkOl9++AF7d+34+/NmLy+69LqIOx78Hz369tMxobiQ2loAGIErgSeA1g7o32UYTSYCQ8IJCA0nJDKagNBwgsIiCQqLJDA0nKCIKPwCg/ELCMI3IBAf/wBMZv03J7RUVlQVBiXFlBYVUFKQT2H+cYrycik4nk1Rfi5F+ccpzD1GUX4uxfl52GxWvWM7VPNWbZjwxCQGDhkqhYBwaVlHMrh11HC2bdpw3tdde8ttTH7tLcxe+v/MEf9V2woAA1Uz+SdRdcCO2zOaTIRGxREeG094XAJhsfFExCUSHhtPWEw8gWERHnGzsNttFOYdJy8zg9ysdI5nppOblU5eVjq5WRmcOHa01hQIyW3a8fAzz3PRgIv1jiLEfxQXFjK8T3f27dpZrdePHHsDr0z7xMGphBK1qQDoALxJ1cY9bsfXP5Doeg2JTWpMTL2GxCY1IiK+LqFRcRhNJr3juTyrxUJ+diY5GWlkHdzH0bRUjp78WFFWqnc8RQYOGcoTL71G3foN9I4iaiA7K5Mvpn/An7/+Qure3VgqK4mvW4+uF/XmhjvuJrlNO70jqvLY3bcz65PpNWrz4bc/MHDIUM2z7Niyic/ef4fVS5eQcSgNL29vGjZpxoAhlzP21juIionV/Jq1SW0oAGKB54EbcIPjdA0GI1GJSSQ2bUVsUiNiTt7ww2Lq6B2tVrLb7eQdzSDrYApHD6aQdWAvh/dsJycjTe9o1eLj68v4CQ9y18RHZfmgG5g9cwZPT5xAcWHhWf/cYDAw9tY7ePzFV/H28XFyOvUyDqXRp1VTLJU1m8PTql0Hfl65VrMc5WVlPP/oRD7/8H3sdvtZXxMYHMykV95k5NgbNLtubePuBcAo4H0gQkUfDhUUHklCk2QSGicT3ySZpBZt8Q8O1TuWxysrKSJr/14O7tjEge0bOLx7G0X5uXrHOqe69Rvw2vRP6djdLQe4PMKM96by9EMTqvXagUOG8v6sOZjcbHTvtSlP8c6Lzylqu2L3fuLr1lOdwWq1ctvoESz87dcLvtZgMDD5tbe4/va7VF+3NnLXAiAW+AAYpviqDhJRJ5FGbbvQsG0XkpLbERodp3ckUU25mekc3LGRlE1rSNm8hvzsTL0j/YvJbOauhx/lnkcel0lVLmbL+rWM7H9Rjd4ZP/rcS9x6/0MOTKUti8VCr2YNyDqSoaj9jJ9+o/fAS1Tn+OC1l3npyUer/XqzlxdzFi6jTcfOqq9d27hjAXAJ8CUu8q4/JDKGhm270KhdFxq17SI3/Frk+JFDfxcDqVvWUpR3XO9IALTp2JkPvp4j2wu7CKvVyrCeXdixZVON2gUGB7Mm5TD+ge6x8/iCX3/m1quGK27//qw5XDpMeXuomoDYuWECJUVFNWqX3KYdP61Y43YjLo7mCgWAuQavnQi8AOj2r2gwGEhokkxyj/4kd+tHTJKcDV9bRdSpS0SdunS5bBR2u50jqbvZuWoRO1Yt4kjqbt1ybVm/lmE9u/DB13No17mrbjlElS+nf1Djmz9AUUEBC+fN5fJRox2QSntf13Di35miYtSfnr5w3twa3/yharLgl9M/kEcBLqg65Ycv8AkwxsFZzspk9qJhm04k9+hPi259CYlU/40s3Fve0Qx2nCwGDmzbgM3q/CWIPr6+vPDONIZfc53Try2qHD+WTb/WzSk4ka+o/W0PTOR/z76ocSrtZWWk07NZA6wKv8/9AwLYlH5M9cTH5x+dyPS3XlfUNjA4mIWbdxIdK6O0p7jDCIA/8CMwUPEVFDAYDNRLbkeHgcNofdEl+AXK1pbiH2Ex8fQcPpaew8dSfCKPLUvmsWHBTxzes91pGcrLynhw/I0UFRUy9tY7nHZd8Y/nH3tY8c0fID/XdSeenu7rGR8rvvkDXDJsuCarHk7k5yluW1RQwEtPPspr02eoziG0c74CwB/4GXDaZumhUbG07XcZnQddSWS8+hmrovYLCAmj+7Br6D7sGrIPH2DL4t/YsOBncrPSHX5tu93OpPvvwWa1csMddzv8euIf61et4IevvlDVR3Co668IslqtzJ45Q1UfY8bdokmW4BB1X68fvvqCMeNukdU0LuRcBYA38CvQ19EBDAYjLbr3pefwsTRo3dEjdtYTjhGdWJ+B19/FgLF3sGfdSlb88Dn7Nqw651plLdjtdp5+aALePj6MuWm8w64j/mG1Wnnq/ntV/7u6wxyOJX/M48jhQ4rbN2jSVLMbbttOXVS1t9vtPH7vXcxdvV5W0riIcxUAb+Hgm7+3nz/t+l1GrytvIDpRjmYV2jEYjDTr3ItmnXuRk5HGqp++Ys1vc6gsL3PI9ex2O0/dfw8NGjehS6/eDrmG+Mdn77/Drm1bVPURGhZObzfY7rmmu/6dacxN4zV7U9X30sGER0aRm3NMcR97d27n8w/fZ9xd92qSSahztu+Mm4GPHHXBgJAw+lx1E10uG4VvgDzbF85xJDub1T/PYtPPX1JRWuyQa0TFxPLzyrWyRNCBsrMy6d+2BUUFBRd+8Xk88swL3P7gwxqlcozsrEy6N0nCarEoau/l7c1fKYcIj4zSLFNN9wE4G5kQWMUVJgGe2bIF8K6qNOfg4x/AwLF38sjM3+l91U1y8xdOFRIaTqeRt3D9uz/Sbuh1fx+/rKVjR7O45/prsJ12VLPQ1vOPTlR9809q1Jib7r5Po0SO8/UnHym++QMMHn6lpjd/gJvvmUDDps1U9VFUUMALj7l28eUpziw/FqHx0L/JbKb70Gvod814AkLCtexaiGort1g5WvTPI4Ci49msnT2dXYt+wW7X9ob94nvTGX3jTZr2KWDdyuWMvriv6mf/n/44lz4XX6pRKsew2Wxc1KIRGYeUn5sx6/eFdL2oj3ahTlq5aCHXDVH/+OSreQvp1ruP+kBuyhVGAE6/+hjgK9VpThPXoAmjHnyWhCa14nRg4cYsNjtHCkr+8/nMPVtZ9P6z5GUc1OxaYeERLNyyk7CISM369HQWi4XLu3di9/atqvoZPGIk737xjUapHGfxH/O4afgQxe3rNWjI4m17HDap+q7rRvPb93NU9dG4eQt++2ujx04IdIUC4FRLE6DZjhhmbx8G3Xw/9703R27+wiWYzvGDMK5pa65+5Qs6jhiH0VSTjTHPLS/3OO+89LwmfYkqn77zluqbv5+/P489/7JGiRxL7c5/19x8q0NXVD350muqt1Het2snn743VaNEQolT3yHDqNrwR7WwmHhunPIOcQ2aaNGdEJpJLyjBZjv38HHmnq3Me/URSvLVnzsQGBzMX/sOERAkc13UOnY0i35tmqt+9v+/Z1/ktgcmapTKcY4dzaJ7k6QaH/t7ipe3N6v3pRERFa1xsn+b9vorvPjE/1T1ERAUxJ+bdnjkxFlXGgG4XXUKICm5HfdMnSU3f+GSzBd4RxTXtDWjX5pJdKMWqq9VVFDA97PUbVQjqkyZeL/qm3/9xk3cZunZNzM+UXzzB7hk6BUOv/kD3Hzv/TRNbqWqj+LCQp5/1PWLstrKCMQBqmd0tOkziNtenUFgmEscFCjEf5iMF66UA8KjGDH5A+q2Vb9JzKyP1Q3jCli5eBG/zvlWdT/PvvWeJtvhOprdbmfO5zNU9XH1OOdsSGU2m3nmzamqHzX8Mvsbli74Q6NUoiaMQE/+uxywRhq26cToh5/HZNbmGaoQjmCs5s8ps48vgx96mdgmLVVdb/f2reRkH1XVhyerrKhg8oPq37UPvepquvdx+Kammli+cAFp+1MVt69bv4FTZ9Z36tFLkxMVJz94HxXl5RokEjVhBFS91YlNaswNT0/F7OWtUSQhHKMm71TMPr4MfvhVgqOUb1Zit9tZt3KF4vae7qO33yBl9y5VfQQEBfGom0z8A/WT/64edwvGaox0aemJl14jKDhEVR8HU/bxyTtvaZRIVJeqAsBoMjH6kRdkUx/hFmo6UOkfEk6/O55Qdc01K5apau+pMtMP887L6ldSTHh8kttMMMvJPsqCub8obm8ym7nyuus1TFQ9UTGx3PvYk6r7efuFZ0hPO6g+kKg2I5CktHGb3pcS36i5dmmEcCCjgmeVCa06kdha+SEohw8eUNzWkz3z8AOUFBWp6qNJ82RudKNTGmfPnKFq8t/Flw/TbXvdG++8h+at2qjqo7SkhOdlh0CnMgKKZ+11uPgKDaMI4WjKdpBr1nuw4ivm5uQobuupViz8k3k/fq+qD4PBwOTX33abTWbsdjvfzvxUVR9jnDT572zMZjNT3nhb9YTAeT98x5L5v2uUSlyIkapNgBRJaKx+uZQQzqJkBABQtSww77gUADVRWVHBJA0m/l0x5lq32mZ21eJFHEzZp7h9YlJ9evTrr2GimuvYvSdXjLlWdT+TH7yP8jLHnNwp/s1IzR+N/k0m/gl3onQHeTXf54Uq1697mmmvv8L+vXtU9REYHMwjz7ygUSLnmPWpusl/o2+82emT/87msedfJjgkVFUfaakpTH/rdY0SifNR9R2TnS7PN4UbUVgBaHlOgDi3I4cP8f5rL6nu58GnphATV0eDRM6RdzyHBb/+rLi9yWxm5NgbNEykXGR0DPc/OVl1P+++/LzMn3ECVQXAtmXztcohhMPZFVYAKasXapxEnM3kB++jpLhYVR9NWrTkulvv0CiRc8yeOUPVGvgBg4e4VMEz9rY7adG6rao+ykpLefaRBzVKJM5FVQHw16/fUHwiT6ssQjiUkkN/C7KPsGe5TEpytGV/zlf1LhiqJv5NeeNtzG62IdlstTv/3aTf5L+zMZlMTNFgh8D5v/zEot9/0yiVOBtVBUBpUSE/Tn1W9fncQjhDTb9P7TYbi6c9j7WywkGJBEBFeTmTH7xPdT9XXnc9XXr11iCR86xeukTVZkdxCYn06j9Qw0Ta6NC1uyZ7Ekx5aIJMCHQg1bNGtiz9nfkz5EhH4Q5q9o5k+aevc3jrWgdlEae8/+pLHNi3V1UfgcHBTHz6OY0SOc/XKif/jRl3CyaT4oVcDvXYC68QFq7ubJi0/alMe/0VjRKJM2kybXThV9NY/cvXWnQlhMNYbdV/CLBuzkds/V39ITTi/DIOpTHtDfU/4B+e8rxum+AolZd7nD9+Vn4Ku8lkcpnJf2cTFh7B/U89rbqf9197iUMH9muQSJxJs3UjP059lt8+eh27XcmTViEcz2a78CMAu83Gqi/fYc03HzohkXjq/nsoLSlR1UfLtu255uZbNUrkPN99MVPV8HbfSwcTl5CoYSLtXXvLbbTp2FlVH2WlpTw1wX12dHQnmhUAdrudJd98zIyn7qasRN0WnkI4guUCcwAqSouZ+/JDbPxxppMSebYVC/9k0by5qvowGo1MeXOqyw6Dn8+3n32iqv0YF5v8dzZGo5HJr72peo+CpQv+YMXCPzVKJU7RfOeIXX8t5b37riN97w6tuxZCFdt5CoCMnRv5ZuJYDm6Q0/ucZfpbr6nuY9T142jXWdWBprpYu2IZ+3btVNw+Nj6B3hdfqmEix2nbqQujrh+nup+Pp76hQRpxOodsHZV1cB9T776a796cTEWpuuE9IbRgs9k52/2/oqSI5Z++xo+T7+TE0XTnB/NQBSfyWb5wgao+QsPCeeQZ9ScG6mHWpx+paj/6xpvcatTjkWeeVz0hcOmCPygsOKFRIgEOKgAA7HYba+bO5o3bR7BrzVJHXUaIavnP8L/dzr5VC/hywmi2/PaNzF1xsoMp+1QvH5445TnCIiI1SuQ8BSfy+eOnHxS3NxqNjBp7o3aBnCAsIpKHnn5WVR92u52DqSkaJRLgwALglONHDvPpE3fy7n3XkrplnaMvJ8RZVZ62AuDw1rV8+78b+OONxynOO6ZjKs9VXKRuxz+TycTAIUM1SuNc330xU9XExz4XX0p83XoaJnKOiy8fpnrUoriwUKM0ApxQAJyStnMz0x66kU+fvJMjqbuddVkhALBYbWTt3cYPk+/gp2fuJnu/fA/qqU6iutnrVquVN56ZrE0YJ/v6049VtXe1nf+q6/Upk7Barar6cMfCx5UZAAsqjgRWKim5HT1HjKVlzwEYje7zLEu4F7vdxq41y1g8ZyZpW9Y4/frhkVFsOJTl9Ou6OqvVSs9mDcjKUD7vwmQy8dOKNSS3aadhMsdav3olo/pfpLh9dGwcK/ccwOzlpWEqx9u5dTNDe3RWVQDEJSSyfFeqW819OB9LJVgr1W2XDNAsUvn7eN02zT64YxMHd2wiok5delxxDZ0HjcTb10+vOKKWKS8pZt0f37P8u8/JO5qhdxxxBpPJxJhxt/DGs5MV92G1Wpl0/73MXrhM9b7zzvK12sl/4252u5s/wJSJD6h+9+/Kux66K91GAM7kFxhEmz6D6DBgGPWS1Z0kJTyT3W5j/5b1rF/wI9uWL3CJFSgyAnBuJ/Lz6NuqGXnHc1T1M3XmLIaMvEqjVI5TWHCCLg0SFD//NxqNLN2xj4R6SdoGc7Bf53zLPdePUdVHaFg4i7btVr2SwJW4wgiAyxQApwuNjqNt38F0vewqwuMS9I4jXFx+diabF//GX3O/JTfTtZbySQFwfjOnvcek++9R1UdsfAILN+/EPyBAo1SOMfODd5n0wL2K2/e5+FI+/VHdxknOVlZaysD2LUlPO6iqnylvvsNYNzvm+UKkALgAg8FI/ZbtSe7Rn+Tu/aQYEH/LPnyAnasWsX3FnxzavVXvOOckBcD5Wa1WhnTryO7t6v4NJzw+ifsef0qjVI5xWdcO7Ny6WXH7D77+jkuGXqFhIsd787mneeu5Kar6aNy8Bb+t2eR2xzxfiBQANRQel0CLrn1ofdEl1Etu5zbP/YR6druNjJRd7Fq9hK3L/uBoWqrekapFCoALW7VkMdcOHqCqD18/P/7ctMNlZ4lvWvsXI/r0UNw+KiaWVXsPutXz/6yMdPq3bUFJsbolnzN//p1eA1zvyGO1XKEAcKuSKjcznRU/fMGKH74gJCqGxu2706hdFxq17UJwRLTe8YTG8o5mkLJpDSmb17BvwyqK8nP1jiQcoHufvlw6bDi/q9gcp6y0lJeefJS3P/tKw2TaUTv576obxrnVzR/guUcnqr75D7piRK28+bsKtxoBOJ/wuAQat+9G4/bdaNimMwEhYXpHEjVUlJ/L/q3r2LdxNQe3b3Sbd/nnIyMA1XP44AEGtm+p6nQ8gK//WESXXr01SqWN4sJCOjdMoKRI2SFpBoOBxVt3U69hI42TOc6Gv1Yxqv9FqnZ79PbxYf76rW71964J9x8BMBg46wbrOsjNTGfN3NmsmTsbg8FIVGISic1aUbdpKxKbtSauQVNMtewZkjuzVJRzJHU3h3Zv4/CebRzevY2cjDS9Y52dC32f11aJSfW55d77efflF1T1M2XiA/y8cq1LLRf74esvFd/8AXr2H+BWN0GbzcbTD92veqvnWyc86FZ/b3ekagSgxf1vkzZnKsWH92mbygHM3j7EN2pOYtNWJDZtSWz9xkTXbYDJ7F7Dau6osryM7EP7yTqwj8N7tnFo91Yy9+/BarHoHe2CDHWbYeo7BstnkxS1lxGA6istKWFAu2SOHD6kqp8X3p3G1eNu0SiVepd378T2zRsVt3/vy28ZNPxKDRM51teffsSjd92mqo/YOvFVKzsCAzVK5XpcYQRAVQHQ6c35GAwGctb9yaEf3sdSXKA4iB6MJhOh0XHE1GtITL1GVR+TGhFbrxFmbx+947kdm9VKfnYmWWkpZKelknUwhYx9Ozh2+CA2m7pNQJzOLxBTn9GYulwGJYVUvHyDom6kAKiZH776ggduUfa1PiUiKppFW3cRHBKqUSrltm5Yx7Beyo8rDouI5K+UQ3j7uMfPo6KCAvq1ac6xo+q+59/4eCZXjLlWo1SuyRUKAPVj4gYDkZ0HEtKsAxm/f86x1fOwW13/nR1U3bByM9PJzUxn11//nFhoMnsRHhtPWGw84bEJhMfGEx6X8Pfv/YP1/8Gil+ITueRmZpCblU5u1mkfM9PJzz7iFu/qz8vshanTIEy9R4Ff7X334aquGHMtX30ynfWrViju4/ixbKa+8CyPv/iqhsmUmfWJ+mN/3eXmD/DW81NU3/zbd+nGsKuv0SiROB/1IwDGf1cf5cczyfhtJjnr/6y1z019/QMJjalDaFQMAaHhBIVFEhQeSWBIOMER0QSGRRAYGu5WExGL8nMpyj9OUd5xCnKPUZyfR8Hx7L8/f+LYUXKPZrjE7noOYTJhbDcAU+9RGILP2G2suEBGAJxo++aNDOvZBZtN+RHNZi8v/li3hQZNmmqYrGZKioro3DBB8Ql2BoOBRVt2kdSoscbJHCMtNYWLO7amorxccR9Go5Hvl6ykTcfOGiZzTbVjBOAMPhFxNBj7CHEDRpPxxxfkbV6O3d2Gfy+grKSIrAN7yTqw97yvM5m98A8OwccvAF//QHwDg/DxD8DHL+DkR3/8g0Lw8fPHaDLj7ef/90RFAwZ8A4P+7svs5Y2Xr+/f/11RVoq1srLqP+x2Sov/+SFjqaygsqwMq9VCeUkxpUUFlJcUU1ZSRHlJMeWlxZQXF1NaXPX5kuH9Nt8AACAASURBVMIT2FTu0+22TGaMrS/CdNEoDOGxeqcRQMu27Rlx7VjmfP6Z4j4slZVMevBePv/lDw2T1cxP385SdXxt9z593ebmD/D0QxNU3fwBrrzueo+4+bsKzUcAzlSem0X2il/JXvkr1lLlM2GF0JSPP6Z2fTF2vwJDSOT5XysjAE6Xk32Uvq2bUVSgbl7RJz/8St9LBmmUqmaG9uzCto3rFbd3lzMOABb9/hs3j7hcVR8BQUEs2rKL6Ng4jVK5NlcYAVDespp8wmNJHHoLbSd/QeLQ8fhEyLssoR9DZDymwePxfuhjTINuufDNX+giMjqGuyY+qrofLd6VKrFr2xZVN/+w8AguvnyYhokcx1JZyXP/e0h1P/c88rjH3PxdhcMLgFNMfoHEDRhNm6c+p/mEN4nufhlGmWkvnMHshTG5O+YbJuN191RMXQaDt++F2wld3XzPBOo3bqKqj7TUFD774F2NElXfl9OnqWo/8vob3Wby36fvTWX/3j2q+qjXoCHj7lJ+UJJQxuGPAM7HUlxAzro/Ob7+T4oPnf95uhA1YjAQWL8FpjZ9KG3eHXz8lfcljwB0s+DXn7n1quGq+ggICmLx1t1ExThn9LGkuJguDRNUPb5YsHE7jZo11zCVYxw/lk3fVs0oLDihqp/ps39kwGXqHiG4G1d4BKDr1njmgGBi+4wgts8IynOPkrd1Jbmbl1J0YGetXUEgHMsvth7h7XoT2XkgPhFxpJeUU1peoXcsodDAIUPpPfASli5QPpmvuLCQ155+ihff+1DDZOf2y+yvVd38u17U2y1u/gCvTHpC9c2/R99+HnfzdxUuszeuT3jM38VAWXY6eVtWkL/jL4oO7sSuYjmQqN0MJjNBDVsRmtyVsDY98QmP0TuS0NgTL73GyiWLsJxa9aLA7Jmfcs3N42ndoZOGyc5O7dr/q8eN1yiJY+3Ysok5n89Q1YfJbOapV97QJpCoMZcpAE7nG51A3MCriRt4NZaSQgr2bKRgz0bytq+mskBOhPN05oAQgpu0rbrpt+qOyS9A70jCgRo1a851429nxntTFfdhs9mYMvEBZi9c5tBjxHdv38qW9WsVtw8Lj+DSYeoeeTjLlIkPYFW5fPj62+6kSYuWGiUSNeWSBcDpzP5BhLfrTXi73tSz3UfZ0UMUHthBwZ6NnNi9QZYWegCTjx8BSc0Jadqe4KbtCUhoXHVAj/AYE56YxE/fzCLveI7iPjb8tYpf53zL5aNGa5js32Z9PF1V+xHXjsXH1/UnqP787desXbFMVR+hYeHc8+gTGiUSSrh8AXA6g9GIX1wSfnFJRHe/DLvNSnHaHgpTtlJ0cCdFB3dSWZivd0yhkndIBAFJzQlq0JKgRq3xj2+karKpcH8hoWE88NTTPHnfXar6ef6xh+k/eAj+AdqPGpWVlvLTN7NU9XHVjTdplMZxykpLefmpx1T389DTzxIWHnHhFwqHcasC4EwGo4nA+i0IrN/i78+VH8+k6MBOig7uoihtN6VHDmCrdP46YFE9Rm9f/OMbEpjUjMCkFgQmtcA7LErvWMIFjblpPF999CG7tm1R3EdWRjofvvkqEx5Xdrrj+fwy+xtO5Ocpbt+pRy+aNE/WMJFjvP/aS2QcUnd0d5PmyYy+8WaNEgml3LoAOBufiDh8IuKI6NgfALvNSll2OiXpqZQcSaUkPYWSjFQZKdCBd0gk/vEN8Y9vgH9CI/zjG+IbFS/D+aJaTCYTT778OtcM6q+qn2mvv8LI624goV6SNsFO+vpTdZP/xrjQEcbnkpl+mOlvvqa6nydffh2zudbdftxOrf8XMBhN+MXWwy+2HhH0+/vzluICSo8eoizrEKXZhynNSqPs6CHKc4/KEkQVDEYTPhGx+MbUxS+2Lr7RiVVf/5hETHK6nlCpW+8+DLpiBPN+/F5xH2Wlpbz29JO88cnnmuVK2b2LjWtWK24fHBLKpVeM0CyPo7z81GOUlqg7EGzQFSPo2X+ARomEGrW+ADgXc0Bw1TPmBv+egWq3WijPPUp5TiblxzMpz82q+n1uFhX5OVQW5nl0gWAwGvEKCsM7NBrviBh8T464+ETE4hMZh3doFAaTx35bCSd47IVXWPT7b5SXlSnu45c53zLx6eeok1hXk0xffqRu578rr7seP38Vm1U5QXraQX6Z862qPnx8fXnshVc0SiTUkp/UZzCYzPhGxVcNTZ+F3WqhsiCPivxsKk4cryoKCnKxFOVjKS6gsugEluITWIpOYClRfhKYs5kDQjAHBmMOCMYrIARzYAheQWFVN/uwKLyCI6o+BoVhMCraOFIITSTUS2L8hAd558XnFPdhtVhY/Mc8rr3lNtV5ykpL+XHWl6r6uHqc6z8PXzRvLlaLRVUft97/kOaPXoRyqgqAitwsfCLraJXFLRhMZrzDoqo1Uc1us2ItLcJaVoKlpBBrWQnW0uKqj2XF2CrKsFkqsVWUY7dUYKsox2apwFb5z8511rKS8x6nbDR5YfT5Z9mQ0dsXo8mM0ccXg8kLk7cvBrMZo48fZt+A/7d33+FxVXf+x99TNBqNerO6ZMu9gG2MCxhsbBya1xTT4oUQCD8IgZBsyG4gJJvsbrKhB3bZxCwElgWyEEgDY1pMwKHYVBdcwJZtSS6yZPUZjcq03x+yAYNsS9PuHc3n9TzzjDy695wvPJLmM+eeew5WpwubMx2b04XdlYEtLQObM12z7I8i1N5kdAnyBd/6/s38/rFH2b9vb9htbNu8KSq1vPDH39PeFv76JDPmnJwQ98Jv37olovOLS8u47qYfRKkaiYaIAkDLh69TesbfR6uWYcditfV/sk7PJjVfu1wlquBHbxhdgnyBKz2dm39+O9/7xtfCbqOvLzpLRP/ufx+J6PyvJsDkP4De3vAvuQDc/PPbY3L7pYQvoo99B95eScgf/vKcIqbX4yWw4TWjq5ABnHfpMmbOPTXs80vLKyKuoa2lmQ/WvBX2+ZlZ2Sy+8OKI64iHSOZLnDD7JM67dFkUq5FoiCgA9LY20vjmc9GqRcR0Am//GRJoLkcysVgs/PMdd2MN8/LVrFPCDw+HbFq3LqLlcC9YdpnpJ/8dMvuU+WGdZ7Va+Zd77ovpEswSnogv/O5d+Sg9TXuiUYuIqYQa6wi89Wejy5CjOO6EE7nw8iuGfN6YCROZdcq8iPuPdCe8r34jMYb/AWafOo/R4ycM+bwLL7+C4044MQYVSaQiDgCB3m52PH77YRPXRBJejxf/03f1b9otpvaj2++mclT1oI+3Wq386y/vj8on0ryCgrDPnTZzNhOPmxpxDfFy6P/bUEZcKkdV86Pb745hVRKJqEz97qr7mJr/+dlRZ6uLJAy/D9+TvyDUHP4Mc4mf7Jxclj/5DHkFx74zx2q18m/3/Rcnn7YgKn0fN31G2Jv3JMrkv8+bu2Ah/3rv4MJTfuEIlj/5DNk5uXGoTMIRtXu/2jetYedjtxMKRHafqIih+nrwP3U7odrNRlciQzDp+GmsXPsB8xadccRjqkaP4X+fjc69/4ekZ2ay8OzFQz6vYEQR517y1ajVEU+XX3Mdjz33ElWjxxzxmHmLzmDl2g+YdPy0OFYmQ2UB/EDUVnbJGjedsVf/i/ZoF1PY4+2luXdwl6dCnnb8//fvhPbWRK3/vIJCPqjfH7X25Ni2b93Cy8/+idqdNfT29FBeNZKT5i/glIWLwp4weDQ7PvmYxSfNGNLKhP9+/3L+/upro15LPAWDQd786yrWrH6NPXW1pDqdjKwew1nnL2XMhIlGl2d6fh8EfJFfhppQEP7PdNQDAEBqXjGjr/oRGVX6IRBjDTYAhOo24//9vYQ6W6LavwJAcnj2d09y09VXEAwGj3nsJV+/ijuWR7ZxkCQ+MwSAmCz/1tu6n63/cRP7X/s9oUH8QogYJuAn8NpT+B79adTf/CV5nHfpMh7+4woKi4qPeEyq08n3f/ozbv/1Q3GsTOTIYjIC8HnpleMZtewmXGWjY9WFyBEdbQQgtPtj/M8tJ9RUH7P+NQKQXLq9Xp55/FFee3Elu2q209PdTcWoauYuWMglV1wVtc2HJPGZYQQg5gGgvxcLBScuouK8a0jJyotpVyKfN1AACHW2EFj9NMEP/hLznR0VAERkIGYIAPHZDTAUovm9v9C28U2K5p1P0fwLFAQk7kIdBwiuWUHgvZd0f7+IJL34jAB8sVObnfwTFlByxjLSijQkJrGzx9vLgfrtBN76M8FNb0AEy7aGQyMAIjIQM4wAGBIAPuvdQu7xcylZeAkZoyYZUoIMU6EQndvXs+uVp+jd/mHMh/qPRAFARAZihgAQn0sARxIK0bbhTdo2vElaUSV5J5xGwewzSM078kxakaPpaztAywevcmDNi/Qc0Ep+IiJHYuwIwEAsFjJGTaJg1hnkz1iILTXN6IrE5AI9Xto2vkXze3+hc9s6wz7tD0QjACIyEDOMAJgvAHyOzekie9IscqecRPakWdhdmUaXJCbhc7fRvvkd2jetpWPrewR9vUaXNCAFABEZiALAEFisVlxlY8iZMoecKXNIrxhndEkSZ70tDbR9tIb2zWtxb9+QEJtPKQCIyEAUACLgLCwja9x0MsdOJWvMVN1WOAz1tTXRuX0D7poNdG5bR29ro9ElDZkCgIgMRAEgipxFFWSNmUrmmOPJGjtNgSAB9bUdoLNmPe7tG+jcvoHelgajS4qYAoCIDCThA4DFYiUUMuda/47cEWRUjSe9YjzpVeNJrxinHQpNxN/VSVf9NrrqP/n00ddhzrX4bSkOAr7B7Sj4RQoAIjIQMwSAiG4D/Pb9T/L8f9/Jro8+iKSZmOhra6K1rYnW9W/0v2Cx4CwsJ71yHK7y0bhKqkkrqcKRU2hsoUmgt3U/3Q11dDfsomtPDV11nyTEp3uLxcqE0xYz9Zyv8tQ/XWZ0OSIiURVRACgbO5Fv/fIxNqx+iRceuoe2xn3Rqiv6QiF6mnbT07Sblvdf/fRlW1oGaSVVuEpGkVYykrSSkTgLynDkFIAl8nSWNEIhetsa6T2wD2/Drv43/H276N5fR6DXa3R1Q1Y+5UTmXvFdCkeNp7uzzehyRESiLioLAU2dfxaT5pzG2889yeqnH8HT3hqNZuMi0O3Bs3Mznp2bD3vdmuIgtaAUZ0EpqYVl/c8FpaTmF+PIKcSa4jCoYuME+3rpa2uit3U/Pc376D2wj54De/q/btlPaBisrz+iegKzLrmWkTNOMboUEZGYitpKgCmpTuZffBUnLfkqa557ktef/h+6OhInCHxR0NdHd0Mt3Q21A34/JTOHlOwCHDmFpOYV4cgpwJFdgD0jm5SsvP7njBwsNmMXWxyMkN+Hz9OOz92O392Gz9NBX/uBzx6tTfR1NOPv6jS61JgpGjuFmRddzcgT5hpdiohIXET93cnhTGP+Jd/gpHOXsWbFU7z5p8fpOJB4t28di8/d/4bp3VNz1ONsaRmkZOZiz8jC7szAlpbe/3CmY3dlYHOmY3U4saY4sNjs/SsfWixhTVgMeD39zz1eQsEAQV8vwd4e/D1dBLq7CHjdn33d04Xf04Gvsy0hh+ijpXTSdE684Eoqp51kdCkiInEVs4+nDmca8y++inkXfZ2t7/yN15/6DbWb18WqO9MKdHsIdHugyehK5BCbPYVRM+cx7e8uo3jcFKPLERExRMzHpy0WK5PmnMakOadRv3UDb/35t3z05ir8feZculWGr/S8QqaccSFTFl1AWnau0eUYIhQK0dnRbnQZIgktKzsHyzCYJB7XC9SVE6dSOXEqF3S52fD6S6xd+TR7t2+JZwmSZGz2FCqmzmbC/MVUzzoNqy3h17wasn2763nioQdYtXIFtTtq8PWFt6aBiPRLcTgYOXoMixYv4fJrrqO0otLoksIS0UJAt7+8Eas1sj+oe7Zv5v2X/8xHb7yCu7U5orZEDikbM5EZZ5zPqLlnEHBEtgBUd2cbD199ZljnGr0Q0OMPLue2W39Atzd553mIxFKay8Wtt93F5ddcN6TzEn4hoGgoHzuZ8rGTOe+GH1K3eT0b//Yy619/EU+bOVeFE/MqqhrN8fPOZOqCcxhRMQqA1u5ePL1+gyszxsP338fPb/6+0WWIDGvdXi///N0b8PX1cdUN3zG6nCExfARgIMFAgB3r32HzmtfYunY1bY17o96HJD6LxUr5uElMnns6x887k4Kyqi8dE40AkIgjAB9v2siSubPw+xJ/bQaRRJDicPD8mvcZN3HyoI7XCMARWG02xs44mbEzTub8b/+I/bu2sXXtara88zq7t35EMAG2gZXYcKZnMm7GyUyYPY8Js+aRkaNNnway/O479OYvEke+vj6W330H9z78mNGlDJopA8AXFY8aR/GocSxYdg3dnk52bniP7evWsmP9OzTW7TC6PIkhm91OxfjjGD1tNmOmz2Hk5OnY7AnxY2sYv9/PX196wegyRJLOX55/Dr/Phz0lxehSBiXh/pKmZWQxee7pTJ57OgCdrQeoWbeW2k0fUrt5PY21NabdoVCOzWa3UzZ2MtXHn8iYabMZOeUEHM40o8tKKPU7d+DpHL6rNoqYVZfbzZ66WkaOGWt0KYOScAHgi7LyCjnh9CWccPoSAHq63NRt2UDdlvXUbVnPnm2b6fboj6FZZRcUUTnxeKomTaNy4lTKx07C7kg1uqyE5nHr513EKO4E+v1L+ADwRc70TMbPPIXxMz/bzKW1YQ97t29hb81W9tZsYe/2LQm1YdFwkVdcTunoCZSOmUBJ9XjKxk4ip7DY6LKGnexczYsQMUpuXr7RJQzasAsAA8krKSevpJzj5p3x6Wue9lYaa2torN/B/l3baarfyf7a7Xg7tUpapLILihhRWU1hxSiKKqspGjmGkuoJpGVkGl1aUqgYOYq8gkJamw8YXYpIUskvHEFZ5ZfvRjKrpAgAA8nIySNj2ixGT5t12OveznZa9u2meV89Lft207KvnuZ9dbQ17MXd1kwoFDKoYvOwWKxkF4wgr7j803CVV1JOYdlICitH4XRlGF1iUrNarSxeehGPP7jc6FJEksqSiy9NqCWCkzYAHIkrKwdXVg4VE4770vcCfh8dBxppb95Pe1MDHU376WhupKOlia72Vro62uhsPUCvt8uAyqPD4UzDlZVDdkERmXkF5BQWk5U/gqz8QrILS8jKLySvuAybPTFmuSarb970T/zpqd9qMqBInGRmZfPN7/2j0WUMSUQBoG3/PvJLK6JVi+nZ7Cmffto9Gn9fL56ONrraW/G6O+jxuPF6OunxdB58dtPr7cLv66Ony03A76PX68XX14OvrxdCHDZxMRDw09d9+FKudkcqKV+YLJfqSsdqs+FwurDbU7A7HKSkOkl1pfc/0vqf09IzcaZnkupKJz07l4ycPNKzcnFlZZOS6oze/7Bhwt3UYHQJQ1ZWWcWdDzzMjVcsI+BPzpUQReLFnpLCXQ8+QnHZ0d8bzCaiALBh9YssXHZttGoZNuyOVHIKizXBbZjY9tYrRpcQlrPPX8ojf1zBLddfS8Oe3UaXIzIslVZUcvuvHuTURV8xupQhiygAvLPyGeZddCX2FEe06hExlT6vh49XrzS6jLDNW3QGq9ZtZuUfnuHVF1awc/s2mhoSb0RDxExGlJRQPXYcixafy+ILLybN5TK6pLBEtBcAwJJv3cypS6+IXkUiURTpXgDvPPUA7/3hkbDPN3o3QBExJzPsBRD+mQe9/Oj9HNhTG2kzIqbTUl/Dh889YXQZIiIxEXEA6Ov28tQdt+Dv641GPSKm0Of18NI9PyTg6zO6FBGRmIg4AADs/vgjnvjZTQQD2qVPEl/A18fKO/6Rtn11RpciIhIzUQkAAFvWvs5Td9xCwK8tSCVx+Xq7eeGuH7B3y4dGlyIiElNRCwAA6197gYdvvY6eLnc0mxWJC29HK3/6l29Rt+5to0sREYm5qAYAgJp1a7n3mxdS//HGaDctEjP7tqzjdz/4Gk01W4wuRUQkLqIeAADaGvfywE1f52+//1+CQc0LEPMK+H28+/RD/PnfrqerVZvniEjyiHgdgGOpGD+Fi276N0qqx8eqC5EjOto6AA2fbOS1//4Frbt3xqx/rQMgIgMxwzoAMQ8A0L973PTT/45zrrmJrLzCWHYlcpiBAoCnpYn3fv8wW159llAoGNP+FQBEZCBJEwAOcaS5mHv+ZZxy/uVk5hXEo0tJcp8PAO7m/ax//kk2vfKHuN3frwAgIgNJugBwiM2ewtTTzmbhsmsYUVkdz64lybR291K3/WM+fPYJtr/1CsFAfHfGUwAQkYEkbQD4tHOLlclzFzL/4quomjTNiBJkmAqFQuzY8C6rnvwNO9etgVDIkDoUAERkIEkfAD5vRGU1U+efxYlnnk9uUZnR5UiCaj+wn/V/Xcm7L/6B5r3Gr+SnACAiA1EAGIDFYqVq0lRmfOU8pi9cjCMtMbdZlPjp8XrY/NarfLhqBTXr1hIy6NP+QBQARGQgCgDH4HRlMH7WqUyacxrjZ52KKzPb6JLEJDxtLWx9ZzVb167mk/ffxNfbY3RJA1IAEJGBKAAMgdVqo3T0BCbOmc/Ek06jfOxko0uSOGtt2MOWta+xde1qdmx4NyE2n1IAEJGBKABEoKCsijHTZ1N9/Eyqp87U+gLDUHtTAzs2vMuODe+xY/07tDXuM7qkITNbAAiFQnR2tBtdhkhCy8rOwWKJ7M1bASCKRlSMonrqTAWCBNZ+YD87N7xLzfp32bnxPVob9hhdUsTMEAD27a7niYceYNXKFdTuqMHXF581EESGqxSHg5Gjx7Bo8RIuv+Y6Sisqh9xG4gcAi8Ww26uOJWdECRXjp1A+bsrB58k40zONLksO8na2s2fbZnZ/8tHB5010tjQZXdbA7Cn9v61hMDoAPP7gcm679Qd0e72G1SAynKW5XNx6211cfs11Qzov4QPA5H/8FfV/egD3jo/CLiBeLBYLBeUjKR83mdLREygZNY6iqjFkFxYZXdqw19a4l/21NTTW1rC3Ziu7P/koMT7dWyxYpy3ENufv8C3/XlhNGBkAHr7/Pn5+8/cN6Vsk2fzkrnu56obvDPr4hA8AM+97BYvVSuu61ex+9kF6WxvDLsQoaRmZFFWNoXjUWIpHjqWoagz5ZZVkFxRFfI0nmYRCQdqbGmjeW8/+2u001u5g/65tNNbvoNfbZXR5Q2YddRy2M6/EUlINXZ303fn1sNoxKgB8vGkjS+bOwu8Lb+RCRIYmxeHg+TXvM27i4CaomyEA2CPuHcibPp+cKXNofONZ9r/6ND534kwy6va4qd28jtrN6w573e5IJb+0goLSSvJLKykoqyS/pILc4jJyCouxO1INqtg4vt4e2poaaNu/l5aG3bTsrad5bx0t++pp3b8Xf5zW148lS+kYbAsuxTruRKNLicjyu+/Qm79IHPn6+lh+9x3c+/BjRpcyaFEJAADWlFRKFl5C0Snn0vjGczS8+jv8no5oNR93/r5eGg8OWw8kIyeP7IIisguKyCkqJaewmKyCEaRn5ZKVX4grK4eMnDxs9pQ4Vz50fl8fXe1teNpbcLe10NXRSkdzIx0HGmk/0EB7UwMdzU14OxMn2A2VpXwctvmXYB03w+hSIub3+/nrSy8YXYZI0vnL88/h9/mwp5j/7z5EMQAcYnU4KTn9EopOPZfGN5+j8fU/0dd+INrdGM7T3oqnvZW9NVuPelxaRiYZuQWkZ+XgTM/EmZ7x6bMrMxtnegYpqU5SUp3YbHYcaS4sFgvOjKFPWOx2dwLQ6+0iGAzg6+mhr8dLT5eH7i433Z5Oero89HS56eny0NXRhrutOSGH6KPFMnIytlMvxDpmutGlRE39zh14OjuNLkMk6XS53eypq2XkmLFGlzIoUQ8Ah1gdTkoWXkLJgotp37yWfauewrNzc6y6M61uj5tuj5vhF4ESmD0F6/iZ2E4+D0v5OKOriTqPW2/+IkZxJ9DvX8wCwKcsFnKmnETOlJPw1G6l8W9/om3DmwSHwfViSSyWrHysM8/CNuMMSM8yupyYyc7NM7oEkaSVm5dvdAmDFvsA8DkZIyeSMXIige4uWta9zoG3nqdr9/Z4liBJxmKzYxk9Deu0BVgnzgZrwq95dUwVI0eRV1BIa7PGnUTiKb9wBGWVVUaXMWhxDQCH2NLSGXHyYkacvJiu3dtofucVWtf/DV9nqxHlyDCUXjGWgtln0jvpFFptyXXHhtVqZfHSi3j8weVGlyKSVJZcfGlC3T4elXUAoiIUwr1rM63rVtP64ev43G3RaVeSRlpxFXnT55N/wgKcRRUA7PH20twb4eWmBFwHYG99HWfNmqbJgCJxkpmVzSsfbKS4rHxQxw+bdQCiwmIhs3oKmdVTqLzgOjq3rad90xraN62lt9U8m6mIiVgspFeOJ/f4ueRNm4ezsMzoikyjrLKKOx94mBuvWEbA7ze6HJFhzZ6Swl0PPjLoN3+zME8A+ByL1Ub2hBlkT5hB1UXfxrtvF+2b19K+aS1ddVsJBYNGlygGsaVlkD1hBjmTZ5M9cRYpmTlGl2RaZ5+/lEf+uIJbrr+Whj27jS5HZFgqrajk9l89yKmLvmJ0KUNmygDwRa7SUbhKR1H6lWX4vW7cNRvp3LaOzm3r6N5fZ3R5EkMWm52MqglkjptG9rgTyKiejCUJJvJFy7xFZ7Bq3WZW/uEZXn1hBTu3b6OpocHoskQS2oiSEqrHjmPR4nNZfOHFpLlcRpcUFvPMAQiTr7OVzk8+xL1zE55dm/E21Jp2h0I5NovNTnrFWDLHTiVr7DQyq6dgdTjDbi9Z5wCIiLlpDkAUpGTlkT9zEfkzFwEQ6O7CU7sFz64tuHdtxrt7O36v2+Aq5UgcOYX9t4eOmkTGyIm4ysdiTXEYXZaIyLCX8AHgi2xp6WRPnEn2xJmfvtbb0kDX7u1499QcfN6eUBsWDRepkAS+YQAAE2xJREFU+SW4ykeTXjYGV/loXOVjcOQUGl2WiEhSGnYBYCCp+SWk5peQN23ep6/5PR14G3bRs7++/7mxHu++WvxdibuBkVk4cgtxjqggraiStOIq0oqrcJWNxpaWbnRpIiJyUFIEgIHYM7LJGjuNrLHTDnvd73XT27yPngN76W1uoOfAXnqa+7/2uds0vwCwWK2kZBeQml+Ms6CU1LxiUgtKcI4ox1lUgS01MSfEiIgkk6QNAEdid2VirxxPeuX4L30vFPDT19FMX9sB+lob6Wtv7v93ezN+Tzs+Twe+zhYCPV4DKo8OW2oa9vRsUrLzcWTnkZJdgCO7AEd2Po7cEaRk55OaV4TFph8dEZFEFtFf8aCvF1tqWrRqMT2Lzd7/aTevGEYfd8TjQn4fPk87Pnc7gW4Pfq+HQLcbf7eHgNeDv9tDsLeboK+PQI+XUMBPoLuLoL+PYF8vQH+ICPWvdxAKhQh0ew7rw5aW8aUlJ23OdLBYsDldWKw2rI5ULPYU7GnpWFNd2FLTsDnTsTnTsLkysaWmkZKRgz0jG3t6Fvb0bE3AG0DI3xv2uY7U5FqGWEQShx0IEuZtgD1Nu0mvGH7bqUbKYk/BkVOoCW7DROjAnrDPzS/Qz4CImJMVCHvWW9v6N6JYiog5BbesCfvcvMKCKFYiIhI9VmBfuCc3vfW8Zs3LsBZqbyK44fWwzx9RXBK9YkREosgKvB/uyX6vm9qn/1Mz42V4CgYJPPvr/iW7wjRjzslRLEhEJHqsQPjjm0DrutXseeHR6FQjYiKBlx4muHNDRG3MPmXesQ8SETGAFXgr0kb2vfxbmt5cEYVyRMwhsPppAu+8EFEbRSWlVI/78u2kIiJmYAW2Ah9F2lDtM//J7ud+o8sBktiCQQJ/eZzAX5+MuKmll30tCgWJiMTGoW2EHoy4pVCIhlVPUfM/PyPY1xNxcyJx19uN/8nbCLz5x4ibstlsLPvGNVEoSkQkNg4FgMeBrmg02Lr+b2z55Y101W+LRnMiEQkxuBGpUN1mfA98n+C2sOfEHmbh2YupGDkqKm2JiMTC55eS+xnw46g1bLUx4tRzqVhydUT7uYtEYoenG7fPf+QDer0E/vp//df7o3T5yma3s+Ktd5l43NSotCciw4/fBwGf5dgHHsOEAuuxDzqCz/fuAjYDIyOs5zDOwjKqLryB7EmzotmsyKBs7eyiNxD88jdCIYJb1hB46RFCnS1R7fPqG/+BH99xT1TbjJZQKERnh7bCFolEVnbOl5ZiHyqzBQCA84E/RVTNEWSOPp6Kc68mY9TkWDQv8iW+YIjNHZ4vvR7csYHAqicI7auJep9FJaWsWreZjKysqLcdrn2763nioQdYtXIFtTtq8PX1GV2SSEJLcTgYOXoMixYv4fJrrqO0onLIbZgxAAD8Brg67BaPIWfKSZQvvhJX2ehYdSECQHNvH3u8n23kE9qzjcCqJwjuivimlwHZ7HaeeP5l5sw7LSbth+PxB5dz260/oNubuDtUiphZmsvFrbfdxeXXXDek88waAFKAV4FTw251EDKqJ1M8fym5U0/FYg3/P0DkSLa7vXT5/AS3vU9w7cqIF/U5lp/efR9XXn9jTPsYiofvv4+f3/x9o8sQSQo/ueterrrhO4M+3qwBAKAUeO/gc0w5iyoonr+UgllnYHVo61SJjrbODna+8TzBd18g1NYY8/4uvPwK7n7wf2Lez2Bt/WgD554yG78v/GWMRWTwUhwOnl/zPuMmDu4yt5kDAMAE4K9AXHYzsbsyyTvhNApmfoWMUZPi0aUMN6EQnTUbaX73FVrWrSYUp/Uozll6Ef/x6G+x2+1x6W8wvnvlZTz39FNGlyGSVM5fdhn3PvzYoI41ewAAGEt/CCgPu4cwOEeUkz9jIQWzvkJqvnZTk6Pra2ui5YO/0vT2C/Q2h725ZVjOvuBC/vPR32JPSYlrv0fj9/uZXl6Ip7PT6FJEkkp6Zibr9xwY1N+DRAgAAGOAFw8+x5fFQubo48g9fi65x80lNb847iWIOfU07aZt49u0ffQWntqthixBvfSyr3HH8t+Y6pM/wM5tn3D6NI2iiRjhtY0fM3LM2GMeZ4YAMJi/XDXADPpXCzw37J7CEQrhrtmIu2Yj9X9cTlpxFTlTTiJnyhwyR02GCO/DlAQSCtG1Zzvtm9bSvmktXbuNW2nSYrHwnVv/me/e+pOI7wWOBY9bn/xFjOJOoN+/wX506QSWAr8A/onBjRxEXff+Orr319Gw6ikcuYVkj59B1rjpZI2bTkpWnhElSQz1tjbi3r6ezm3r6fj4fXzuNqNLIjMrm/sefYKFZ51jdClHlJ2r3wURo+Tm5RtdwqCF80a+mP7Ng2J+h8BQpBVVfhoGMsccjz3dPAuxyOD43G10bl9P57Z1dG5bH/fr+ccyY87J3PObR6mqNvcaFsFgkJkjS2ltPmB0KSJJJb9wBO/V7hvUyGCiXAL4opXAJOBO4Nqwe46y7sZ6uhvraXzjWQBS80vIrJ6Cq2Is6ZXjyKgcj8VunolayS4UDNDTuBv3rs14dmyia/c2uhvrTbmdtM1u59s338qNt/wYm81mdDnHZLVaWbz0Ih5/cLnRpYgklSUXX2rKy4JHEmml5wL3Aabf9sya4sBVPpaMqgmkV44nrXQkaUWVWGzmmsA1HAV9ff2Xbxpq6ar/BE/dx3j31BAKHGWTHpM47oQTue1XDzB56nSjSxmSvfV1nDVrmu4EEImTzKxsXvlgI8Vlg7tpzgwjANGIKg7gW8C/AQk17m6x2nDkjiCtpIq04pGkFVeRVlKFq2SURgvCEAoG6Gtroruh9uAbfh1du7fR07SbUHCADXlMLDcvnxt/+GOuuO6GhPjUP5AX//xHbrxiGQG/+YOWSCKzp6TwX48/xZnnnj/oc4ZLADikmP4tha8kvEsLpmGx2UnNLyE1v/jg4/Cv7a5Mo0s0jN/TQW9LA70t++lt3d//3LK//7XWxoT4VH80KQ4HV3zzer77o5+QmZVtdDkR+9uqV7jl+mtp2LPb6FJEhqXSikru+PVDnHL6oiGdN9wCwCHVwA+Br9O/r8CwY0tLJzW3CEdOIfaMbFKy80jJzCMlIwdHTkH/a1l5CRUU/J4OfO62/kdnKz53O77OloOvtdPXfoC+1kYCvd1GlxoTKQ4HF3/tSm74wQ/D2tnLzLq9Xlb+4RlefWEFO7dto7HBXJMrRRJNUUkp1ePGsWjxuZyz9CLSXK4htzFcA8AhVcAt9I8IOGPYj2lZbHbs6VnYnC5sqS5sroz+Z2catlQXVmca9rQMbM50sFqxO9M/XdvAYrNhS/3sh8rqSD3sskTI10fQ99m2roEeL6FgoP97oSCBHi8EAgR6vfi9HgK9XoI93QR6vQR6vAS6uwj0dBHo7cbf1Znwn9zDZU9J4cLLruDGW35EWWWV0eWISJIY7gHgkGz6Q8D36A8FIobLzMrmwsuv4Np/+D4l5RVGlyMiSSZZAsAhduB84AZgfpz7FgFg7MRJXHXDd7hg2eU409KMLkdEklSyBYDPKwcuA/4fRuwxIEnFmZbGwrMX8/ffuJaTFyxMqPt0RWR4SuYA8Pn+5wGX0z86UGBsOTJcWK1WTjz5FC7+2pWcs/QiXOnpRpckIvIpBYDD2YCTgIsPPrQPsAyJ1WrlhNkncc7Sizhn6UUUlZhqtWoRkU8pAByZDTgZOAc4G5hqbDliVqlOJ7NPmcfpi5dw1nkXMKJYuVFEzE8BYPDK6A8CZwMLgFxjyxEjFZeVs+DMs1lw1jnMXXC6hvdFJOEoAITHSv+IwGn0h4F59N9qKMNUbl4+s0+dx0nzFzBn/mmMmzjZ6JJERCKiABAdNuB4+i8ZzDn40J0FCay4rJwTZs/hxJPmMmfefMZPPg6rNfwfchERs1EAiJ0RwGxgJjD94KPM0IrkiEaPn8CCM8/mhNknMX3W7EHvpiUikqgUAOJrBJ+FgeOAiQcfSblMsZn89O77uPL6G40uQ0QkbswQABJ6174hagJePvg4xEb/5kWTgUn0XzqoPvgoo3++gYiIyLCTTAFgIAFg+8HHn7/wPQf9exccCgSjDj4OfZ3sdyK0AB8ffGwDFgJnGlqRiIgMWrIHgKPp47NwMJBc+kcJRgDFQOHBr0sOfl34ua8TadH5AND8uUcTsA/YBdQdfNQCbV84rwwFABGRhKEAEL42vvwmeCQZ9IeBXCALyATSAdfB11wH/5158PuHvpdzhPbSOPLcBS/QC3TRH2I8gA9wA36gk/43+Y6D9Tdy+Bv+gUH+N4mISAJTAIgPD0ceSUh6Pd3ddLQPNkuZg9OZRqpT80dFJHEl010AElv/AXzH6CLiKSc3j6LSMuYuWMgZS85j1inzTL/TYDAYxN3ZYXQZIgktMys74rVJzHAXgLn/WkkiSboA8EVTT5zFLT+/jTnzTjO6lMPsra/jiYceYNXKFdTt3IGvr8/okkQSWorDQVX1aBYtXsLXrv0WpRWVQ25DAUCGk6QPAIdcef2N/POdvzTF6oWP/fevue3WH9DT3W10KSLDUprLxQ9/cSdfu/ZbQzrPDAHA+L9QIsPMo7++n3+46nKCwaChdTx8/3389Hs36s1fJIa6vV5+8g/f5pH/+g+jSxkyBQCRGFjxzO+49+f/Ylj/Wz/awO0/vsWw/kWSzW0/upltWzYZXcaQKACIxMiv7vgFH6x925C+l999B36fz5C+RZKR3+dj+T13Gl3GkCgAiMRIKBTi32/5J0KhUFz79fv9vPbyi3HtU0TgL88/l1DBWwFAoiVgdAFmtO7dtWz84L249lm/cweezs649iki0OV2s6eu1ugyBk0BQKKlwegCzOovzz8X1/48br35ixjFnUC/fwoAEi3vGl2AWb39+mtx7S87Ny+u/YnIZ3Lz8o0uYdAUACRa3gLqjS7CjPbv2xvX/ipGjiKvoDCufYoI5BeOoKyyyugyBk0BQKLFD9xqdBFmdKBxf1z7s1qtLF56UVz7FBFYcvGlpl8O/PMSp1JJFL8Crje6CLPZ5Y3vHMm99XWcNWuaJgOKxElWdg4vf7CR4tKyQR2vlQBlOLoR+F+ji0h2ZZVV3PnAw9js2vBTJNbsKSnc9eAjg37zNwuNAEgsWIFHgK9Hu+Gs7BwwaIitM4Iti+M9AnDI31a9wi3XX0vDnt2G9C8y3JVWVHLHrx/ilNMXDek8M4wAKABIrMQkBFxyxbX86z3LDbnONrHQFvaiPkYFAOhfq3zlH57h1RdWsHPbNhob9hlWi8hwUFRSSvW4cSxafC7nLL2INJdryG0oAMhwN6xCQKIGABExHzMEAM0BkFgKAt8gynMCnn7sQX76/W/FfYldEZHhRAFAYk0hQETEhBQAJB4UAkRETEYBQOJFIUBExEQUACSeFAJERExCAUDiTSFARMQEFADECAoBIiIGUwAQoygEiIgYSAFAjKQQICJiEAUAMZpCgIiIARQAxAwUAkRE4kwBQMxCIUBEJI4UAMRMFAJEROJEAUDMRiFARCQOFADEjBQCRERiTAFAzEohQEQkhhQAxMwUAkREYkQBQMxOIUBEJAYUACQRKASIiESZAoAkCoUAEZEoUgCQRKIQICISJQoAkmgUAkREokABQBKRQoCISIQUACRRKQSIiERAAUASmUKAiEiYFAAk0SkEiIiEQQFAhgOFABGRIbIbXYBIlBwKAQBfj1ajTz/2IAD/es/yaDUpImIKCgAynMQsBKQ4HNFqTkTEFCxGFyASA1bgEaIYAiK1yxswugQRMRG/DwK+yN+CJxSEfyVfcwBkOIrJnAARkeFEAUCGK4UAETGtaAy/e7s8kZzepwAgw5lCgIiYUjRuLtq/b08kp7sVAGS4UwgQEdMJBSNv4503X4vk9FYFAEkGCgEiYiqhUOQXAZ575reRnL5dAUCShUKAiJhCKBj5JYBXX3yWde++HUkTHysASDJRCBARwwUDkX3637e7jp9875uRlvGWAoAkG4UAETFMCAhEsCzIti0fccX5C2lpboqkjCCwWisBSjKKyYqBIiLHEvJbwpoA2NnexiO//iWPLr+Xnm5vpGW8AbQoAEiyimsIeOCeO2PdhYgkgICvfxRgMIKBAM0HmtjxyRbefXs1fp8vWmU8AVoKWMR0ywaLiMRQG1CF1gEQ0ZwAEUkq/wm4QSMAIodoJEBEhrsmYDzQDmAzthYR0wgBzwEjgWnGliIiEhM3AO8c+odGAEQOp5EAERmOXgD+js/NQdQIgMjhNBIgIsPNHuAs4LD7BxUARL5MIUBEhotO4Exg5xe/oQAgMjCFABFJdF7gPGDNQN9UABA5MoUAEUlUbcBiYPWRDlAAEDk6hQARSTQb6B/2X3e0gxQARI5NIUBEEkEA+BXwVaDxWAcrAIgMjkKAiJjZ28CF9N/G7B/MCVoKWGTwDi0b/CujCxERof9v0ivAImAu8MFQTtZCQCLhuRT4BVBtdCEiklS6gDfpf+P/HbA33IYUAETCZwVmAzOBInRJTUSirxPwALuBj4EaIGr7AouIiIiIiIiIiIiIiIiIiIiIiIiIiIiIiIiIiIiIiIiIiIiIiIiIiIiIiIiIiIiIiIiIiIiIiIiIiIiIiIiIiIiIiIiIiIiIiIiIiIiIiIgMR/8f4soYcK4ickAAAAAASUVORK5CYII=;" vertex="1" parent="1">
          <mxGeometry x="789" y="296.5" width="67" height="67" as="geometry" />
        </mxCell>
        <mxCell id="YaeXBy9BYN40PlVeFBTf-47" value="" style="shape=image;aspect=fixed;image=data:image/png,iVBORw0KGgoAAAANSUhEUgAAAgAAAAIACAYAAAD0eNT6AAAABHNCSVQICAgIfAhkiAAAAAlwSFlzAAAOxAAADsQBlSsOGwAAABl0RVh0U29mdHdhcmUAd3d3Lmlua3NjYXBlLm9yZ5vuPBoAACAASURBVHic7N15fFT1vT/+1/ucmSRkYUlm5oQkQJRkBo1QFW6torjhQlWst6VS3KqXtnbRLra2395udvtda61t7e2+uFfRusGta4sbilyoWxEyCQoKIbMkBLKQZOac9++PQC+lLEk+nzNnzuT9fDz6x/WReX/eCefO+30+53w+H0AIIYQQQgghhBBCCCGEEEIIIYQQQgghhBBCCCGEEEIIIYQQQgghhBD5grxOQEV1dUPYcXAcMcUYNIMYURAsAGUAJoFQBgBg9ALYAaAXjAQTmgnczMTNhoFX2ttbUx7+GkIIIUTO+aoBqKurG5fpL5kPojMAOgPATKj/DgzgdYBXgvGXceWZpzdv3tyvnq0QQgiRv3zRAEwOzZjtEF8O8CUAqlwebicxHmUTdyQS8b9gqEEQQgghCkreNgANDQ3Fu7roo0T0JQDTPUqjFYybKiY6t7e2tg54lIMQQgihXd41AEPT/KVXg3AdgFqv89ljG0A3BYt7f71169bdXicjhBBCqMqrBsAKNZ4Pop8COMLrXA7iLQKuaU/F/+x1IkIIIYSKvGgAaiqnT7EN86cgfMDrXIbpoYDtXLuts3Wr14kIIYQQo+F5A2CFYgth8B/AqPQ6lxHaSaCl7anmB7xORAghhBgpzxqAJjQVpcODNwL0WS/zUMREuKU9WfEVYF3G62SEEELkVmVlw/gi0ziZgXlgzAFhGoZWq00AIQtGLwEpgN9mYANAq2HYKxOJTUmvc/ek8E6dMHPSYNHAowyc7MX4ujHw3GBm8MKurs1dXucihBDCXfX19SX9vUUXM/BxACcAMEcYgsFYQ4Q7AwPBP27dtb7ThTQPK+cNQCgUqzHJeQKgY3I9tstet5kWpNPNbV4nIoQQQr+68U2VmeLM9QD+A0BIU9geIvw665g/TKc3bNcUc1hy2gCEw9MbDJhPAajP5bg5tNmBfVYqtanV60SEEEJoQ5FI9DJi3AQg4tIYPcz4VjJd8dNcPVLOWQMwdOfPq1C4xX+vt2025+a6kxNCCKFfVVW0NmDgTgCn52jIdUzOxclk6ya3BzLcHgAYeuZvEj+Owi/+AHCESfbjEyfWT/Q6ESGEEKM3OTRjdsDAGuSu+APAbGJjnRVquMDtgVxvAJrQVDRYNPAohg7uGStmFQeLHwZmB71ORAghxMhFItGLHHKeBVDjwfATQMaDVjh2lZuDjPTNxREzwhN/CNCH3R4nD9VXlGbG9fR1POV1IkIIIYYvEplxDjE/BKDEwzQMAAvLy0Lv9vZ1vOLGAK6+A2BZsQvh8ENujxOcUImKY45FWcPRKKmdiuLIZAQrJsIoGfq3c/r7kenuwkByO/q3bUFvy5vY9fdXkd21w820AIDBvDCRblnh9kBCCCHUhcONxxqg5wBUeJ3LHlkwX+RGHXGtMNdUTp9im+ZrACa5Ed8sr0DV3Pmomnc2yhpmjDwAM3o3bUT6uSfRueovsHu69Sc5pCPr4D0dHfFtbg0ghBBCXTjcVG0gsw7eTPsfyk4YOD6RiL+lM6hrDYAVij7kxt7+RZOqYF2wGOH558Mo1jM7Y/fvRurpFUisuBeZHfr3Y2DwA8lUyyLtgYUQQmhjhaPLAOTrd/XaRKrmROCZrK6ArjQA4XDsXAP8mM6YZJoIn/0B1F58FcxxpTpD/4Mz2I/2R+/F9ofuBme1/Y0BAAScJ6cICiFEfqoONZ7HRPn9uJbxhUQ6fouucNobgLq6unGZgdL10Hikb8nkWhz52W+i9IhGXSEPqe+tODb9+AYMJHRu6sct48oyszZv3tyvMagQQghFljWrDE5/M4Bar3M5jG4HwWgqtb5dRzDtqwDGFVVfA8JiXfEmzpmLxq/eiOJwta6QhxWcVIXQqeeif+tm9G9/V1NUqrIzZqKnr2ONpoBCCCE0qCid8HFAX91yUTGYuVfT6jKtMwANDQ3F3TuNTdDURYXOPA/Tln4eZLi+WvGA2Lax5Tc3I71S29OMd0OpYMN6rB/UFVAIIYQSwwo3bgQoN1PM6nqKB4unvrPzDeVlbFora8CoWkpES3TECp15Huo/dh3IyMlmhQdEhoGJs0/CYEcSfZu1bO8/oa/Ueae3r+NvOoIJIYRQY4ViF4Dwaa/zGIGibMDZ0tvbsVY1UEBHNnsQEX1JR6CJc+Zi2tLPA+TJacX/jAjTPnYdMru6sHPdSxri8fUAfgeA1YMJIcTYYVlHHQMnuxRM80GoB1CmHlXfV/GMasKSEwI4JUaYMmno5vXdHQ6eb2bc83IWG9v1jEXMlwP4hXIcDbkAACaHG+c5oGdV45RMrsVR/9+vYI7T8O+qkd3Xize//HEMJNVfDHSAU1Kp+Asa0hJCiILXhKaiVDhzCwFXI0dn2IxEMADcsDCIy040YBoHLqu2w7jjRQffWp5BRn2RGZPpWO3trSmVINr+kA7octUYFDBx5Ge/mXfFHwDM0jJM/9w3QKb6UxODoPy3EkKIsSAcbipPh7NPEvAp5Gnxv3tpET461zxo8QcA0yBcebKJu5cWIag+906wTeUDirT8Mevq6sZBw+YJkQWLcrbUbzRKp8cQOfci9UCMRfX19V7uMS2EEHkvHG4qN5F5DOBTvc7lYG5YGMTJjcMvpSc3GvjmBeodABO/TzWGlgYg018yH8B4lRhFk6pQu+gKHem4qmbRlQhOrFQNM7G/t+gMHfkIIUQh2lv8GTjZ61wOZkY14bITR15GrzjJRMxSLL+MmFoAXdMpRMrFzLpgsbatfd1kjitF9fkadooknKkeRAghCo8fij8ALDkhcMhp/4MxDcJHTlB9nMzK0+WanqeoNQBmeQXC88/Xk0oOhM66EGZ5uVoQhvLzGyGEKDR+Kf4AMC86+vfo58VUyy8pH7Sn3ABUVzeEAcxUiVE1d74v7v73MkvGoepEtUkPBt5TWzujSlNKQgjhe34q/gBQM2n0JbRukvIiPOXjipUbAMfBcVBcTlh16tmqaeRc1annqIYwslnnOB25CCGE3/mt+BcC5QaAmJReRAhOqETZkcrvMuRcWcNRCIyfqBSDHPWXOIQQwu/8Wvzbdjij/uzWHcqbAnWrBlBuABhqDUDFMcfmx45/I0WEiqZjlUIwpAEQQoxtfi3+APBsfPRF/Lnm0TcPQ1j5LAANMwBqRays4WjVFDxT3tikGEGteRJCCD/zc/EHgHtW27CdkTcBtsO4Z42tODq1KAbQsAqAWOmc3pKaKcopeEU9d7W/nRBC+JXfiz8ANCcc3P7iyAv5batsxNsVZwAIzWoBtCwDJKX1cCWT69RT8EhxtXLuym9xCiGE3xRC8d/rhuVZPN8y/GL+fIuDby9XPwyAmJRPp9OxD4BSETPLFNfTeyiguheANABCiDGmkIo/AGSywKW/HcTvX8ge8nFA1gZ++5yNS38ziIzq7D/gGEFeqRpEx5EEFSqnKZolpcopeMUcp5y7NABCiDGj0Ir/Xpks8LWHsrjjJQdL3mtiXszAlD3r/N/dwXi22cYf1zjq0/7/Z3VbWzytGkS9ARAqtF0NQgiRzyxrVhmc3csZ5EbxX2UzLUinm0e8NM4KxRaC+BEdScTbHXzrUfe/1pn4Th1x1B8BsNpaRLu/TzkFr9i7lXPfqSMPIYTIZ+FwUzk5/Y8DdJru2AS84CB47miKPwAk0s0rCIjrzstF3SUDJffpCKTjHQClBiDbo7yXgWeyPT2qIbp05CGEEPnKzWl/Al6wEVyQSq1X+TJ2QPiJtqRcxsy/eGfnG8p7AABaGgBWqoID7dvUU/DIQPtW1RDSAAghCpYPij8AgKnkdgDvakjLbbvIdG7WFUzDIwBqV/l4f5sf/uYHpiH3Th15CCFEvvFL8QeAROL1XrDzaR2x3EXfSCQ2JXVFU98KWHEzgt6W9aopeKYn/nelzxPTm5pSEUKIvOGn4r9XIt26HMAynTG1IqxJpCb/t86Q6lsBg5UagF1/fxVg5UMRco7ZQff6V5ViOAZe05SOEELkBT8W/72YMtcCyMfn0l0gWgw8o76D0D40zACoNQDZXTvQu2mjaho519uyAdlutZf4iUgaACFEwfBz8QeAZPLtBBPOA7DLrTFGIUvAJYlE89u6Ays3AIGA8TdAZSsgIP3ck6pp5Fzns0+ohhhIJMr81/kIIcQB+L3475VMxl9jchYByLg91jAwAUvbU/E/uxFcuQHYsxvR6yoxOlf9Bc5Av2oqOWPv7kPHatVdGGk1sC4fLjAhhFBSKMV/r2Sy9UkYtAhAb67GPIAsAVe2p+K3uzWAjn0AAMJfVT5u93Qj+dRyLankQuqpR2Er7gHAzI9qSkcIITxTaMV/r0Si+RGTnXnw5p2ALgIudLP4A7oaAIeVGgAASKy4F3b/bh3ZuMre3Yv25eovijLZ0gAIIXytUIv/Xm3p1r9lHZygepM7IoQ1MOh4t6b996WlARhXnnkaipvaZHZ0Yvv9rjY7WrQt+wOyuxQ3YWKsT6U2terJSAghcs+yZpUZGFzu0sE+q7JM7/ey+O/V0RHflkjGzwQ7CxlQ3v3tEHoJ9JVEsmauGy/8HYiWBmDz5s39AB5QjZN4/AH0vZW/WzL3tm5E8omHleOQof63EkIIr+Tz3v5uSaRblw9mBmcC9D0A2jbjAdDNzD+AYR/Znmq+UfdSv0MhXYHC4egpBvCcapxiqwZH/9evYZaW6UhLm2xvDzZ85eMYSG5XDZWxmerT6eY2HXkJIUQuFfq0/3A0NDQU79plLjKYP8HA+zDyk3UZwEtMfGfJQMl9uvb2HyltDQAAssLROIAG1UATZ5+E6dd9G2SaGtJSx7aN1pv+EztfeVlHuPsSqfhiHYGEECKXpPj/q1AoVkGEuQZ4HoA5DEwlIAKgAgQHjG4G0gDeMggbwLTaCPLKPSvoPKWzAYAVin4chF/piBU6fQHqP/ElgLSmOHLMePsXN6JDfd0/AMABTkml4i9oCSaEEDkixb/w6FkFsEfFROd2XS9JpFc+hs2/ugls2zrCjQrbttbiD6DftB05AEgI4StS/AuT1jn2zs5Ou7ws5AA4V0e8vs2t6NvcgonHvQ9GsEhHyGHL9vbgrVu+hR2rn9UZNgCDrigvrdzS29f5hs7AQgjhBin+hUv7Q/ZJleNed+zgYgCVOuINbN+KHS89g4rYMQhWhnSEPKze1o1o+d4X3TqjoAhEH6worbSqayqf7uzs9G6KQwghDkGKf2Fz5QF7JDLjHGLncZ0xyTQRPvsDqL34Spjj3Fkh4Az0o+1PdyCxYllOHj0w6G9k8KJEIv6W64MJIcQIWNasMji7V7ix1A/AKptpQb4t9RtrXHvDzgpHHwRwke64wQmVsBZ+GOH5C2GWjNMS097dh9RTj6J9+TL1TX5GbgfYuWLPWdRCCOE5ufMfG1xrAGoqp0+xA+arYD2PAvZnlpej8qQzEZp3Nsoajhr5agFm9LS8ic5nn0DH6pXKe/srYgA/SKRqvpbLTSCEEGJ/UvzHDlfX2Fmh2EIQP+z2OIHxE1HRdCzKG5swrnYKiiM1MMdPgFlSCgCw+/tg79qJgWQb+ra+g96W9ehe/yqy3TvdTGvEGHjOYXNxOr1BebchIYQYKSn+Y4vri+yrI9GbmfEFt8cpICkmviSZbHnK60SEEGOHPPMfe1zfaq+nt35lWdngqQRMc3usAlFGoCXlZZV2b1+nbBgkhHBdONxUbvDg4wDN0x17z97+C9LpDXLnn2dyss1eZWXD+KBpPAvg2FyMVzAYf4FpL0kkNuk8eEIIIf5B7vzHrpztsxsKxWpM4hcAHJGrMQvEu0zOxclk60teJyKEKCxS/Mc2rVsBH0o63dzmwD4bQE7OOS4gUwjGM1a48RqvExFCFI6xeKSv+Gc5P2knHG6qNpB5DPI4YOQYDw/a2Y/u2PFWfi1fEEL4itz5CyCHMwB7pVLr2wcyg6cDpHWTfQ8xM/+AwFcC1OfqSIQPBAOBly1rxkxXxxFCFCy58xd7ub4K4ED6+7v6e/tm3lVR3s0A5sGDmQhNegh0WSId/0lPX+erE8ZVPcjA6SBE3BqQgBCYrywvrUr09nX8za1xhBCFx7JmlREPrHDjbX8M3fm/X9729w/PC68VajwfRLcBqPI6lxFaR7ZzeXtn65v7/sdQKFZhEv8GwMU5yOG348oGr9m8eXN/DsYSQviYbPIj9ud5AwAAVVXRWtPgHxPoQ17ncliEQTB/J5Gq/a9DbdtbHY5+hgk3g+H2OcavOrAXpVKbWl0eRwjhU1L8xYHkRQOw19ApgvatADV6ncuBEPA4TOeL7e2t64fz89VV0fcyYRnI9U2QdjLhymQy/pDL4wghfEaKvziYvGoAAKChoaG4Z6fxMQauBzDF63wAgIBX2MD1iUT86ZF+trZ2RlV20LkDwPtdSG1fTIRb2pMVXwHWZVweSwjhA1L8xaHkXQOwVxOaitKhzOUgvt6jGQEG6Ckm+lEyufHJof971MgKR/8fgG/D/RcvVwVsZ/G2ztatLo8jhMhjUvzF4eRtA7APCoejcw3C5WAsAjDR1dEYWwh0PwL2bcOd6h+u6lDsdCb+IwBLZ9wDkAOFhBjDpPiL4fBDA/AP9fX1Jf29RWeAcCYzzgAwC6p7GRAGwVgL4Dkm59FksnU11O72DykUOmqyQfa9NLT80U0OM76dTMe/A8BxeSwhRJ6Q4i+Gy1cNwP5qa2dUZbPOceQgxsAMgKIAWwAqQJgIoBwMAtADoAvgXoC2ANxCRC1wjDeNol1r2tra3N3A51+cFrDCbd/F0HsOLv8b0JNk2pe2t7em3B1HCOE1Kf5iJHzdAPidFWq4AGTcDmCSm+MwsBVkXJxMbnzRzXGEEN6R4u+NysqG8UWmcTID88CYs2fVVxWACSBkweglIAXw2wxsAGg1DHtlPpzyKg2AxywrdgQcXgZgjstDZcD4ciId/zFcfMQhhMg9Kf65tedx9MUMfBzACRj5y90Mxhoi3BkYCP5x6671nS6keVjSAOSBhoaG4p4uuoWJPun2WAQ8OJDNXiUHCglRGKT4507d+KbKTHHmegD/ASCkKWwPEX6ddcwfptMbtmuKOSzSAOQRK9S4BES/AlDu6kCMLcRY1N4R/19XxxFCuEpO9cud6nBsEYN/Brh11gv1EfFNVcng99dj/aA7Y+w3Yi4GEcM3uarxKMekB8A42uWhdgN0TSLV/DuXxxFCuEDu/HOjqipaGzBwJ4DTczTkOibn4mSydZPbA3lyGqA4uJ7dneny8trbgcw0gGa5OFQQwMKysqojJkwsfrK7u1t2DxTCJ6T458bk0IzZZPBfMbTkPFdqCHRFeemk9b19nXE3B5IZgDwWiTReTUw/BlDs8lBv2Gx8KJ3e6OrFJoRQJ8U/NyKR6EXEuBNAmUcpZAH6RCLV/Hu3BpAGIM9NDs2Y7ZBzP4AjXB6qm0BL21PNy1weRwgxSlL8c2PoYDpnBYCAx6kwQEvdagKkAfCBqRNmThoo7r8NTAvdH41+GkoFvpSrl1CEiESOsMgJng7i99HQhl5HMBAG7bnzyuN11LkkxT83wuHGYw3QcwAqvM5ljyyYL0qkW1boDiwNgH9QdST2JWb+HtzuShkvm3b2w2073nrH1XHEmFU3vqkyW5xZwoTLwHjvKELkxTrqXJHinxvhcFO1gcw6ADVe57KfnTBwfCIRf0tnUGkAfCYcjp5iAPfC/Qu0g4DL2lPxx1weR4whoVCsxjT4i2B8HPqerXq2jjoXpPjnjhWOLgOwyOs8DmJtIlVzIvBMVldAWQXgM319He9UjJ90J9h4D4DpLg5VCmBJeVmosrdv5tPAZjlQSCg4LWCFi68xiB8EcCqAIo3BiwCcaBA+WVFeVTStt/rFFFK2xviesaxZZcQDKwBy4/CwVTbT+9PpDVL8AVSHGs8D0fe8zuMQaspLu7t6+zpW6wooMwD+ZVrh2LcA/ipUT0Q8HMJfGZklyeTbCVfHEQUpHD6q0YR9HwPH5WjInK2jdpPc+efO0IZK/c0Aar3O5TC6HQSjqdT6dh3B3C0cwk12ItX8dQLOB9Dh6kiMM4iDfwuHo6e4Oo4oOJYVu9CAvTaHxR8AZhMb66xQwwU5HFMrKf65RU7/R5H/xR8AKoizX9AVTBoAn2tPxR8zs9njwXjZ5aFqDOCv1ZFYDo4wFoXACkWXwuE/ARjvwfATQMaDVjh2lQdjK5Hin3MGgz/rdRLDRcSfnDphppYTZOUdgALQ3b9jZ31f9R19ZTwBQydTucUAcFZ5eeVxVYHaJ3YOJPtdHEv4mBWKLgXh1/D2JsMAsLC8LPRub1/HKx7mMWxS/HPPCsUuAOHTXucxAkXZgLOlt7djrWoguZMrMNXh2IcZ/Fu4v4b1bYONRdvTG9e5PI7wGcuKXbjnzj9fbjBcW0etkxR/wLKOOgZOdimY5oNQD+924RuVGdWEJScEcEqMMGXSUO/77g4Hzzcz7nk5i43t2k5iX51IxU9UDSINQAEKhWZETXIeADDT5aEGmPhzyWTLL10eR/hEOHxUowF7LbyZ9j8UV9ZR6zLWi38TmopS4cwtBFwNHz6aDgaAGxYGcdmJBkzjwGXVdhh3vOjgW8szyKgv5GMyHau9vTWlEiRfOnShUV9fumPCxOLbHaeojoBjXRwqQKDzy8srG8vL657o7U3IgUJj2uzg+LL+JwDUe53JAZSAMbe3b+Yf8m1J61gv/uFwU/nusuxjNLT+3nc3pcEAcPfSIiw81oRBB0/fIMJxUw38W72Bh1+14ahdhURsrO3p61ivEkQagALV3d2d6e3reLi8LLQVwFkYOv3PJTQLyH5gfEnlyp7dnWn3xhH5rDpSfh2DLvc6j0PQvo5alRT/od8fgBv7HOTEdz8QxMJjh19Kp1YRJowD/rpRsQ8lbO3t7XhCJYTvplrEyCRSzb9zwCcBaHV1IMbRjkFrrFDjElfHEXkpFIrVMNM3vc7jsAg3hMNN1V6nAUjxd/P3z5UZ1YTLThx5Gb3iJBMxS7H8MmJqAaQBGBNSqZZXB7PZOQQ86PJQ5SC6uzrU+POGhga3jzAWecQ0+IvwxwtbWtdRj5YUf/8XfwBYckLgoM/8D8U0CB85QXUCnhsVA0gDMFbs2PHWzvZU/ENgfAGAq8/qmeiT3TuNFywr5vYRxiIP1I1vqtyzt78v6FxHPRpS/Auj+APAvOjoX1mYF1Mtv6R8DUsDMLZwIh2/hRzMBbDZ5bHmwOFXI5HGD7o8jvBYtjizBP64+9+rvL94cLEXA1vWrDIDg8tdKn6rskzvz+fi7/Lvn3O1k0ZfQusmKb/vqLzU291jZV1WXd0QdhwcR0wxBs0gRhQEC0NfRpNAKAPDANANoAdAL4G3OKBNYLzFROszmYHVXV2buzz9RXKsvSP+v9XVDe9l27wL4LNdHGo8Md1vhaM/SKRqvqbzFKvhsKxZZcgOnEAGH81AlIBGBqaBUQrCeADlGHrrWK4PBQxoe/EvFghicVkFTi4uRp059N7qVjuDFwYGcG9vN5qzeiaviPlyAL/QEmyYwuGmcnL6H2OQa3f+6XT+Fn83f3+vaFvV7xFfLbmoq6sbl+kvmQ+iMwA6A0Pr3FV/BweMDTDoBWJ+pCoV/Mt6rB/UkK4fGJFQ9OtE+AZcng1i4DmHzcUuH9dqhMPRk4hpIYHngTAb6k2uA8JGgJ4fg9fHYUUiR1jEwe1Q/P/DIBG+MX4SLikth3mQpVQ2M+7q68F3du1AhpW/erWsox4umfYvnGn/fT3zpSJEq0f31bmxnXHGTQMqw6cTqXhYJYAfGgCaHG48xRlaXrQI7m8wshPEK8gxfteebl7p8lh5IRJpPIuY7gagdDENQ4KYPqL77xqJxGYZ4CuYsQjAFJ2xD2Df6+MZ+P8mQIkVii4G4Y8qMYJEuL0qgrlFJcP6+VWD/biiI6ncBBDo4vZU8zKlIMMgxb8wiz8A3HBhEB+bN7qX+X79rI1vPaoyo8UtiVRLVCFA/r4D0NDQUBwJNX7CCkdbHNCzAP4DudldbAKYLmHiv1qR6PrqcPTTNTU1pTkY1zPJZMtTAds5HsAql4eymPgpKxz9KtSbT8MKNZ5vhaJPE/NrPPRyo9vFH9j3+ghH11eHo58p9OvjkIjfpxriG+MnDbv4A8DcohJ8bbz6O3ysIffDkeJfuMUfAO5ZbcN2Rt6I2g7jnjW24ujUohgg/xqAurq6cVYo+vnuncYmIvolgOmeJcM4moGf2Zny1upw9NNNaCryLBeXbets3ZpIVZxOhB/B3btaE8D3rHB0RW3tjKrRBKgORxdYoejrIFoOwpma8xuJoxi4dc/18ZlCvj4OhkBKa5FjgSAuKS0f8ecuKy1HNKD459awjvpQpPgXdvEHgOaEg9tfHHkhv22VjXi78kZAzWoB8qwBqA41npcZKF2PoSKUT2czT2bgZ+lwptkKxRZ6nYx71mXak/HrmPBBADtdHuz92QFnXXVV9L3D/UAkEptlhaJPMfBnEJrcTG6EJjNwazqcabas2IVeJ5NLDCitRV5cVnHQZ/6HYhLh4lLVhQfq66gPRop/4Rf/vW5YnsXzLcMv5s+3OPj2cvX3oYnpJdUYedEA1FROn2KFog8x0QoA+bx2vB7Ej1SHYw+EQrEar5NxSzIZf8iBPQfAq64ORJjGJp6vDkc/c+gfnB2sjkRvIOa1IMx3NSc19XD44epw9E+FfH3sZ6LKh08ZwdT/v3y2ZJzK0NCxjvpApPiPneIPAJkscOlvB/H7F7KHfByQtYHfPmfj0t8MIqM6+w84RpCV36Xy/CXAPUeH/gGAZxtzjFIXE65MJuMPe52IW+rr60t29xbdCmBpDoa7z2b6WDrd3L3vf4xEYrOI+Q4A78lBDjp1MeGqZDL+kNeJuMmKRAfAGPVc/PrJU1BOo7sP6WEHTdvfHe3QADCQSMVH34EcgBT/sVX89xetNrDkvSbmxQxM2bPO/90dHG+MdwAAIABJREFUjGebbfxxjaM+7f9/Xkyk4nNVg3jYAJwWsMJt3wVwvbd5KCL8OpQMXlPIS8MikdilxPxLuLzZCwFxh2hRMtn8OgBY4ejFAP0eYP++ZFfg14cVjiq9L7KlZprS+NPatih9PpGKa/vusaxZZXB2rwDoNF0x97HKZlqwf4OcT/z6+1uh2EIQP6I7rpuY+JM6jmH3pPBOnTBz0mDRwKOF0yXSswOZgQ8U8oYxljVjJjvO/QR3X5wCqI/gfNph42gi/pK7Y+UGA88NZgYvLMTrQxqAIXLn7+vf36gORzcwoLSkLoe6iweLp72z840dqoFy/g5AKHTU5IGigZWFU/wBgE8tDhS9UFM5PRfL0DyRSGx8gxGcA+Bed0fiUgb9oVCKPwAQMK+4qGhVIV8fY5ls7+v7398B4Scuxtft5zqKP5DjBiAcnt5gkv0i/Pc89/AITXYgUNAH4KRS63sSqfhHAL4WhIKc0nYN4+ih6yN6pNepCH32bG/7uBvT3gS84CB4bj5P+xfK789UcjsApRdKcmQXDPtHuoLlrAEIhWI1BsynANTnasycY54Kh58u9DfAE6mWWw3HOAnA217n4ivMU8G0smbSkVO9TkWoK4A7XyWF9PsnEq/3EnB1LsZSQ99IJDYldUXLSQMwdcLMSSbx4yjk4v9/jjTBT452kxu/2J7euC5QZPwbgD97nYuvME+1g4HHCv36KHSFcuc7WoX4+7en4n8G4PrW0KNGWJNITf5vnSFdbwCa0FQ0WDTwKIYO7hkbCE3ZjLMMOM3Xpy0ezrZtGzsSqfj5AH8NgPrK1rGCcfRYuD4Klc9feFNWyL8/U+ZaANu8GPswukC0WPeJqq43AOnw4I2F9cLfMDHOqI60/ZfXaeQAJ1It3yOmswAkvE7GN4aujxu9TkOMTCEXv+Eo9N8/mXw7wYTzAOzyKocDyBJwSSLRrP2Rq6vLAPds8vOQ2+MEJ1Si4phjUdZwNEpqp6I4MhnBiokwSob2+HD6+5Hp7sJAcjv6t21Bb8ub2PX3V5HdpeVFykMi0KL2VPMDrg+UB0KhoyYbZN9LwDyvc9lXuIJwUoOB2VMNNFiEKZWEUBmhdM/2NX2DQLqX8W4noyXBWLfFwYutDtI97h/05/frw+/LAPNFPhS/wyn04r+vSKThbGJjBYCgx6kwAVe2p+K3uxHctcJcUzl9im2ar8GlHf7M8gpUzZ2Pqnlno6xhxsgDMKN300akn3sSnav+ArvHtcdNaabMMcnk22Pk7jg/NniaWApcdLyJD802cdzUkU90MQOvvOvggbU2Hn7FRlefC0kO8fX1IQ2Aunwrfgcylor/XntuYO+GyxugHUKWgKVuFX/AxS9oKxR9CIQP6I5bNKkK1gWLEZ5/PoxiPbt42v27kXp6BRIr7kVmR6eWmPsi4MH2VPyD2gPnMSvUcAHIuB053uK5egLh6lMDuPRE8x93+Kp6B4C7Vmfxy2dsJHbpnxXw8/UhDYCafC1++xqLxX+vmlDD8TYZjyL3h9N1EXDJnhcTXeNKA1Adajxvz8E+2lDARGTBItQuukJb4d+f3b8b2x+4DYnH/gTO6n2njQkXFfK5AQdiWbEj4PD9AGa7PVbQBJaeEsB15wS0Ff799Q4ANz+Zxe+ez+o4zOOfMOHf/XhugDQAo5fvxQ8Y28V/r6qqaG3AxB1gnJGTAQlrQLTYjWf+/zqUZnV1deMyA6XrofFUv5LJtTjys99E6RGund75T/reimPTj2/AQKJNW0wC4u2pimOAdRltQX2goaGhuKeLbmGiT7o1xpFhwi8uC2JmbW62tXh9K+PqOwaxuUPfbIBfrw9pAEbHD8VPiv8/i4RilxDxzQAsl4bYBdA3hpb66X3b/2BM3QHHFVVfA8JiXfEmzpmLxq/eiOJwta6QhxWcVIXQqeeif+tm9KudNravqoqywURPX8f/6groB52dnXZPX+f/lJdWtoDoHGD0J8cdyDlNBu7+WBGmVOZuU0trPGHRHBPNCeCtlLYmwJfXR3lZ1bdUPv/5CqXThPHj7p1Kn/eCH4qfFP9/1dvX8UawqOK3ATNgA5gBfe8GdDPzT8h0PpJItvwV2KztyMDD0ToD0NDQUNy909gETc9LQmeeh2lLPw8ytPcpw8K2jS2/uRnplY/pCpkYVzZYv3nz5n5dAf2kurLhaDaNdQC0PMNZ8j4TN34wANPw5l3DrA1c/0AG967R9jzAd9eHzACMjB+KnxT/w2toaCjetctcZDB/goH3ARjpnh4M4CUmvrNkoOQ+XXv7j5TWjUh2ddFHifQV//qPXQeQdycFk2mi/hNDZ9JoagKs3T1FlwL4rY5gfmObRpWhsfjf9KGgl5cHAiZw84eHVglpagLG9PVR6PxQ/KT4D09ra+sAgLsA3BUKxSqIMNcAzwMwh4GpBEQAVIDggNHNQBrAWwZhA5hWG0Fe2dYWT3v6S0BvA0BEpOUEt4lz5mLa0s97Wvz/gQjTPnYdMru6sHPdSzoifg7A7zDUAY4pBL5Wx6TTOU0GbvxgIF8uD/zgQ0Gke4Cn39TSBIzZ66OQ+aH4SfEfnT1bFj++53++ou3B6eRw4ykApqvGKZlciyM+8/88m/Y/EDJNHPmZ/0RxRMMZP4Qmy4rm5m3SPFJTOX0KgZSXhR4ZJvx0SdCzaf8DCZjAz5YEMK1KQ05j9PooZH4oflL8xyZtDYADulw1BgVMHPnZb8Ic59W+CwdnlpZh+ue+ATI1NCYOL1EP4i+2aX4KijNOQRP4xWVBVJTkT/Hfa/w4wi8vK0JAR986Bq+PQuWH4ifFf+zS0gDU1dWNA7BINU5kwaKcLfUbjdLpMUTOvUhDJLqoCU0urVbPSyaAq1SDLD0lkLOlfqPxnimEq07W0QGMueujIPmh+EnxH9u0fJtm+kvmAxivEqNoUhVqF12hIx1X1Sy6EsGJlaphJqVDg2fryMcPqkMzTsHQSzGjjzGBcN05+X943hfPCSJSoRxmTF0fhcgPxU+Kv9BzO0Wk/MzSumCxazv86WSOK0X1+cqTHQAZZ6kH8QcmVp42ufpU93b406m8GPiEjlN+CfPVgwhv8DP5Xvyk+AtA2zsAag2AWV6B8Pzz9aSSA6GzLoRZXq4YhU/TkYs/OErXx8RS4NIT8+el0MO5/MQAJpSqRqHTNKQicssGcGsoVXROPhc/Kf5iL+UGoLq6IQxgpkqMqrnzfXH3v5dZMg5VJypPehxTWzujSkc++Wzod6QmlRgXHa/vYJ9cKCsGPnCscsMycyxcHwWgF+C/A/xjsp1ZiVT82vVYP+h1UgcjxV/sS3mu0nFwHCku7q461X+PO6tOPQfJpx5VCWFkB520FY7qSikvZQfVd7VcNNs/d/97fWiOidtfVNoXYExcH15LpOL5t6TEJVL8xf6UZwCIaYbK5wPjJ6HsyJhqGjlX1nAUghOUXwYUhxEqJ7xnSv6++X8wx081EK4YM7VF5DnLmlVmYHC5G8UfwKos0/ul+PuP8jcrg5Sq9/iZx+fHjn8jRYTyo2d5nUXBOzlq+PXywPum+69xEYXHsmaVwdm9wqX3SlbZTAv27IYnfEbDDACU5ijLGo5STcEz5Y1Kj7bFMBzvw7v/vWZP9W/uojCEw03l5PQ/7kbxJ+AFB8Fzpfj7l/o3FLHSOb0ltVOVU/BKSc0Ur1MoeA2WD2//92iI+Dd34X8y7S8OR8MtCimthyup1nJ4oCeKq+u8TqHg1Yf8W0T9nLvwN7nzF8OhYQZAbQfAQJn6tmleCSjvBSAOZ+I4/xbRicp7AQgxcnLnL4ZLx0NKpSpolIzTkII3zHHyDe+2Mh+t/99feR4eWiQKm7zwJ0ZC3lISQogCIMVfjJSOBkBpKsjp360hBW/Yu/u8TqHg9ebtnmqH19PPXqcgxggp/mI01BsAxi6Vj2d6lD7uqWyPPAZz244+/xbRLukPRQ7IC39itDTMALBSFRxItKmn4JGB9q1ep1DwtnT4twHYnPZv7sIf5IU/oULDDAC1q3y8f9s7yil4pb/tXa9TKHitCf8W0dakf3MX+U/u/IUq9a2ACc0qn+9tfVM1Bc/0xP/udQoFb9076ocJeWXtFqXDgIQ4KLnzFzqobwUMVmoAdr3xCsA+vFNiRvebr3mdRcFb1eL49fLAS60+TFzkPXnhT+iiYQZArQHI7tqB3k0bVdPIuZ6WN5Hd1eV1GgUv3cN45V3/zQKs3cLo6JUGQOgl0/5Cp4BygIDxNzsDBjDqXU/Szz3pu0OBOp99QjWEEygyItu2bezQkU++qq2dUZUddJJQaDYfWGvjeJ8drPOntVnVEL64PqxwVLqcHAmHm8pNZB5zY9qfgBdsBBfItP/IVVY2jC8yjZMZmAfGHBCmAagCMAGELBi9BKQAfpuBDQCthmGvTCQ2Jb3OXctWZVY4+iqA94z282Z5Bd7z82Uwikt0pOM6e3cfXv/MxbDVlgG+nkjFR/038xMrHH0dwMzRfn5iKbD26yUo9cmugD0DwL99tx871ZYBvpZIxY/VlJJrVBuALTXTlMaf1rZF6fOJVNwX2zVK8c8v9fX1Jf29RRcz8HEAJwAwRxiCwVhDhDsDA8E/bt21vtOFNA9Lz20V4a8qH7d7upF8armWVHIh9dSjqsUfIPxFTzZ+wErXR1cfcOdLynfUOXPHi7Zq8QfAz2hIRRQAKf75o258U6UVjv7X7t6idxm4DcBJGHnxBwAC4QQGfpYpzmypjkRvDoWOmqw328PT0wA4al/wAJBYcS9sH+wKaO/uRfvyZcpxHMZDGtLxBWJW/l1/+YyN3gEd2biru5/xy2fUmxViPKUhHeFzUvzzBkUi0cszxZkNAL4MIKQxdjkzvmCSHY+EotcBs4MaYx+SlgYgWLL7LwB2qsTI7OjE9gdu05GOq9qW/QHZXTtUw2xPpeKrdOTjB+3p1hcAJFRiJHYxbn4y/2cBbnoii3SP4mNxQmdVukgagDFOin9+qKqK1lrh6F+IcTuAiItDlRPhh1a4+6VIpGG6i+P8g5YGYOvWrbsB3K8aJ/HYn9D3VlxDRu7obd2I5BMPa4hEvwfgv1fbR88G8HvVIL97PovXt+bvO2evvOPgtlUa1v4zHlyP9T4+BUGokuKfHyaHZswOGFgD4PQcDjub2FhnhRoucHsgba9WO8AdqjE4a2PTj2+A3derIyWtsr09eOsn3wbbyl/wmazDv9CRk58EbOfnAJRu4TM2cPUdg9i1O/+agJ27GZ+8M4OshvpPTPeoRxF+JcU/P0Qi0Ysccp4FUOPB8BNAxoNWOHaVm4NoawBSqfgLAFpV4wwk2vD2z76vo9Bqw7aNt2/9LgaS23WEe6ijI75NRyA/2dbZuhXAg6pxNncwrvljVkuh1SVrA5++O4N3OrU0Jm+0p5uf0RFI+I8U//wQicw4hxjLAJR5mEYA4N+62QQo7wOwDwbjJhB+pRqoa92L2PKbm1H/iS8B5PEqHWZs/tVN2PnKy1rCOcCtWgL5kAPcagAfVo3z1Hob1z8A3PzhYD5cHrhuWQZ/3aDniQ6BbwGQf1McBSr/9jHIuPKPL8V/+MLhxmOJnfuhtz6OFgH8KyvUmEykW1boDq51d5WKic7tDGg5Ii+98jFs/tVNns4EsG3j7V/ciA71TX/26jdNR/kNQr/a87v364h17xob1y3TM+U+Wlkb+Ny9Gdy/VlsS28snsEz/C62k+A9fONxUbYD+B0CF17nsIwCiuywreqTuwFobgNbW1gEC/VBXvPTKx9B689c9eScg29uD1pv+U2fxB4ASto2XI5HYpTqD+kEkEruUbeNlANp2e7p3jY2rbst48k7Azt2Mj/5hUGfxBxN/u7W11QeLHYVfSPEfGQOZn8KbZ/6HMwEO7gNO0zoroX1/1WBx768BbNIVb+e6l/Dmlz+Ovk1KRw6MSG/rRmz4yse1Tfvvp4yY77QisV/W19f7Y+tDBfX19SVWJPZLYr4TLjxPe/pNG+fcMojX3s1dE/DKOw7O+dGgtmn/PTYmk7W/1RlQjG1S/EfGsmIXAljkdR6HMMcKtV2jM6ArT1Crw9H3M/A/OmOSaSJy7kWoWXQlzHGlOkP/g727F23L/oDkEw/n5NEDg/5GBi9KJOJvuT6YBywreiQ7dD+Bj3d7rIAJXHWyiS+eE0R5sTtjdPczbnoii9tW2fofPTBdmEg3P6o5quv8vhVwoZLiPzJDJyz2NwOo9TqXw+h2EIymUuvbdQRz7RUqKxx9EMBFuuMGJ1TCWvhhhOcvhFkyTktMe3cfUk89ivbly3Rs8jNSXTDoo4lE8yO5HthNlhW7EA7fBmBiLscNVxCuPs3E5ScGUKapEegZGNre95fPaNjk58DuT6Tiyi9HekEagPwjxX/kqsPRTzPwM6/zGA5muimZbr5eRyzXGoCayulT7ID5KhiVbsQ3y8tRedKZCM07e+gkwZG+Ds6MnpY30fnsE+hYvVJ9b381zEw/TKYnfxXQsI+sp04LRELbv0/EX4SL19fhTCgFPnCsiQ/NMXH8VGM0lwfWbmH8aW0Wj7ymY2//g0qR6TS1t7emXBvBRdIA5Bcp/qNiWOHGjQA1ep3IMPUUDxZPfWfnG8p3q65+QVuh2EIQP+z2OIHxE1HRdCzKG5swrnYKiiM1MMdPgFky9KjA7u+DvWsnBpJt6Nv6Dnpb1qN7/avIdivtXqwdA887TIvT6eY2r3MZjVAoVmMQ30vAKV7nsq+qMsJJjQZmTzXQaBGmVhIqywnle04X7BkEOnsY73Qy4gkH67Y4eLGV0dnr+nsFzIQPJpNx354LIQ1A/pDiPzp76pSvZmCZ6FPJZLPyhnKu36FVR6I3M+MLbo9TQBIwcEkiEffVaYGWFT0TDu4GYHmdi18w8w+S6ZYve52HCmkA8kOhFH/LOuoYONmlYJoPQj283YhnxGZUE5acEMApMcKUSUPv2L+7w8HzzYx7Xs5iY7u2m4rViVT8RNUgOZiinR2MhLufJmCe+2MVDBvgbyVSLd9H/p8ZYFjhxq8C9C2M7ljMseqpRCq+AEPnJPiWNADeK4Ti34SmolQ4cwsBV8OF1WluCwaAGxYGcdmJBkzjwGXVdhh3vOjgW8szyKg/6GUyHUv10WEO/tDrMoOZwQsBvO7+WAXDBOg7kXB0RW3tjCqvkzmY2toZVZFwdAVA34EU/5F4IzgQXAyfF3/hvUIo/uFwU3k6nH2SgE/Bp8X/7qVF+Ohc86DFHwBMg3DlySbuXlqEoPpqfoJtKh9QlJM/dlfX5i6baQGAzbkYr1AQsCCb4b9ZVuMJXueyP8tqPCGb4b8RsMDrXHym1UHw7K271nd6nYjwt0Ip/iYyjwF8qte5jNYNC4M4uXH4pfTkRgPfvEC9A2Di96nGyFm3lU43tzmwzwLwdq7GLAjMU8H0nBVuvNbrVPaywo3Xguk5ME/1Ohef2WwEzPm61vCKsauQir8bBx/lyoxqwmUnjryMXnGSiZilWH4ZMbUAOZ5uSaU2tdpszoU8DhgZRhFAP7HC0WWhUMyzPapDoViFFY4uA+gnQzmJEXjNZvOk7ds3yENroYifkeKfH5acEDjktP/BmAbhIyeoPjVl5WWLOX/ekk5v2D6QGTwVoGdzPbZLmJl/QOArAXJvtfiQRQHitZY1Y6bL4/wLy5oxM0C8Fq5vlUl9BL6SmW5C4ZyKt3Iwmz01nd6g5TxpMWbZAG4NpYrOkeKfH+ZFR/8e/byYavmlSYoBvHnhoqtrc1ciVX4WMf0Q/v6S7yHQ4mS65cvtqZbbYBgnMODqoQUMROHw6upw9Ao3x9lXdTh6BRxezUDUzXEYaIZhnNCearltz05XHwGQ+5Og9GFi+mEiVXP2jh1v5demE8IvegH+O8A/JtuZlUjFr12P9YNeJzVahVT8AaBm0uhLaN0k5UV4yrPBHp+mDlihxvNBdBuAvH3b/SDWke1c3t7Z+ua+/zEUilWYxL8BcHEOcvhdsLjvmq1bt+52I3hdXd24zEDprQD+w434+7nPZvpYOt3cve9/tKyjjiHHvoOB43KQgz6ETjjORxPp1uVuDqO6DC+Riit9B/h9GaDq7y+Gr9CKPwDEv18y6rNHegaA6FeVTkcfSKTiSgfKeb7kIpFuWZF18B4GP+B1LsNCGAT464lUzfv2L/4AkE43dydS8cUAXzv0s676j8xA6Yvh8PQG3YHD4ekNmYHSF+F28R/6e16bSMUX71/8ASCR2PD39lTFCcz4JoCMq7nocx8jc7TbxV8IvyjE4g8AbTtGv03L1h3Kk9//8n05Up43AADQ0RHflky1LGIyzgW4xet8DoaAx8lwjk+kWr57uD37E6mWW8nGKWC4/dLXsQbMtZFI47/rChiJNP67AXMtgGN1xTwgxhaycUoi1XLroX9wXSaZjn8bhnk8gZ9wNSc1m4j5/EQqvjiZfDvhdTJC5INCLf4A8Gx89EX8uWbVPd5Y+SyAvGgA9komNz5RMYFnEnANgHe9zmcvAl6BgbPaU/EF7e2t64f7ufaO+JpAsTEbwJ9dTA8AJhDTA1Yk+iNgdnD0YWYHrUj0R8T0AIAJ2rI7sD8Hio3Z7R3xNcP9wNBsQMu5TM45AF5zMbcRYWArM1+dSFUc1Z5u0XoMthB+VsjFHwDuWW3DdkbeBNgO4541qvuAkfLNcl41AADQ2to60J6K/yyUCjaA8TEPZwQYoCeZjHPbU/HZiUT86dEE2bZtY0ciFT8f4K/B3Z3fCIzPW+HuZ2orG+pG+uHayoY6K9z9DBifh7vvhtgAfy2Rip+/bdvGjtEESCZbn0yk4sc5oAUAnoJ3L5K+wcxXl5YNNibTLb8C1vnlEYUQriv04g8AzQkHt7848q/121bZiLcrzgCQ+gvnfngBhsLh6FyDcDkYi+D2+fKMLQS6HwH7tpHc7Q9HdSh2OhP/Ee4fmJNici5NJlufHM4PRyINZxMbdwEIu5xXgpg+0p5uXqkzqGUddQzZzhVs4MM52JxoBzFWEPFvt6dannN5rMOSlwDlJcB8NBaK/17BAHDX0iKcMszdAJ9vcXDpbwaRUbwdJNCH21PN96vF8JH6+vqS/t6iM0A4kxlnAJgF1VkMwiAYawE8x+Q8mky2roaLd5Sh0FGTDbLvzcHhSA4RvtOejH8bBz9QyKiORL/BjK/D5dkgBp5z2Fzs8lp4ikRmnEjsLARoHsBzACg8EgEwNGuznoHnQfxIMjn+mXy605cGQBqAfDOWiv9ewQDwzQsCuOKkg58HkLWH7vy/syKjXPwBOGYQVltbPK0SxNcXf23tjKps1jmOHMQYmAFQFGALQAUIEwGUg0EAegB0AdwL0BaAW4ioBY7xplG0a01bW5vbG/js57RAJLTte0T0Jbj+b0BPkmlfuv+pUdXVDWG2zbsAPtvd8cHMfFMyXfufh3txUreamppSZ7DiBBAfzeAGgKJgTAOhFNhzfQzpAWMXCH0MbCZgExhvscF/z2b55c7O1l25zHskpAGQBiCfjMXiv69otYEl7zUxL2Zgyp51/u/uYDzbbOOPaxz1af//82IiFZ+rGkQufg9ZocbzYdDtYFS6PNQ2Jro4mWxeBQDVVdF/YwPLANS7PO4uJr4qmWz5k8vjjFnSAEgDkC8sa1YZnN0rADrNhfCrbKYFB1oqrMoKxRaC+BHdcd3ExJ9MJlt+qRon714CHEsS6ZYVIJoDYJ3LQ9US80orFP28FYp+ng2sgvvFfx0MOlaKvxCFLxxuKien/3E3ij8BLzgInutG8QeARLp5BQFxN2K7pLtkoOQ+HYGkAfBYItH8dsUEZy5AP3V5qCAIPwLhR1B/Ln5IxLgzWNx3SiLRLCc/ClHgLGtWmYHB5S5N+6/KMr3f5bMPHBB+4mJ83X7+zs43lPcAAKQByAutra0DiVTzZ5npUvh77/teZrq0PR2/3K3tiYUQ+cPPd/77Yiq5HXm098wh7IJh/0hXMGkA8kgy3Xy3yTR76PAPf9lzkM+JyXTz3V7nIoRwXwHc+f9DIvF6LwFX52IsNfSNRGJTUlc0aQDyTFu6udlB0YkgusfrXIaN6B5GcE4isfENr1MRQrivUO7899Weiv8ZwLJcjjkihDWJ1OT/1hlSGoA8lEqt70kkmy9hok8BGPA6n0MYYKJPJZLNl/j5fHIhxPC5udSPgBdsBBd49X3ClLkWwDYvxj6MLhAt1r2UWhqAPJZMNv/CYDoZQD6+TPe2wXRyMtn8C68TEULkRiEXfwBIJt9OMOE8APm090eWgEvceKla1sD6wNQJMycNFA3eDvAFXucyhJYXDxZdoetNVOFfsg/A2FHoxX9fe7ZHXwGXV0wNAxNwZXsqfrsbwWUGwAfe2fnGjkSq+UICfQVATnfT20+WQF9JpJovlOIvxNgxloo/MHTgGAxaBG9XZWXdLP6ANAB+wu2p5huJnfkA3NxP/2C2Ezvz21PNN8K70/eEEDk21or/XolE8yMmO/PgzTsBXQRc6GbxB6QB8J32dOuzDoLHA9B6ot5hrHQQPL493fpsDscUQnhsrBb/vdrSrX/LOjgBhL/mbFDCGhh0/J5VCa6SBsCHTHPARg4fBTBgMjvyrFSIMaSQ1vmr6OiIb0sk42eCnYUMbHVxqF4CfSWRrJmbq11UpQHwmepQw6lsG68BOCtXYxIwzyR7XXWo4dRcjSmE8E4hrvNXlUi3Lh/MDM4E6HsAtG3GA6CbmX8Awz5y6BFr7k5NlQbAP6g6HPsyk/E0gMkejD+ZyXi6Ohz7MmT1iBAFa6xP+x9KV9fmrkSq+WsVE5ypTHQZAS9gdLOxDOBFJv5k8WDxtGS65cs6d/gbLvki9wFZBijylSwDLCxS/EcuFIpVEGGuAZ4HYA4DUwmIAKgAwQGjm4E0gLcMwgYwrTaCvLKtLZ72OHVpAPJdTajheJuM+wEc6XUu/4ToHZB9cSLRutrrVIR3/N4AiJxZZTOcbg8nAAAgAElEQVQt8Nu0f6GTRwB5LBKJXm6T8QLyrfgDAPNUOMYzVjj2Wa9TEULkNSn+eUoagDxUV1c3zgo3/o4YtwMY53U+h1AM8I+tSOzucLip3OtkhBB5R4p/HpMGIM/UhGKxzMC4NQBd5XUuw8a8hJBZa1kzZnqdihAib0jxz3PSAOSRSCh2iU28FqBjvM5lpAiIwXFetsIx/zQuQgi3SPH3AWkA8kBDQ0OxFY79hIjvAuDnqfRxAP+uOhS9o66uLp8fXQgh3CPF3yekAfCYZcWO6N5prAL4WpeHyjLji8z4IlzeRZAJl2UGSp+3rNgRbo4jhMgvft3kZ6ySBsBDVqjxfDCvBTDb5aG2OcDpyXT85mQ6fjM5OAkMt9dPzYbDr0YijR90eRwhRH7wzfa+Yoiv9wGorm4IOw6OI6YYg2YQIwqCBaAMwCQQysAgAD1g7AKhj4HNBGohcAs79CYCxS8nEq/n+MjH0wKR0LbvEdGX4Pa/AeNpmPYl++8yZVnTI7DNu0GY7+r4ADPzTcl07X/mcotLYGgvc2QHTiCDj2YgSkAjA9PAKAVhPIYetxCAbgA9AHoJvMUBbQLjLSZan8kMrO7q2tyVy7xHQnUdvupGOLIPgAAKd5OfQuerBqCurm5cpr9kPojOAOgMADOh/jtkAKxjpudh4JFksvlFuHjcbSh01GSD7HsJmOfWGHs4RPhuezL+bQD2QX7GrI5Ev8GMr8Hl2SAGnnPYXJxOb3DzKGMjHI6eREwLCTwPhNkAAooxHRA2AvQ8MT9SlQr+ZT3WD+pIVgdpAKQB8JoUf//yQwNAk8ONpzigywEsAjDe5fHeJcL9TMZticTGN3QGrg7FTmfiPwKwdMY9gDSTcWkyufGJ4fxwJDLjHGLnLgAhl/NKENNH2tPNWo8yjkRiswzwFcxYBGCKztgHsBPEK8gxfteebn4GLjaLwyENgDQAXpLi72952wA0NDQU7+qij+6ZJp/uSRKMp4lwS3sq/hjUvujJCjd+FaAbAJiasjvYUC+Zdvbits5N747kUzWV06fYZuA+gE90K7M9bIC/mUi1fB9qf1PDCjW+H6DPgXCmruRGaAMBPzeCPb9va2vr8yIBaQCkAfCKFH//y7sGYGiav/RqEK4DUOt1Pnu8wWR8abh31PuqrZ1RlR107gDwfhfy2hcD/JNEavz1wLrM6ELMDlrhXT8A6LNw/9r4c6DIuHzbto0dI/1gdTi6gBk3gdDkRmKjsJ2A71elgr/O9eMBaQCkAfCCFP/CkFcNQHWo8TwmuhVAni4foydh0BeH+2iguir6XiYsA0HtW+7wdjHxVclky590BItEGj9ITL+H249bGFuI8eH2jvia4eUVm0UO35yDFxdHazMM+lwi0fxIrgaUBkAagNzjZxwUXSDF3//yYhlgTeX0KVYo+hATrUDeFn8A4LPhOOsioeg3gdnBQ/2kFW68hk08n4Pi/5oDc46u4g8AyWTLnxyYcwC8pivmARGmsYnnrXDjNYf+wdnB6kj0BmJem8fFHwDq4fDD1eHon0KhWI3XyQihmQ3g1lCq6Bwp/oXB8xkAy4pdCIf/AGCS17mMBAGvsGFenkhs+Pu+/z0UilWYxL8BcLH7WfDvg8W7P7N169bdbkSvq6sblxkY97McnUtwn830sf03EIlEYrOI+Q4A78lBDjp1MeGqZDL+kJuDyAyAzAC4rBfgtwE8TTb/pr2z9U2vExL6eNgAnBawwm3fBXC9t3ko6WfCJ5LJ+B0AUFMVnWETHsjBs+l+MD6bSMd/7fI4AIaOJSbGzzG0v4JrCIg7RIuSyebXAcAKRy8G6PcAl7o5rqsIvw4lg9e49W6ANABqDYDq7y+En3ly8U+dMHPSYNHAowyc7MX4mjEz/dAg502G8d9uF6v9i2Su/P/s3XlgVNXZP/Dvc+9MEkJCgMzMHRKWCMkMGLEW+Iks4kZF61bfilIVt9qKbxdtqe3bTavt203p69JWba3ivqDWhVYRWxAUkRe0LggzCQqCIXdmCJAFkszc+/z+CLa8FCSTc+7cuZPz+VOZ5zwj13ueOffc54RC0aM15kUMRJwdifYQ7K/ZrB1JxNc5O1ZuMLCiO919jhMNhVQBoAoARemrnO8BCATGDesq6lpWIJM/ABARX8eg+xz/pcp4tjPdPTnXkz8AJBKxdzJMkwA87uxIXMqg+wpl8gcAAmYUFxW9VjV0jNM9ChRFUXotpwVAMDimVidrFbz3PNddhG6ArjVT8S+42ZY2lYq1mcn4nH3v3udNNzxPYBxp+XyvGkZktNupKIqiADksAAKBaJUGfSmAmlyNWQgY2MbQTjKTsdvczuUTZjJ2m2bTNAAfup2LpzCPBNOyqiGjR7qdiqIoSk4KgJEV44foxC9CTf5ZIeBFnx+fTSQ2rnI7lwNtT8XW6n4cS8CLbufiKcwjLb/vherqsZVup6IoSv/meAFQj/qi7qKu59BzcI/SOxYzXd+cjJ/R1BRPuZ3MoTQ1xVPNyfgZzHQ9Dn3gkHIgxpGZtP0EcKLoQUWKoih95ngBkAp2/7qANvzlQorJ/nwiFfspANvtZHrBTqRiPyXWZgJodjsZz2CcHA41/crtNBRF6b8cfQVmX5OfPzs9jr9iKMqPOgYDa49ESfVIFIeGwV8+GFpJCQDA7uxEum0XuhLb0fnxFnQ0vI/W9/6BTOtOJ9PKGgMrbaY5qVSsye1c+iIQiFZpxI8RcLzbuewvWE6YWqth4kgNtQZhxFBCYCChtKjn3+/pBlIdjK0tjAaTsW6LjVWNNlLtzh/0R6DZzcnYk44P5BD1GqDS3w0dWjuoSNemMzADjEn7ur9WAqgAIQNGBwFJgD9kYANAq6FZy0xzU8Lt3B27+HtOl9PfhkMd/vSyclROm4nKGadiYO3Y7AMwo2PTRqRWvISW1/4Gq73t8J9xDhPTgubUsO8DyzNuJiLuRF84sP0XTDwfLjZ4GlwKnDtBx3kTdXx2ZPYLXczAW1ttPLnWwjNvWdjl3Fl/Kab0UYnEh6ZjIzhIFQBKf1RTU1PS2VF0AQNfBTAZ2Z/yymCsIcKDvi7/o9ta17c4kOZhOXbxG4HIn0H4guy4RUMqYZw1B8GZZ0IrLpES0+rci+TLi2EufgzpnTn/e9gFjS7L5QEyubBv9WchgMG5HDdcQZh3gg8XT9H/+QtfVEcX8NDqDO5absFslb8qQMDTzcn4F6UHzgFVACj9yfBB9UPTxenvAvgygICksO1E+EPG1m9JpTZslxSzVxy5+Ped6rdYZkzy6QidPhvVsy+VNvEfyOrci+1PLoT5wlPgjPN72hj0Jmk82zTjHzg+mAsMIzKabVpE4AlOj+XXgSuP92H+LJ+0if9AHV3Agpcy+NPKDNKSLw8m/IfT5wY4QRUASj9BoVBkLjFuBhByaIx2ZvwkkSq/ve9HumdH+sXfc4BM6XpIPNWvZFg1Rl9zA0qPqJMV8lPt+SCOTbfeiC7TwUfxRHcPKO26dvPmzZ3ODeK+mpqakr17im8F81VOjTE6SLhzrh/jq3PT1uKdbYx5D3Rj8w55qwEExJuT5Ufl6n98WVQBoBS6yspItU/DgwBOytGQ65jsCxKJxk1ODyT9jpnuLJ0HiZP/4EnTMO4Xd+ds8geA0tERHPnLP2DwxKlOhO9gorlmIjav0Cd/ANi8eXOnmYjNY6K5ADpkx59Vr+GFa4tyNvkDwNHDCS9+qwifq8/2sd+hMRAJB9u+Ki2goijChgXGTvRpWIPcTf4AMJFYW2cEas9yeiCpd83a2tpiEObLihc45QyMmX8j9AGOHkJ3UHrpQIyZfxMCJ50uM2wn6fbkRCL2kMygXpBIxB4i3Z4MQFrRc+FxOu65zI/yktz/iBs0gPCnS/2Yc6zUIuDHNTU1zjzfUhQlK6FQ5Fyb7FcAVLkwfAVIe9oIRh09il1qAdC6iy4DUC0jVuCUM1DzlfkgTd4NNluk66i56jqZRUCJZWmOvBXhBfu+u5QJ7sLjdNx8nh+65t4Krk8HFpwvtQgw9rYXXSwrmKIofRMKjZ1FjCfg8BHoh+ED+B4niwCZBQARkZQT3AZPmoZRV34LoDx4PEeEUV+Zj4qJU6SE04BvSAnkQRrwTRlxZtVr+NUXfflyeeDX5/kx80hpRcC1cPH1SUXp74LBumOI7UUA8qFTJwF8txGoO9OJ4NIKgGHBuuMBjBGNUzKsGkd8/fuu/vI/EOk6Rn/9hygOSVkJOrd6aO1wGYG8ZN9RuOeKxhkdJNx+obu//A/k04HfXujDqEoJORHqDSNysnggRVGyFQzWhzXQXwCUu53LfnwgesiJk0SlFQA26BLRGOTTMfqaG1x55n84eulAjLn2epAuXJj4M7o+T0ZOXmLp+tUQrKj9OnDnXHee+R/OoAGEu+YWwSejbrX5QglRFEXJkob07XDnmf/hVMDG47LPD5FSAAwfPnwAgNmicUKnz87pbv9slY6JInSa8I9YAHwFcngUcx7QAQg/x7ryeF9Od/tn6zMjCFdMl1EB0Ln1qHeom4GiKAdjGNFzIGEec9AkI9Ak9RGylLtpurNkJoBBIjGKhlSievalMtJxVNXsy+EfPFQ0zLBgMDJNRj5eEA7UTgdgCMWoIMyflQ+P5D7dd2b5ERJfPBySCnSfKiEdRVF6wTCOHgibf+d2HodFuDEYrA/LCifn5xSR8DNL46w5jnX4k0kfUIrwmeJFokbiz8O9gomEv+u8E5zr8CdTWTFwlYxVOsJM8SCKovQG2Z2XQdIbbA4rJ858W1YwSeupYgWAXlaO4ExHNjk6IvC5c6CXlYkFYZwiJxsvELs+BpcCF0/Jn02hh3PJFB8qSkWj0IkSUlEU5fA0Bl/jdhK9RcRXj6wYL+V1cuECIByuDQIYLxKjctpMT/z6/4ReMgCVU4QXPY6qrh5bKSOffLbvOx4lEuPcCfIO9smFgcXAF44RLljG94frQ1HcZgSiZwKUv5vP/l1ZZ3H3HBmBhNcqbRufJcH3litP8N7jzsoTZiGx9DmREFqm204ZwYislPJSptsWjjF7ond+/X/ivEk67l8ldGJQv7g+3CZ6loFSCORdAmPDhAsn+3B8lDBiSM/v6607bayMMR55I4ONzXLGIuZLANwpGke4ACCmqMjn/RVDMXC0UAhXDKwdB9+gwci07nI7lYIWLCd8ZkT+7vw/lAkjNVQOJOzoUPOLohQ6vw+48Ww/5k7R/q1HSdTQEDWAy6dreGCVjZ88n0Y6Izzk5HC4Ntjc3JgUCSJ8Z2WIFQDlRx2THx3/skWE8vpj3M6i4E2t1bx6eWBqnfcKF0VRsuP3AQ9fWYTLpumf2qBM1wiXT9fx8JVF8IvvEyZYuvABRcJ3KGIIFQADa48UTcE1ZXX1bqdQ8CaO9O4k6uXcFUXpnRvP9mN6FsX+9DoNN5wlXgEw8XGiMcTvUMRC7ySWVI0QTsEtXs7dK8aEPPjzf59aD+euKMrhjQ0T5k7Jfhq9dKqOqCE4/Qr++AakvAZIQu/DlQzzblv84rB3c/eKI4LenURrAt7NXVGUw7twsq9P55LoGuFLk0U3N7Pwmwsy1iiF+p7pAwXfp3eRT7QXgHJYFQO8O4kOFu4FoChKPpsR6fv9aUZUdPol4V4AEh4BCBYAJd69S+oDvJu7V5R56P3/A5Xl4aFFiqLIUz2k71Po8CHC9wfhpuNql5KiKIqi9IHIS77M7r8iLF4AMNpEPm517hFOwS3WXu/m7hXt3W5n0Hftne7/D64oinOadva90dnH4i1khOZeQM4KgFASmXbh7+CaTHu72ykUvF17vDuJ7lL1oaIUtFfifb8/rYiJdknlnYIBZBQALDQLdjV/LJ6CS7qat7mdQsHbnPJuAeDl3BVFObxHVluw7Oz/P7dsxiNrhFqFA6AGwQAyHgFQs8jHO5u2CqfgFi/n7hWbEt6dRBs9nLuiKIcXM+0+nfmx8DUL8WbBFQBCTCyAjFbAgkl0NKwXTcE17fH33E6h4K3dIn6YkFvWbhGt8BVFyXc3Pp/Byobe36dWNti46XnxwwCI6XXRGOKtgMFCBUDre/8A8mA3ZLaYbbSt/4fbaRS8VY22Fy8P2AysavRg4oqiZCWdAS6+pxv3vpr51McBGQu4Z4WFi//YjbT4bwNb8/My0SDCDYmZOEbc9/cZM6070bFpIwbWjhNNJac6GjYg07bb7TQKXqqd8dZWGxM81ld/3RZGizoJUFH6hXQG+NGfM3jgdRsXHqtjRlTDiH3v+W/dyXglZuHRNbb4sv+/rG5qiqdEgwgXAD6f9qaVBgPocxWQWvGS5wqAlleWiIawfUVa6OOPN+6QkU++qq4eW5npthMQWG16cq3luQLgqbXCS3yeuD6MYMTTVY6ZjKtuTf2cEYieDeJnZcSKN9v4yXPOP7Zk4gdlxBG+q+6rQt4RidHy2t9gd3WKppIz1t492LFaePXlvXy/ucuw7zsKbfR45i0LezzUD6C9C3j2beE1vnf7w/WhKG4zU7HFBMTdziMLbSVdJY/LCCTnZxXh7yIft9rbkFj6vJRUciG59DlYoj0ACH+Tk40XsND1sWsP8ODr4ptmcuWBVRZ2C/cA4OUSUlEU5fBsEG5zO4neYuY7P9r9rnAPAEBWAWCL3eABwFz8GKzOvTKycZS1twPNzz8hHMdm/FlCOp5AzMLf9a7lFjq6ZGTjrLZOxl3LZezwxVIJ6SiK0gtMJfcD8MJ73a2k2wtkBZNSAPhL9v4NgNCOuPTOFmx/cqGMdBzV9MR9yLQKF1/bk8n4azLy8YLmVOOrAEyRGGYrY8FL+b8KcPOSDFLtgo/FCS2VqSJVAChKjpjmOx1g+2tu53F4dL1pbkrIiialANi2bdteAItE45gvPIU9H+Tvo5iOxo1ILHlGQiS6F4B3X3DPngXgXtEgf1qZwTvb8nfP2Vsf2Vj4moR3/xlPr8d6D+16UBTvM1ONzwMQX951CmGNmRz2O5khpW2ttoEHRGNwxsKmW2+EtadDRkpSZTra8cFtN4Et4Rt8OmPznTJy8hKfZf8egNBP+LQFzHugG617868I2L2XcfWDaWQkzP/E9Ih4FEVRssWU/iaAfOxPvwtEcwAJzxf3I60ASCbjrwJoFI3TZTbhw9/+XMZEKw1bFj6842foSmyXEe7PO3bE8/ECc9THLY3bADwtGmfzDsY3Hs1ImWhlyVjA1x5O46MWKYXJu82p2HIZgRRFyU4i8aHJhDMAtLqdy34yBFxkmrEPZQeW+XI1g3GzjEC71q3Clj8uyI8OgczYfPfN2P3WG1LC2cAdUgJ5kKzvvnS9he8+mc6XywPzn0jj7xvkPNEh8P9A7JhxRVEEJBLxt5ns2QDSbucCgAm4sjkZ/6sTwaV2VykfbN/PgJQj8lLLXsDmu292dSWALQsf3vkr7BBv+vOJTl23pby+4UX7vruUhg+PrbEw/wk5S+59lbGAax9LY9FaaUlsL6tgtfyvKC5LJBpfgkazAbj5PDpDwOXNyfj9Tg0gtQBobGzsItAtsuKllr2AxgU/dmVPQKajHY03/1Dm5A8AJWxpb4RC0YtlBvWCUCh6MVvaGwBKZMV8bI2FKxamXdkTsHsv47L7umVO/mDimxobGz3wsqOiFD7TjD2rsz0D7uwJ2EXAOU5O/oDkAgAA/MUdfwCwSVa83etex/vf+yr2bBI++bDXOho3YsN/fVXasv8BBhLzg0YoeldNTY20yTBf1dTUlBih6F3E/CCAgbLjv/y+hVn/0423t+auCHjrIxuzftMtbdl/n42JRPU9MgMqiiKmKdX4ZsbGZNFmd1khrIFGE5xa9v+/QzkgHIx8noG/yIxJuo7Qaeeiavbl0AeUygz9T9beDjQ9cR8SS57JyaMHBr1JGs82zfgHjg/mAsOIjGabFhF4gtNj+XTgiuk6vjPLj7JiZ8Zo62TcvCSDha9Z8h89MJ1jpmLPSY7qONGzALZUjRIaf1TTFqHPq7MAlN4KBaIXEfECAIZDQ7QCdH3Pq35yd/sfimMXvxGMPA3gXNlx/RVDYZx9PoIzz4ZeMkBKTGvvHiSXPofm55+Q0eQnW7ug0WWmGZNyGEW+MIzoObB5IYDBuRw3WE6Yd6KOS6b4MFBSIdDe1dPe967lEpr8HNwiMxk/34nATlMFgNKfDB5cM7jYX/wdgL8CICQpbBsz30m6vUBmk5/ecOzirxo6ZoTl0/8BxlAn4utlZRg69RQEZpzac5IgZflVmNHe8D5aXlmCHauXiff2F8PMdEsiNewHuar8nHOiLxTY/nMi/g4cvL4Op6IU+MIxOs6bpGPCSK0vlwfWbmE8tTaDZ9+W0dv/kJKk2/XNzY1Jx0ZwkCoAlP6otra2uLVVn60xX8XAccj+ZF0G8DoTP1jSVfK4rN7+2XL04t93zOIzTo/jGzQY5fXHoKyuHgOqR6A4VAV9UAX0kp5HBVbnHlitu9GVaMKebR+ho2E92tb/A5k2oe7F0jGw0maak0rFmtzOpS8CgWiVRvwYAce7ncv+KgcSptZpmDhSQ51BGDmUMLSMUFbU8+/bu4GWdsZHLYy4aWPdFhurGhktHY7vK2AmfDGRiHv2XAhVACj9XSAQLSfCNA08A8AkBkZSz+pAOQg2GG0MpAB8oBE2gGm15udl+07SdZXjF384FFnAjG87PU4BSTLZFycSjS+5nUg2woHaE5i0RwEMczsXD/mlmYx/XySA6AQsOgGqAkBRvEv6WwAHak6U/xcDK5wep4AEibW/GsG6HyEHfz8SaEaw7kdM2t+gJv9sLDWT8R+5nYSiKP1XDiaYdenudPc5AN5xfqyCoQP001Awsri6emyl28kcSnX12MpQMLIYoJ8C0N3Ox0Pe9Xf556DnkCRFURRX5OQX5q5dm3dZTKcDkN7LuJARcHq62/5HKDR2qtu5HGhYIDop023/LwGnu52Lx2yyWJ+1rXV9i9uJKIrSv+VsiTmVijXZsE6FKgKyQsBwgr3MCNZ90+1cPmEE675pa/wagCPczsVjNms+/ZRUaoOUU6UURVFE5PQZczK5qdGGfyqAf+RyXM9jFAF0mxGI/Hnw4Jqcvle/v0AgWm4EI48BdFtPTkrv8Xs+yz5++/YNYrvWFEVRJMn5JrNkcn1zV7r7JIBeyfXYDmFm/jWBLwfIubfFAYDwhRJ/0RuGMXa8o+MchGGMHe8jXgvgAmdHoj0EvpyZbkbhnIq3rDtjTd93JLKiKEpecGWX+a5dm3eZyWEziXAjAKkN1XOsnUAXJFIN32tONizUbZ4IxnonB2QgAtteYwQiX3FynP2FQpG5sO3XGYg4OQ4BcSZMaU42LEykYt8F8CW4exqXKAbo9kDSf9rOnR/kV9MJRVH6PdffgTUCdWeCaCGAvN3tfgjryLIvaW5pfH//fxgIRMt14j/C8V/KAIA/+Yv3fGPbtm17nQg+fPjwAemu0jsAfNmJ+Ad43GL6SioVa9v/HxrGuKPIth5g4LM5yEEeQgts+zIz1fi8k8OoPgDqiYrDOsDYDOKXSec/Njc3OvoDR8kt198zN1MNizM2PsPgJ93OpVcI3QD/2ExWHXfg5A8AqVSszUzG5wD8zZ4/66gvp7tKVwWDY2plBw4Gx9Smu0pXwenJv+e/5zfNZHzOgZM/AJjmhveak+WTmXEDgLSjucjzOCN9pNOTv6LkwEAQ6gG6hi3tbSMYuaMe9Wr/T4FwvQAAgB074h8nkg2zmbTTAG5wO59DIeBF0uwJZrLhZ4fr2W8mG+4gC8eD4fRPlGM06GtDobr/kBUwFKr7Dw36WgDHyIp5UIwtZOF4M9lwx6f/wXXpRCp+EzR9AoGXOJqTmE3EfKaZjM9JJD403U5GUSTTAXw9Fcy8FAzWl7mdjCIuLwqATyQSG5eUV/B4Ar4BYKvb+XyCgLeg4XPNyfjp2SyBNe+Ir/EVaxMBOH2ucwUxPWmEIr8BJvr7Hmai3whFfkNMTwKokJbdwf3VV6xNbN4RX9PbD/SsBjScxmTPAvC2g7llhYFtzDzPTJaPa041SD0GW1HyD5+gI/2CKgK8z/U9AIdSj/qiVCB9CYi/C1CdCykwQEuZ6DeJxMaXILYjnYxg3Q8AuhHOd8xb5bPsC7LdcV49tHZ4RtceB+B00yEL4BvMZMPPIfjfNBiMztLA3wYwE+5cy+8y8+9Ky9L3b968udOF8dUeALUHwDUEvGrBf3oyud7Vo1SVvsvbAmA/FAxGpmmES8CYDafPl2dsIdAi+KyFsje8hAPRk5j4UQCGzLgHkdWBQqFQ7anE2kMAgg7nZRLTl5pTsWUygxrGuKPIsi9lDeeDeaTM2AexkxiLifie7ckG18+4UAWAKgDcpIoAb/NCAfBPNTU1JZ0dRSeDcAozTgZwNEQfYxC6wVgLYAWT/Vwi0bgaDr5/HgiMG6aR9RgBM5waYx+bCD9tTsRvwqFftdTCocj1zPgxHH4cxMAKm/U5DnfBo1Bo7BRi+2yAZgA8CYDAIxEAPf361zOwEsTPJhKDlgPr8mYzoioAVAHgNlUEeJenCoADVVePrcxk7M+SjSgDYwGKAGyg5xzmwQDKwCAA7QB2AdwB0BaAG4ioAbb2vlbUuqapqcnZBj7/5kRfKPDxfxPRdXD874BeIt26uLm5Mbn/Pw2Ha4Ns6Q8BfKqz44OZ+eZEqvqHh9s4KVtVVVWp3V0+GcRHMrgWoAgYo0AoBfZdHz3awWgFYQ8DmwnYBMYHrPF7mQy/0dLS2JrLvLOhCgBVAOQDVQR4k6cLAK8zAnVnQqP7wRjq8FAfM9EFiUTsNQAIV0b+H2t4AkCNw+O2MvEViUTDUw6Po7hEFQDKflZZTKcd7HVeJT+pAsBlhhE9AjYvAjDR4aHSYHwPAED4FcSXxg9nHTSabZoxdfhTAVMFgLI/tRLgLXn1GmB/ZJqxD8sr7GkA3e7wUH4QfgPCb+Dw5E+MB/3Fe45Xk7+i9AecxV4AACAASURBVC8MTNeQXhIIRMvdzkU5PFUA5IHGxsYuMxm7hpkuRs9+Ba/aC9CXm1PxS5xqT6woSt6bqhO/qIqA/KcKgDySSMUe1pkmAfye27lki4EYNG2ymYzd63YuiqK4ThUBHqAKgDzTlIrF/MV7jwXYOxMp0SMM/yTT3Piu26koipI3VBGQ51QBkIe2bdu210w2fJkJlwLI56X0LoCuNROxi9SmH0VRDkIVAXlMFQB5LJGIP6CzPR3AB27n8m+IPoJmn2gmY7e5nYqiKHlNFQF5Sr0G6AEjK8YP6Srqvh/gs9zOpQc9X9xddOlHu9/d6XYmiru8/hqgaCOkQhMM1pfpSL/AwHTZsQv1FcGhQ2sHFenadAZmgDEJhFEAKgFUgJABo4OAJMAfMrABoNXQrGWmuSnhdu7q4vcOCgej32XwzwD4XMohQ6AfNSdjv4aD7ZIV71AFQOFRRcDh7WtLfwEDXwUwGdkf8sZgrCHCg74u/6PbWte3OJDmYamL32PCgdoTmLRHAQzL8dDbie0vNacaX8nxuEoeUwVAYVJFwMENH1Q/NF2c/i6ALwMISArbToQ/ZGz9FofPSvk3ag+AxzSnGl8h3f4MgKW5GpOBFRbrE9Xkryj9QzK5vp21ktMAXi47tlebBYWD0dnp4vQGAN+DvMkfAMqY8W2d7MZwKPKTetQXSYz9qVQB4EGWVawjh48BCLCINLXkryj9iGm+02Gj6CwCXnUg/FQf8V+Dwfqyw/9Rd1VWRqqNYOTvDH4CQMi5kbiUGTekgulVoVDtGOfG+RdVAHhMOFB7gob0mwBOyuGwJ2lIvxkO1J6QwzEVRXFZMrm+3YL/dCeKAAam60i/kM9FwLDA2Ik+DWuQ2/vtRGJtnRGodXzTtyoAvIPCwej3mLSXkfvn/wAwjEl7ORyMfg9q74ii9Bv9tQgIhSLn2mS/AqDKheErQNrTRjB6hZODqALAA0ZWjB9iBKPPMviXcO8NAADwMfiXRjD67MiK8UNczENRlBzqb0VAKDR2FjGeADDQxTR8AN/jZBGgfsnluWGB6CSb+AkAR7idywE+1JjO356KrXU7kf5MdBe+6C549RZA/9If3g4IBuuO0UArAOTLJsUMmM81Uw2LZQdWKwB5LBSKXm0Tv4r8m/wB4Aib+NVQKHq124koipIbhb4SEAzWhzXQX5A/kz8A+ED0kGFERssOrAqAPBQM1pcZoejDxPx7AMVu5/Mpion590Yo+nA+Ld8piuKcQi4CNKRvhzvP/A+nAjYeB06U+ghYFQB5pioQjWrofh3MF7qdS68xX0hIrzWMsePdTkVRFOcVYp+AcKDuDACzczlmliYZgaZvyAyoCoA8EgpEL7KI1wF0lNu5ZIuAKGz79VAgepHbuSiK4rxC6hNgGEcPZKK7czGWEMKNwWB9WFY4VQDkgdra2mIjGL2NiB+Cu7tORQ0k4ofCgcgDw4cPH+B2MoqiOKtQVgLI7rwcQLXT40hQTpz5tqxgqgBwmWFEj2jbrb0G8DcdHirDjO8w4zsAMk4OxIS56a7SlYYRzcfNi4qiSFQAKwEaO3//lYaIr5b1GrYqAFxkBOrOBPNaABMdHupjGzgpkYovSKTiC8jGVDDE3p86vImw+R+hUN0XHR5HURSXeXklwDCiZwFU50Rsh5R1FnfPkRHI0+/AhsO1QdvGZ4kpyqCxxIiAYKBnGX0ICAPBIADtYLSCsIeBzQRqIHAD2/Q+fMVvmOY7HbnN/ERfKPDxfxPRdXD674DxMnTrogPPnjaMMSFY+sMgzHR0fICZ+eZEqvqHwHJHVx4OZBhHD0SmazJpfCQDEQLqGBgFRikIgwCUoee/fxuAdgAdBN5igzaB8QETrU+nu1bv2rV5Vy7zzobqA6D6AOQTJ/sEeMHYMOHCyT4cHyWMGNLz+3rrThsrY4xH3shgY7O0I1VWm8n4FNEgnrr4hw8fPiDdWTITRCcDdDKA8RD/DmkA65hpJTQ8m0jEVsHBs+4DgXHDNLIeI2CGU2PsYxPhZ82J+E0ArEP8GT0cilzPjB/B4dUgBlbYrM9x+LhLLRiMTCWmswk8A4SJEO+caIOwEaCVxPxsZdL/t/VY3y0jWRlUAaAKgHzTH4sAvw+48Ww/5k7RoGsHv6Qsm/HAKhs/eT6NtPhPISbdNpqbG5MiQbxw8dOwYN3xNugS9LyiMcjh8bYSYRGTttA0N74rM3A4ED2JiR8FYMiMexApJu3iRGLjkt784Z62l/ZDkHvE5cGYxPSl5lRsmcygoVD0aA18KTNmAxghM/ZB7AbxYrK1PzWnYsvhYLHYG6oAUAVAPupPRYDfBzx8ZRGm1/XuN9SrDTYuuqdbuAgg0AXNydgTIjHydg9AbW1tcShQd5URjDTYoFcAfBnOT/4AMIIZ34Ztv2MEIkvDwcjnIV4okRGs+yETL4Xjkz+9rlvWhN5O/gCQSGxcolvWBIBedzIzAAYTLzWCdT+E+H9TzQjUnWkEIi8T89vM+Dacn/wBoAJMFzHx341gZH04GPl6VVVVaQ7GVRTPcLJZUL658Wx/ryd/AJhep+GGs8T7+TDxcaIx8q4AGD58+AAjEPlW225tExHdBSAn5yIfFGEmA38xgpG3Q6Gxs/oSorp6bKURjCwG6GcAdMkZ7o8BvtVMlp3Q1LJpa7YfbmrZtNVMlp0A8K1w9letDtDPjGBkcXX12Mq+BAgHI6cbgcg7IHoehFNkJ5iFcQzcYaXLGsPByNfrUV/kYi6Kklf6QxEwNkyYOyX7afTSqTqihuD0y4iKBcizAiAcqDsj3VW6HoTfIL/eyRxPbL9oBKNLsul2F66MHJvpstcB+LyDuQFAKxPPNpMN3wLWpfseZl3aTDZ8i4lnA2iVlt3BfT7TZa8LV0aO7e0HQqHo0UYgspSBv4JQ72RyWRrGwB2pYDpmGNFz3E5GUfJFoRcBF072HfKZ/6fRNcKXJov+HmThNxfyogCoGjpmhBGI/JmJFiM/D77Zh0+Fba8LBSI3ABP9n/YnjWDdN1jHShDEHnIe3ts29EmJRMNTsgImEg1P2dAnAXhbVsyDIoxiHSuNYN1h2ltO9IdDkRuJeW0O3loQUQObnwkHI08FAtF87CeuKDlXyEXAjEjfn2TOiIpOvyTcC8D1AsAwoudYuv42CF9wO5de8hPhJ+Fg2xuGMe7fWvYGAtFyIxh5DKDbwXB4SZjv9RfvmZJMbmiQHTmZ3NDgL94zBeB7Zcf+PxhFAN1uBCOPHew931AoerQRbPtfZlwP4FOLrnzBwH/oxOtDoci5bueiKPmgUIuAqiF9n0KHDxHefyrcF8G1HbD1qC9KBbt/BdA1buYhqAPAl81k/HEAMIxxR7FtPUkQfzZzGHsJ/LXmZMN9Do8DAAgH6y5n0O8AONrel4EYafp5prnhPQAwAnVfAmn3AOzVTXYMwq1movx7Yo9m8pfX3wLwgA4wNoP4ZdL5j83NjevdTkhEob0dEP95Ccr6eF5rexcQ+UGnyPBdZjJeIhLAlYl3ZMX4Id1FXc8VyEXAzHSLRvb7DO13Tk9WBMRtotmJROwdJ8c5UCgUPVpjXsRAxNmRaA/B/prN2pFEfJ2zY+UGAyu6093n5HNDob5SBUBOWQDuDCT98/OpF0W2CqkIWH5dESLhvq0CbGxmnHxzl8jwKTMZD4oEyPkjgEAgWtVV1LmiEP7y9yEivo5B9zk9+TP4yW7L/n+5nvwBIJGIvdNt2f+PwU86OxKXMui+Qpn8AYCAGcV+/8rKykg+bWxVvEcH8PVUMPNSrk7Jc0IhPQ54Jd73+ndFzBYcnXcKBshtARAMjqnViV/z4nG3riJ0A3RtItkwu6Wl0end+YfU0tLYmkg2zAbo2p6clN6jo3w6rTKMyGi3M1G8jk/QkX5BFQHue2S1BcvOvgiwbMYjaw7VoLW3SHjvV84KgEAgWqVBXwqgJldjFoitIPsEMxm7ze1EPmEmY7eB7BMAZN1voF9jHgkbS9UbAoooBqarIsB9MdPG/auyn8gXvmYh3iy4AkCIiQXIUQEwsmL8EJ34RajJPysEvKj7McE0G1e7ncuBTLNxte7HBAJedDsXjxmta7y0r02QFOUThVQEoKfbqyfd+HwGKxt6P5mvbLBx0/PihwEQi3dudbwAqEd9UXdR13PoObhH6R2Lma5vTsbPaGqKp9xO5lCamuKp5mT8DGa6Hoc+cEg5EOPITNp+AjhRvB+o0q8VShEQSPpOBfBbePA+ks4AF9/TjXtfzXzq44CMBdyzwsLFf+xGWvxb2pqfhc9UcfwtACNY9z8AXev0OAUkAQ0Xmmb8b24nkg3DiJwCG48ACLmdi1cQ4TfNifh8t/MQod4CyA8EvGrBf3oyub7d7VxEhMO19WzRlWD6HAg16Dna3TMiYQ0XHqtjRlTDiH3v+W/dyXglZuHRNbb4sv+/rDKT8WmiQRwtAAwjeg5s/rPT4/grhqL8qGMwsPZIlFSPRHFoGPzlg6GV9LwiaXd2It22C12J7ej8eAs6Gt5H63v/QKZVeBOlVAystJnmpFKxJrdz6YtAIFqlET9GwPFu57K/YDlhaq2GiSM11BqEEUMJgYGE0n1tmvZ0A6kOxtYWRoPJWLfFxqpGG6l25w/6I9Ds5mTM4TcrnKMKgPxRKEVArhmB6NkgftbtPLLBxFcnEg13icZxbGKuGjpmhKXrbwMQbld4MHpZOSqnzUTljFMxsHZs9gGY0bFpI1IrXkLLa3+D1d4mP8kssiGmBc2pYd8Hlos/HHLVib5wYPsvmHg+XGzwNLgUOHeCjvMm6vjsyOyfdDEDb2218eRaC8+8ZWHXHgeS7JFiSh+VSHxoOjaCg1QBkF9UEdAnWjgY2eB8jxNp2oq7i0d9tPtd4V+wjt2gjUDkz0609y0aUgnjrDkIzjwTWrFQE6R/sjr3IvnyYpiLH0N6Z4uUmFnYBY0uM82YpyrQw9m3+rMQwOBcjhuuIMw7wYeLp+j//IUvqqMLeGh1Bnctt2C2yl8VIODp5mT8i9ID54AqAPKPKgKyFw5F/pMZv3M7j95g5l8nUg3fkxHLkQIgHKg7Y9/BPtKQT0fo9Nmonn2ptIn/QFbnXmx/ciHMF54CZ5zfi8KgN0nj2aYZ/8DxwVxgGJHRbNMiAk9weiy/Dlx5vA/zZ/mkTfwH6ugCFryUwZ9WZmRs4vk/mPAfiUT8z3KjOk8VAPlJFQHZMYyjB8Lu3ABghNu5HEYrNKvONDclZASTXgAMHz58QLqrdD0knupXMqwao6+5AaVHCJ9+2Ct7Pohj0603ost08FE80d0DSruu3bx5s1Az6HxXU1NTsndP8a1gvsqpMUYHCXfO9WN8dW7aWryzjTHvgW5s3iFvNYCAeHOy/CivnRmgCoD8pYqA7BiB2rNA2nNu5/Hp6FqZPWGk3zHTnaXzIHHyHzxpGsb94u6cTf4AUDo6giN/+QcMnjjVifAdTDTXTMTmFfrkDwCbN2/uNBOxeUw0Fz2HJ0k1q17DC9cW5WzyB4CjhxNe/FYRPlcvep73vzAQCQfbviotoNLvFcIrgrlkphqfB/CE23kcEmGNmRwm9TGF1LtmbW1tMQjSXmsKnHIGxsy/EfqA3L8JopcOxJj5NyFw0ukyw3aSbk9OJGIPyQzqBYlE7CHS7ckApBU9Fx6n457L/Cgvyf1ew0EDCH+61I85x0otAn5cU1PjzPMtpV9SRUB2mNLfBPCx23kcxC4QzZG9SVxqAdC6iy4DIOXAk8ApZ6DmK/NBmrwbbLZI11Fz1XUyi4ASy9IceSvCC/Z9dykT3IXH6bj5PD90zb2TpH06sOB8qUWAsbe96GJZwRQFUEVANhKJD00mnAHAtTNXDiJDwEWmGftQdmCZnciIiKSc4DZ40jSMuvJbALl3c/8nIoz6ynykW3dh9zrhzovQgG/Aw72vRWjAN2XEmVWv4Vdf9OXL5YFfn+dHqh14+X0pOwOvBfAnAM43IVBgJuN5cBX9i1NH5e5XBKg9AYeRSMTfDoVqZxNriwH4XU6HCbiyORn/qxPBpa0ADAvWHQ9gjGickmHVOOLr33f1l/+BSNcx+us/RHFIyhku51YPrR0uI5CXVA0dMwLAuaJxRgcJt1/o7i//A/l04LcX+jCqUkJOhHrDiJwsHkjxIicPyFErAb2XSDS+BI1mw4F9S1nIEHB5czJ+v1MDSCsAbNAlojHIp2P0NTe48sz/cPTSgRhz7fUgXbgw8Wd0fZ6MnLzE0vWrIbji5NeBO+e688z/cAYNINw1twg+GXWrzRdKiKJ4lCoC8oNpxp7V2Z4Bd/YE7CLgHCcnf0BSATB8+PABAGaLxgmdPjunu/2zVTomitBpwj9iAfAVyOFRzHlAB3CFaJArj/fldLd/tj4zgnDFdBkVAJ1bj3qHuhkoXqCKgPzQlGp8M2NjMgh/z9mghDXQaIJTy/77k3I3TXeWzAQwSCRG0ZBKVM++VEY6jqqafTn8g4eKhhkWDEaED3LwinCgdjoAQyhGBWH+rPw/PO87s/wIlQuHGZIKdJ8qIR3Fw1QRkB927Ih/bCbipzDTxQCcbNndCtC1ZqJqmhMb/g5Gzs8pIuFnlsZZcxzr8CeTPqAU4TOFFzugkfjzcK9gIuHvOu8E5zr8yVRWDFwl45RfwkzxIIrXqSIgfyRSsYe70t1jAfpvAFI68e3Txsy/hmbV9TT5yd15MJLWU8UKAL2sHMGZZ8pJJQcCnzsHepng/zOMU+Rk4wVi18fgUuDiKfmzKfRwLpniQ0WpaBQ6UUIqSgFQRUD+2LVr8y4zGftReYU9konm7vs76cuEzQBWMfHVxd3FoxKphu/Jau+bDeECIByuDQIYLxKjctpMT/z6/4ReMgCVU4QXPY6qrh5bKSOffLbvOx4lEuPcCfIO9smFgcXAF44RLljG94frQ+kdVQTkl8bGxq5EIvZQczJ+vMU01AadDuAXAJYyEAOwE0AGhG4AOxiIMfACEX5DoPN1P0JmMj4tkWi4S8apfn0lvJ06FKo9lVhbIhJj3M/vxMAxfTjS10UdDe9jw4++5nYa/cJfrynCMX040tdN67bYOOv2brfTyHtunwWQb30ADsepPgGAOjugPxK+qxKT0MztGzQEA0dHRdPIuYG14+CvEN4MqBxGoIzwmRHemvwBYMJIDcFyT80tigckk+vbWSs5DeDlsmMzMF1DekkgEBXfxqp4gvCdlUFCs/eg8RPyo+NftohQduTRbmdR8KZHNK9eHjhujPcKFyX/meY7HdAGnOlEEQBgqk78oioC+gcJKwCIiHx+YO040RRcU1ZX73YKBW+CB3/9f2Kixx5bKN5hmu902Cg6y4k9AQCm+oj/qvYEFD7xOxRxWOTjJdUjhVNwS0nVCLdTKHi1hgd//u9TG/Ju7kr+U48DFFESfqKQUJVYEpZyeKArisP9rqV/ztUEvDuJejl3xRvUSoAiQsIKgFgHQN9A7xaYPtFeAMphDR7g3Ul0sHAvAEU5PLUSoPSVjIeUQrOgVjJAQgru0AeoO7zTBnro/f8DleXhoUVKYVIbA5W+ULuUFEVRCoAqApRsySgAhJpG2J17JaTgDmvvHrdTKHgdHu6l097Jbqeg9DOqCFCyIV4AMFpFPp5uF/q4qzLtqmGW03bu8e4kukvVh4oL1MZApbckrACw0CzYZTaJp+CSruZtbqdQ8Lbs8G4BsDnl3dwVb1MbA5XekLACQM0iH+/8+CPhFNzS2bTV7RQKXqPp3Um0MeHd3BXvUysByuGItwImxEQ+39H4vmgKrmmPv+d2CgVv3Ue22yn02dotltspKP2cWglQPo14K2CwUAHQ+u5bAHvwlxIz2t5/2+0sCt5rDbZXLw+83ujBxJWCozYGKociYQVArADItO5Ex6aNomnkXHvD+8i07nI7jYKXame8tdV7qwBrtzB2dKgCQMkP6nGAcjA+4QA+7U0rDQbQ564nqRUvee5QoJZXloiGsH1FWujjjzfukJFPvqquHluZ6bYTECg2n1xrYYLHDtZ5am1GNIQnrg8jGPF0lSMh/w4wNoP4ZdL5j83NjeulJOaAZHJ9ezBYf7qO9AsMTJcZm4HpOtIvBIP1pyeT69XrUR4hfFdtaoqnALwjEqPltb/B7uoUTSVnrL17sGP1MtEw7+b7zV2Gfd9R6Kb4zFsW9nioH0B7F/Ds28LP//vF9VEABoJQD9A1bGlvG8HIHfWoz9v+lcnk+nYL/tOdWAnYrwhQKwEeIednFeHvIh+32tuQWPq8lFRyIbn0OVjCPQAceR6Xp1jo+ti1B3jwdeFf1DnzwCoLu4V7APSn66Ng6AC+ngpmXsrnSVAVAcon5BQAttgNHgDMxY/B8kBXQGtvB5qff0I4DjGWSkjHE4j5z6Ix7lpuoaNLRjbOautk3LVcvFjpT9dH4eET8n0SVEWAAkgqAPwle/8GYLdIjPTOFmx/cqGMdBzV9MR9yLTuFAtCaKlMFfWbG3xzqvFVAKZIDLOVseCl/F8FuHlJBql2wcfK/ez6KERemARVEaBIKQC2bdu2F8Ai0TjmC09hzwdxCRk5o6NxIxJLnhEPxHh6PdZ76Km2MAvAvaJB/rQyg3e25e+es7c+srHwNQnv/ve/66MgeWESVEVA/yZta7UNPCAagzMWNt16I6w9HTJSkirT0Y4PbrsJbInf4InpEQkpeYrPsn8PQOgnfNoC5j3Qjda9+VcE7N7LuPrBNDIS5v/+eH0UKi9MgqoI6L+kFQDJZPxVAI2icbrMJnz4259LmWhlYcvCh3f8DF2J7TLCvducii2XEchLPm5p3AbgadE4m3cwvvFoRspEK0vGAr72cBoftUgpTPrl9VHIvDAJqiKgf+rzu/sHYwQiXwXhbhmxAiedjpqrrgNIaorZY8aHd/4KO8Tf+wcAEPiK5mTDfVKCeUwwGJmuAStlxJpzrI4F5/vz4fLAtY+lsWitnIrEa9eH6Hv0W6pGCY0/qmmL0OdziYBXLfjz+j35YLC+zIk+AYA3vn9fDB1aO6hI16YzMAOMSSCMAlAJoAKEDBgdBCQB/pCBDQCthmYtM81NCbdzl3r7rK2tLW7drTUSMFxGvMBJp2PUV+aDdF1GuKyxZWHz3TdLm/wBbC+vsI9obGz0wH52+cLh2nq2tLUASmTEm3Osjl+f54fPncsDGQuY/4S8yR8evD5UAZAdL0yCqgg4vJqampLOjqILGPgqgMnoeQU0GwzGGiI86OvyP7qtdX2LA2keltT2ao2NjV0EukVWvNSyF9C44Meu7AnIdLSj8eYfypz8wcQ3eenmLlMoFL2YLe0NSJr8AeCxNRauWJh2ZU/A7r2My+7rljn59+vro7/wwnK4ehxwaMMH1Q81gpFf7u0o2srAQgBTkf3kDwAEwmQGfpsuTm8JhyILAoFxw+Rm25skJBs+fPiAdFfpuwDGyIpZHKrCmGuvR+mYqKyQn6qjcSM+uO0mWc/8P7HRTFaNByS8JO4hNTU1JXv3FN8K5qucGmNUJeGuuUX4zIjcPA946yMbVz8o7Zn/Jzx5fagVgL7xwi9htRLwf1AoFJlLjJsBhBwao50ZP0mkym8H1qUdGuP/cOSOGQ5GPs/AX2TGJF1H6LRzUTX7cugDSmWG/idrbweanrgPiSXPyN+EyHSOmYo9JzdofjOMyGi2aRGBJzg9lk8Hrpiu4zuz/CgrdmaMtk7GzUsyWPiaJX8TokevD1UA9J0XJkFVBACVlZFqn4YHAZyUoyHXMdkXJBKNm5weyLGfTEYw8jSAc2XH9VcMhXH2+QjOPBt6yQApMa29e5Bc+hyan39CvMnPwS0yk/HznQicrwwjeg5sXghgcC7HDZYT5p2o45IpPgyUVAi0d/W0971ruYQmPwfn2etDFQBivDAJ9uciYFhg7ESb7OcAVOV46N1ge66ZanS0R75jBUDV0DEjLJ/+DzCGOhFfLyvD0KmnIDDj1J6TBLPdDs6M9ob30fLKEuxYvUxCb/9DSpJu1zc3NyadGiC/nOgLB7b/gonnw8Hr63AqSoEvHKPjvEk6JozU+nJ5YO0WxlNrM3j2bRm9/Q/J09eHKgDE5fskCPTPIiAUipxLjAcBDHQphQxAV5nJmHATtUNx9AZtBKJng/gZp8fxDRqM8vpjUFZXjwHVI1AcqoI+qAJ6Sc+jAqtzD6zW3ehKNGHPto/Q0bAebev/gUybUPfi3mAmfDGRiAv3wveCQCBapRE/RsDxbueyv8qBhKl1GiaO1FBnEEYOJQwtI5TtO7OtvRtoaWd81MKImzbWbbGxqpHR0uH45kLPXx+qAJAjXyfB/fWnIiAUGjuL2F4MwOdyKgzQlU4VAY7/QguHIguY8W2nx8lHzPzrRKrhe27nkQuGETkFNh6BcxtkCk4hXB9GKNIFRp+Pv10/bATKqG8vI7WzjfrtW/s6NAB0mcl4Vm+l9KdJ8GD6w/cPBuuO0UArAJS7mcd+MmA+10w1LJYdWOprgAfTnCj/LwZWOD1OHlqaSDX8wO0kckALBaI/ho0lUJN/Ngrj+mC0iXx8u8Buyo/FN+pmnXt/f0Wu0L9/MFgf1kB/Qf5M/gDgA9FDhhEZLTuw4wUAsC7dne4+B8A7zo+VN971d/nnoOcQnIJVVRUJhIORvxDxTejbu7D9VSFdH0K7Zld0dfb5syuFjw/nPuVe6JPg4RTy99eQvh253/DXGxWw8ThwotRHEjkoAIBduzbvsphOB7A5F+O5rNGG/1S3OjvlimHUHmel8SYDp7mdi8cU1PVBgud/PLanHRZnv43AYsZje0VXiqmhr58s5EmwNwrx+xtG9BwAs3M5ZpYmGYGmb8gMmJMCAABSqViTDetzAD7M1Zgu2Kz59JnJ5PpmtxNxkhGMXgPWXgEwwu1cPKbgrg8Gx0Q+H89048E92U/kD+xpQ0NasFcKQSj3QpwEs1FI398wjh4Im3+Xi7GEEG4MBuvDssLls7A2YwAAHutJREFUrAAAgGRyU6PF+jQU5uOAty3Wp27fvqEwtiUfxNChtYNCwbpFAN8qsvGrnyrQ64NeF43ws9adeDWLRwGvdnXivyX06yAWz72QJsG+KJTvT3bnZQCqnR5HgnLijLRN9TktAAAgldqwvSvdfQJAr+R6bAct685kTkilNkjtHZxPQqHo0UW69r8EOs/hofYC9GUiLHB4nFwq3OtDs5YBEHoVMM2My1oSWNjR9qmPAzIM3NvRhstaTKTF39C0NT8vE46CwpkE+6oAvr/G4GscjC8VEV89smL8ECmxZATpm4n+cKD95243jBHExLSgOTXs+17r4Z6NcLDuMgb9HoCc1ouHQEDcJpqdSMTeAQAjEJkDoj8B7EzvZ+f1i+vDCERWgzBZRqw6vx9zBpTh+JIBGK737HfaZmWwonMvHt/bLr7s/y+rzGR8mqxgQP94Re7TePX77+tX86zsuE5iov9MJGJ3isZxfeI1AnVngmghes5P9g5CC2z7MqdbNbqp52CnAb8F6IocDLcobdlXtrQ0tu7/Dw1j3FFkWw8w8Nkc5CBPP7g+PhEORr7GwG/dziMbTHx1ItFwl+y4Xp0EZXHy+3vB2DDhwsk+HB8ljBjSs8C+daeNlTHGI29ksLFZWnOx1WYyPkU0iOsFANBz2IKu8a05WF6W5XGm9DWJxIem24k4JRgcV6fBWgTgM44OROgG83VmsuH2Q/+hif5QoO0HRPghAL+j+chR8NfH/oYPqh+aLk5/BPdapmarrbi7eNRHu9915OAPVQT0vyLA7wNuPNuPuVM06NrBp1XLZjywysZPnk8jLb4eyKTbhmgL8bwoAD7R037RugOgOrdzOYRNxHxNc6pB6kmH+SYUqvsiMd0LYJCjAxF9BLIuMM3G1b354z2rAZlbGDTL0bz6rl9cHwfjpY6fuejAqIqA/lME+H3Aw1cWYXpd77bUvdpg46J7uoWLAAJd0JyMPSESI+ebAD9NIrFxSXkFjyfgGwCEenzKxMA2Zp5nJsvHFfbNfaLfCNb9DzEtgsOTPwEv+vw0obeTPwCY5ob3mpMNpzHZswC87WB6Wek/18ehZWz9FgB5OyHtp5V02/ENpgWwMU6Ik98/39x4tr/Xkz8ATK/TcMNZ4v18mPg40Rh5tQKwv3rUF6UC6UtA/F0XVwTeZebflZal79+8eXPfW5Z5QNXQMSMs3fc4wMLPlQ7DAvgnZrLh5wBsgTgUDEZnaeBvA5gJd67lfnN99EYoEJlPhFvczuPT0bVmMnZbrkZTKwGFvRIwNkxYOr/okMv+h2LZjJm3pBEzRW6B+KuZjJ8hEiBvC4D9UDAYmaYRLgFjNpw/X34nMRYT8T3bkw394gyDfSdfPQQg4PBQCWi40DTjf5MZ1DDGHUWWfSlrOB/MI2XGPoh+d3303kS/EWx7HcBEtzM5KMIaM1E1LddvZKgioHCLgJvO8ePKGX3rgv6HVyz85DmRt1q4wUw2RAQCeKIA+KeampqSzo6ik0E4hRknAzga4o8xLADrGVgJ4mcTiUHLgXXS3jXKc3o4FLmeGT+Cw4+DGFhpM81JpWJNDg5DodDYKcT22QDNAHgSxDcN9ufrI2uhUO0YYm0dgAq3cznALmg0wTRjrnQiVUVAYRYBy68rQiTct1vnxmbGyTd3iQyfMpPxoEgATxUAB6quHluZydifJRtRBsYCFAHYAFAOwmAAZWAQgHYwWkHYw8BmAjaB8QFr/F4mw28c+OpZf2AYY0Kw9IdBmOnwUMxMtyRSw36Q619eVVVVpXZ3+WQQH8ngWoAiYIwCoRTYd330UNeHREag9iyQ9jTcP0v9ExkCzmlOxv/qZhKqCCi8IiD+8xKUFffts+1dQOQHQk8Osz7O+kCeLgCUvgkGI9M14DE43/pyFzS6zDRjnmqyoYgzgtErAL4H7t9jmIDLm5Px+13OA4AqAgqtCPB6AZBXbwEojqNQIDJfA5bB4cmfQW9Cw0Q1+fdPZjJ2L0BXAnCzA2ImnyZ/QL0dUGhvBzTt7Psmvm07hZsCtYkGUAVAPzFkyOgKIxB5et8ubWeXZonuLh3YNc004x84Oo6S18xk7F4wnwtgtwvD79q37J83k/8nVBFQOEXAK/G+T+IrYkJvAABg4UZWqgDoB4LB2s8W+XzrQPiCw0N1MNFcMxGbp16LUwDATDUshoYJANbmbFDCGmg0we1n/p9GFQGFUQQ8stqCZWdfBFg245E1luDo1CAYQBUAhc4IRL6iQVsFYIzDQ20g3Z6cSMQecngcxWNMM/6Bmayagp5OgcLLlp+iFaBrzUTVNLd2+2dDFQHeLwJipo37V2U/kS98zUK8WXAFgBATC+D+Bh3FIT074MvuYsJcxwcjPGqz/6v5vPlIyQ+h0BGGZhd9h4nn4V9vYYhqY+Y7SbcXmOamhKSYOaM2BtaXacgsBvgEt3PpC78PeOjKIhzfy26AKxtsXPzHbqQFFwAIdH5zMrZILIZScKoqI2MtjRcBdJTDQ3UR4dvNifjvHR5HKTAjK8YP6S7u+hIz5gKYjOzvRQzgdSZ+sKSr5HGnDvbJlf5eBNSjvigVTC8AcDWAvnXWcZHfB9xwlg+XTtUP2RUwY/X88v/p4rTw5A/A1v0wmpriKZEgqgAoMEYwcgGAPwIod3iozRrT7O2pWO6e7SoFKRyuDcLST2Li45gxFsBoAgKgfdcwo42BFIAPNMIGMK3W/LxM9OaXb/p7EQAA4XBtPVt0JZg+B0INvHPCJAAgEtZw4bE6ZkQ1jBjSM71u3cl4JWbh0TW2+LL/v6wyk/FpokFUAVAwTvQZwaafAXD0lLN9/uLv8l+yrXV9Sw7GUpR+wzCOHgh772KATnQg/CqL6bRUKubkPgzPMQLRs0HsqdeVmfjqRKLhLtE4qgAoAMOGjRtlW9YTYBzr8FAZAD82k/FfoWcJVlEUydRKQM5p4WBkAwNCffVzqK24u3iUjMde6i0AjwsH6s6wLevNHEz+CWg43UzGfwk1+SuKY5LJ9e2slZwG8HLZsRmYriG9JBCIOv2I0EtsEHJ2QqQEv5e150UVAN6lG8HIfzPR82AMdXYoXm7D/xnTjL/s7DiKogCAab7TYaPoLIdekZvqI/5rPr8imGtMJfcD2Op2Hr3QCs36jaxg6hGAB4XDtUG2tIcBfM7hoRigO8xk2XfUCXiKkntqT0DuhIORzzPwF7fz+HR0rZmMSVutUAWAx4QDtScwaY8CGOboQIQWsvmS5lRDnv8PoSiFTe0JyB0jGHkcwPlu53FQhDVmomqazFNV1SMA7yAjGPkvJu1lOD/5r9F0fYKa/BXFff29Y2AuMaW/CeBjt/M4iF0gmiP7SHW1AuABIyvGD+kq6noAwJk5GO63gaR//nqs787BWIqi9JJaCciNUCjyGWKsADDI7Vz2yew72Er62RaqAMhzwwLRSTbxIgA1Dg/VBuArZjL+uMPjKIrSR6oIyI1QqPZUYm0xAL/LqbCTR1qrRwB5LByK/KdN/Cocn/z5Pd3GsWryV5T8ph4H5EYi0fgSNJoNoMPFNDJOTv6AWgHIS8FgfZlG6T+A8SWnxyLGg1pR+7ympqY9To+lKIocaiUgN6oCtRMs0p4DUJ3joXcRcJHTR1qrAiDP9PTC1hYBGOfwUJ1gfNNMxf/o8DiKojhAFQG5UVkZqfbpeACMk3MyIGENiObk4khrVQDkkVAgehER3w2nD8BgbCHG+c074mscHUdRFEepPgG5YwRqz2LSfk/AcIeG6CDQT5uTwxbI3u1/KKoAyAM1NTUle/cU3wrmqxwfjPFMt5W5bOfOD3Y7PpaiKI5TKwG5M3hwzeBif/F3AP4KgJCksG3MfCfp9gLT3JSQFLNXVAHgMsOIjGabFhF4gsNDZZjxX4lU/DdQvfwVpaCoIiC3amtri1tb9dka81UMHAfAl2UIBvA6Ez9Y0lXyuKze/tlSBYCLDCN6DmxeCGCww0N9bANzksm4E33FFUXJA6oIcEcgEC0nwjQNPAPAJAZGUs/qQDkINhhtDKQAfKARNoBptebnZU1N8ZTLqXu7AAiHa4O2jc8SU5RBY4kRAcFAzzP0ISAMxP9v796joyzvPIB/f+87k0xuJCQzmVzARpkkYGq9cRYLinerVWzdXaqr1qqHqj1H11aqtutuLba6u3rY1q4e19a1WqtVevHaolJEtCp6Dt4RMgmCCjFzgYQkExIy7/vsH0CXYwUTnuedd2b4fv52fs8vCcfnN7/npiAAhqAwAMGwAjYKpEugupQr7yFQ+moi8XaOj3qcEKgPf3yLiPouvP4bKPwZtnNBrltLRJR7LAJoIgqqAJgyZUrZ2EjoFIicBMhJAA6D/s8wBmC1UvIiLDyeTHa+DA9b5OFwe5Ml6mEBjvNqjF1cEfy4Nxm/CYDj8VhElCdYBNB4FUIBII2R1uNcyEUA5sP76xk/EsFvlVj3JRLr3jEZOBptOxkuHoK5zSN7k1ZiXZhMrnvG43GIKA+xCKDxyNsCIBaLlQ70y8Uici2Aab4kofBnEfykNxVfCr2ugBWNtP4LID8EYJtJbm/kFdvJntuzdX0hvG1NRB5hEUCfJe8KgJ1t/vIrIFiI3N++tDfvuJDrUqnOpyf6webm6XXODvfXCjjdi8T2oAB1eyI16Tpg9ZjHYxFRAWARQPuSVwVAQ7j1TCXy3wAO9juXvVgGy1o43qWBaDR2DJT9CJQ6yOO8BpSoS5PJrt97PA4RFRgWAbQ3eVEANNVOm+pY9s8g+KrfuYzDmAhu6U1W3byvb9rRSOs/Q+Q2KJR4nM9bLuz5qdTaLo/HIaICxSKAPo3vBcCus/C/BDDZ71wm6E1Y1kWf7AbU1sYmBW3rHuzcsOgxdW+wdPuVmzZt2u79WERUyFgE0Cf5WACcEIhGen4M4Dp/89AyIsAVu59rbKxrneHa8jsoHOr1uFC4OpGO/9zjcYioiPDtANqTLxPvQdWHTd5RMvqEF5WoH0SwWCl5D1B3ACjzdCwg7orMTyY73/ZyHCIqTuwE0G45LwDC4RmNtjhLARye67ELnsLjo9kdF/f3b+z3OxUiKlzsBBCQ4wIgEpkWs2AvA9CSy3ELnmAHlFyXSHXe7ncqRFQc2AmgnBUA4XB7ky3qJXDynxAFbIJY5yaT6172OxciKi7sBBzYrFwMMnnyIdW2qD+Ck//ECJ6DjM3k5E9EXkgk3s7AKjsLUM97EH62LerpcLi9yoPYZIDnHYAOdJRsiYwtL5YNfzniKCWLkunOmwG4fidDRMWNywEHJs87AOnIjls5+U9IWon75WS680fg5E9EOZBKrRlSVuh0LzoBCjjWwtgz7ATkH087ALsu+XnU63GC1bWo+vwRqIgdilDzQSitb0SwqgZWKAQAcEdGMDbYj9HkxxjZ/AEyXe9h4N03kR3o8zKtCVPAi66S89Lpzh6/cyGiAw87AQcWzybmptppUx3bfgse3fBnV1ahbs4pqJt7Gipi0yceQClk1q9D+oVnsfWl5XCGfN2nokTJ4t504/eB57N+JkJEBzYWAQcOzwqAaLjtUS/u9i+ZXIfovPMQOeUsWKUhIzGdke1I/fkpJJ56GGN9W43EnIB+WHJxItH5eK4HJiL6NCwCDgyeFACRSPvpFtRSkzHFthE57atoPvdS2GXlJkP/lbtjBL1PPIyPH30QKuv9F3EB3nDFnZ9Mdq/3fDAiogngEcHiZ7wAmDJlStnYaPkaGHzSN9TYjEOuvhHlB7eaCrlPw+/Hsf6nizCa8HApXuTusvLRb2/cuHHEu0GIiPYfOwHFzXgBEA23fQeC/zIVr2bmHBx85fdhl1WYCjkuznAGG+64Bf2rjR/BzyiRK5LJzl+bDkxEZBqLgOJltACIxWKlg9us9QCaTcQLn3wmPrfgOxDLNhFuwpTj4INfLEZ6hbHVjBGx3Zm9vd1rTAUkIvIai4DiZPQegIF+uRgGJ/+Wby70bfIHdu47aLn8WoRPPMNUyJDr2jWmghER5UIqtWbIQfAMAf5iOrYCjrUxtjQS6ag0HZv2zWQHQKKRti4A03QD1cycg2kLF/k6+e9JOQ66F/8btq1+xUS4RxKp+HkmAhER5RI7AX+rtjY2qcS2jlXAXCjMhOBzAOoAVEOQhUJGgBSgNihgLSCrYDkrEon1Sb9zN1YANEZa57qQlbpxQo3NmPHvd+d8zf+zOMMZvHf9ZRhNam8MHHOUtPCyHyIqRCwCgJaWltBIpuRcBVwGYBaAiX5bVVB4TQQPBEaDv9k0sCbn588Bg0sALuQi3RgSsHHI1Tfm3eQPAHZ5BaZ9+wcQW7srEQxY6nITORER5dqBvBwwZVJHbTTS9h/bMyUfKeA+ALMx8ckfAASCWQq4Y6x07IOG+rbF4fCMRrPZfjYjBUBLS0sIwD/oxol+eX7Ojvrtj/Jp7ag//RztOEphvoF0iIh8cSC+HdAQaZ8/Vjq2FsD1AMIGQ1cqhWtscbsb6tt+2IGOEoOx98lIAbB9KHAqAK3NbSWT69D0j98wkY6nmuZfgmBNrW6YGZHIjPytdIiIPkMi8XbGRck8LzoBAGYHRP0pHzoBdXVtzdFI23MKagmAeu9GUuVK4cZ0ZOzl+vqY9l668TCzBCBykm6I6LzzjF3t6yW7rBwNZ+l/gRflnG0gHSIi3xT7ckBjePrRAQuvATgxh8MeLcpaHQ3H5nk9kKE9AHoFgF1ZhcgpZ5lJJQfCp34FdqXmv0kBCwAiKnjFWgTU17ed44q7EkBTrscGUA2x/hCNtF/q5SDaBUBDQywC4DCdGHVzTimIb/+72aEy1H1Rr+khwCzg6KChlIiIfFNsRUB9/fQvicISAH7uSA8A6h4viwDtAsB1cSQ0jxPWHX+abho5V3f8l3RDlNbXD80wkQsRkd+KpQiIRFqPEOX+FkDA67HGQQB1dzTc6kmLXLsAECXtOp8PVtei4hCtEL6oiM1AYJLupX7qcCPJEBHlgUIvAiKRjgYL8kcA+XQCIQCRX0ejbYeYDqxdACjoFQBVnz8CEE9eJfaWCKo6jtAKYQEsAIioqBRyEWBh7GfwZ83/s1TDxSPACUa7EgY6ANAqACpih+qm4JvK1g6tzysFLgEQUdEpxCIgGm3/CpDXd7TMjIZ7rjIZUP8UgKgGnY+HmqZqp+AXA7lrXyhARJSPCqkIiEa/UAFX3WkilqcEiyKRDq05d08GjgGK1h8g1DhFPwWflDZo586XAYmoaBVKESDuyMUw9JKtx6pEZa8xFczEPQBamyXsCt8vetpvAd27AFgAEFGRK4AiwFJQVxtLymMi6lsHVR822UQsA0sAmgVAqFw7Bb/YZdq5G/kjEhHls3x+OyAabZ8HSCFdzV45UrrDyJPy+XDOkYiIilwi8XYmEumY59FTwrNtUQPRSNvEP+kqY0lMbxCcPyuA49oFUyfv/H79UZ+LFzsVHno1i3W9ZsYSpS4CcJduHP0OgMKgzsedkWHtFPzibNfOXet3R0RUSLxcDvBTMADc8vdBLFtYggVzbbRHLZSXAOUlQHvUwoK5NpYtLMHN5wQRNPO1e9auW3i1mNgDoDWJZYcKdw7MDg3phijcH56IaD8UWxEQDAAPLijBxXNs2Nbe77SxLcElx9p4cEGJiSJA4NjaDxQZKACU1iw42rtZPwWfjPZu0g3BAoCIDjjFVAQsOjuIY1vHP5Ue22rhxnn6FYASdYxuDANLANKr8/GRno+0U/CLfu56vzsiokJVDEXA9AbB17848Wn0G7N3LhNo0byEDzBxFbCgU+fzma41uin4Zij+rmYEpfW7IyIqZIVeBJw/K7DPtv/e2Jbgn2bZmqMr7ZML+lcBa05iA+++CShzuzBzRSkXg2ve1Ioh0CueiIgKXSEXAXPb9v8dm7ntutOvaB8jN9AB0CsAsgN9yKxfp5tGzmW61iI7uE0rhrJYABARFWoR0DR5/6fQKZO1H8HTfrFQuwAIBKzXAWh9hU+/8KxuGjm3deUzuiHcQMB6w0QuRESFrlCLgEKmXQD09MTTAN7WibH1peVwR0d0U8kZZ/swtqxaoRVDgLc2b163xVBKREQFr9CKgJ4+d78/u6lPe+lb+xSZiXsAAMFzOh93hgaRXPakkVRyIbXsCTi6dwBo/s6IiIpRIRUBK+P7P4m/0Ln/xcNOqk8zgKECwFXak1niqYfhjGw3kY2nnO0Z9D65RD+QwnL9IERExadQioCHVjlw9uMqYcdVeOg1R3N06dIMYKYACIa2LwegtSNurG8rPv7dfSbS8VTPkl8iO6BdePVVVrvsABAR7UUhFAGdCRf3vzzxify+lxzEezU7AJpH8AFDBcCmTZu2A/itbpzE0t9j+P24gYy8keleh+Qzj+kHElnS3d09qh+IiKh47S4CAFnpdy57s+jJLF7sGv9k/mKXi5uezGqPK0pe0Y1hZgkAgAv8SjeGyjpY/9NFcIYzJlIyKpsZwvu33wTl6LZtAAU8YCAlIqKil0qtGQqnAqcBuAOA/v+ADRvLAhfeswP3/iW7z+WArAPc84KDC3+xA2P6P4VrBZXeTnQA2gcR94wVjbTFAcR0A9UcPRvTFt4EsXVvSjJDOQ66b7sB2954VTuWAPHeVHw6NI9OEhEdaBoaYh3KkQVQcioELQAq/M5pT20NFs7/Oxtz2y1M3XXO/6M+hZWdDn7zmqvf9v9/LydS8Tm6QUwWAIiG2y6D4G4TscInnoGWy68FxGiKE6cUNtz1n9iif+5/F1mQSHX+r6FgRESkIRpuPxuiHvc7j4lQor6VTHb9j24cY0sAAFBV496vAO0n8gAgvWIpNt59m5GW+/5SjmN28hf5MJwKsP1PRJQnEunOpwTI381nf2swNBp6xEQgoz32rVu3OpUVYRfA6SbiDW/sxvDGLtQceQysYImJkOOWzQzh/Z/8EH2rzO09EeCGDcPrVhkLSEREulRlZZ0L4Ey/ExkPpdTtPX1rjVycY7QDAADB0szPAaw3FW/b6lfw3vWXYXh97q7Nz3Svw9rvXWZkzX83AeKV1e49xgISEZERSkL3AyiEt+kHxHYXmwpmfJfdwMBAtqIy0ilQF5qK6WQGkX5+KbKDA6hs7/CsG+COjmDzknvxwd23ITs0YDS2AF//cFNX4b16RERU5DKZxFhVRV0ngAv8zmXf5PpEssvYHTKe7bCLRtr+AOAc03GD1bWInv01RE45G3aozEhMZ/swUsueQO+TS0xc8vNpliRS8XO9CExERGZEI22PAPia33l8KsFriWTTHOB5/UsE/hrSI02106Y6AftNKNR6Ed+urETt7JMRnnsaKmIzJn5aQCkMdb2HrSufwZZVK/Tv9t+7tKPk8HS6s8erAYiISF99/cFRUcHVAJr9zuUT+mHJUYlE5waTQT09Y7freMVjXo8TmFSDqo4jUNnagbLmqSitb4I9qRp2qBwA4IwMwxnYhtFkD4Y3fYhM1xoMrnkT2UGt24vHQwlwVm8q/ievByIiIn319W2Hi8ILACb5ncsuWQG+4sU84vkh+4b6tsVK4Rqvx8lHSqlbk+mu6/3Og4iIxq++PnaaKOspAEGfU1ECXNKbit/vRXDjpwA+qTdZ9T0FvOD1OHloRTI96V/9ToKIiCYmmex+FpbMB+DnvfRZLyd/IAcdAACoqWmpKQ2WrATwhVyMlwfe2pHNHt/X977nawxEROSNpnDsKEesJ5D7PQH9Alzg9fKx5x0AAOjv39jvKDkDwMZcjOezDY6yz+DkT0RU2HrS3a9nXcyCIHfPtwtegyVH5WLvWE4v2o9EpsUs2M8CODiX4+bQBiXuqclkt7GLkIiIyH/14fYLRNRiAFGPhhgA5AeJVOOdJo/67UvOX9oJh2c02uI8jeJbDnjLUfYZ6fTaj/1OhIiIzNu5nF36XUB9E0C9obCDSqm7xHYXJxLrk4ZijosvT+3t+iU+Bqjj/RjfAyt2ZLPnsO1PRFT8YrFY6cCAPd9S6nIFHAMgMMEQCsArStQDodHQIx9ue8eTG+g+i49v7R4dbAgP3aJELfQ3Dy1KKXVbMt18Q65aNkRElD/C4fYqEcyxoOYCmKmAg2Rnd6AKAhcKgwpIA3jfEqyFklVWUK3o6YmnfU7d/4k3Gm49CyL3AajzO5cJ2iJKfaM33fVHvxMhIiKaKOOPAU1UZnhrPFRW96CIOkggh/qdzzgtcZR8NZmOv+53IkRERPvD9w7AnhrC7ScqUXcCmOF3LnvR7UKuSqU6n/Y7ESIiIh05uQdgvHrTnSuqqt0jBbgK+fQ2s8iHAlxZVe1+npM/EREVg7zqAOypAx0l6fDYRRB1HSCtfuQgQFxBbg2nAg+swZodfuRARETkhbwtAPbUGJ5+tCvqIkCdDyDs8XDbROEJZeNXiUR8OXYe1yAiIioqBVEA7NbS0hIayZScBMHJSuEk7LxMSHcZwxXgLQieg8Lyymr3ue7u7lED6RIREeWtgioAPqm5eXpdNuseKS7aFTAdkDZARbHz/GUNgMpd/+kQFPoBDAKSAFSnCNYpQTwQsN7YvHndFv9+CiIiIiIiIiIiIiIiIiIiIiIiIiIiIiIiIiIiIiIiIiIiIiI6kP0fRO6Bj1AWr4kAAAAASUVORK5CYII=;" vertex="1" parent="1">
          <mxGeometry x="792.5" y="440" width="70" height="70" as="geometry" />
        </mxCell>
        <mxCell id="YaeXBy9BYN40PlVeFBTf-49" value="&lt;font style=&quot;font-size: 16px;&quot;&gt;SQL Server&lt;/font&gt;" style="text;html=1;align=center;verticalAlign=middle;whiteSpace=wrap;rounded=0;" vertex="1" parent="1">
          <mxGeometry x="200" y="50" width="85" height="30" as="geometry" />
        </mxCell>
      </root>
    </mxGraphModel>
  </diagram>
  <diagram id="hXh9fa2fIaA4FRY_yWqJ" name="Page-2">
    <mxGraphModel dx="880" dy="524" grid="1" gridSize="10" guides="1" tooltips="1" connect="1" arrows="1" fold="1" page="1" pageScale="1" pageWidth="850" pageHeight="1100" math="0" shadow="0">
      <root>
        <mxCell id="0" />
        <mxCell id="1" parent="0" />
        <mxCell id="454v5ZOSkwqWWJUFdsZ7-1" value="&lt;b&gt;crm_cust_info&lt;/b&gt;" style="swimlane;fontStyle=0;childLayout=stackLayout;horizontal=1;startSize=26;fillColor=#cce5ff;horizontalStack=0;resizeParent=1;resizeParentMax=0;resizeLast=0;collapsible=1;marginBottom=0;html=1;strokeColor=#7EA6E0;rounded=1;fontSize=14;" parent="1" vertex="1">
          <mxGeometry x="310" y="150" width="140" height="90" as="geometry" />
        </mxCell>
        <mxCell id="454v5ZOSkwqWWJUFdsZ7-2" value="&lt;font style=&quot;font-size: 14px;&quot;&gt;cst_id&lt;/font&gt;&lt;div&gt;&lt;font style=&quot;font-size: 14px;&quot;&gt;&lt;br&gt;&lt;/font&gt;&lt;/div&gt;&lt;div&gt;&lt;font style=&quot;font-size: 14px;&quot;&gt;cust_key&lt;/font&gt;&lt;/div&gt;" style="text;strokeColor=none;fillColor=none;align=left;verticalAlign=top;spacingLeft=4;spacingRight=4;overflow=hidden;rotatable=0;points=[[0,0.5],[1,0.5]];portConstraint=eastwest;whiteSpace=wrap;html=1;" parent="454v5ZOSkwqWWJUFdsZ7-1" vertex="1">
          <mxGeometry y="26" width="140" height="64" as="geometry" />
        </mxCell>
        <mxCell id="454v5ZOSkwqWWJUFdsZ7-5" value="Customer Information" style="text;html=1;align=center;verticalAlign=middle;whiteSpace=wrap;rounded=0;" parent="1" vertex="1">
          <mxGeometry x="320" y="120" width="120" height="30" as="geometry" />
        </mxCell>
        <mxCell id="454v5ZOSkwqWWJUFdsZ7-9" value="&lt;b&gt;crm_sales_details&lt;/b&gt;" style="swimlane;fontStyle=0;childLayout=stackLayout;horizontal=1;startSize=26;fillColor=#cce5ff;horizontalStack=0;resizeParent=1;resizeParentMax=0;resizeLast=0;collapsible=1;marginBottom=0;html=1;strokeColor=#7EA6E0;rounded=1;fontSize=14;" parent="1" vertex="1">
          <mxGeometry x="50" y="180" width="140" height="90" as="geometry" />
        </mxCell>
        <mxCell id="454v5ZOSkwqWWJUFdsZ7-10" value="&lt;font style=&quot;font-size: 14px;&quot;&gt;prd_key&lt;/font&gt;&lt;div&gt;&lt;span style=&quot;font-size: 14px;&quot;&gt;&lt;br&gt;&lt;/span&gt;&lt;div&gt;&lt;span style=&quot;font-size: 14px;&quot;&gt;cust_id&lt;/span&gt;&lt;/div&gt;&lt;/div&gt;" style="text;strokeColor=none;fillColor=none;align=left;verticalAlign=top;spacingLeft=4;spacingRight=4;overflow=hidden;rotatable=0;points=[[0,0.5],[1,0.5]];portConstraint=eastwest;whiteSpace=wrap;html=1;" parent="454v5ZOSkwqWWJUFdsZ7-9" vertex="1">
          <mxGeometry y="26" width="140" height="64" as="geometry" />
        </mxCell>
        <mxCell id="454v5ZOSkwqWWJUFdsZ7-11" value="Transactional Records about Sales &amp;amp; Orders" style="text;html=1;align=center;verticalAlign=middle;whiteSpace=wrap;rounded=0;" parent="1" vertex="1">
          <mxGeometry x="55" y="140" width="130" height="30" as="geometry" />
        </mxCell>
        <mxCell id="454v5ZOSkwqWWJUFdsZ7-12" style="edgeStyle=orthogonalEdgeStyle;rounded=0;orthogonalLoop=1;jettySize=auto;html=1;exitX=1;exitY=0.5;exitDx=0;exitDy=0;entryX=0.014;entryY=0.205;entryDx=0;entryDy=0;entryPerimeter=0;" parent="1" source="454v5ZOSkwqWWJUFdsZ7-10" target="454v5ZOSkwqWWJUFdsZ7-2" edge="1">
          <mxGeometry relative="1" as="geometry">
            <Array as="points">
              <mxPoint x="190" y="220" />
              <mxPoint x="250" y="220" />
              <mxPoint x="250" y="185" />
            </Array>
          </mxGeometry>
        </mxCell>
        <mxCell id="454v5ZOSkwqWWJUFdsZ7-13" style="edgeStyle=orthogonalEdgeStyle;rounded=0;orthogonalLoop=1;jettySize=auto;html=1;exitX=1;exitY=0.5;exitDx=0;exitDy=0;entryX=-0.018;entryY=0.349;entryDx=0;entryDy=0;entryPerimeter=0;" parent="1" source="454v5ZOSkwqWWJUFdsZ7-10" target="454v5ZOSkwqWWJUFdsZ7-7" edge="1">
          <mxGeometry relative="1" as="geometry">
            <mxPoint x="192.37" y="238" as="sourcePoint" />
            <mxPoint x="290" y="360" as="targetPoint" />
            <Array as="points">
              <mxPoint x="190" y="250" />
              <mxPoint x="255" y="250" />
              <mxPoint x="255" y="360" />
              <mxPoint x="300" y="360" />
              <mxPoint x="300" y="361" />
            </Array>
          </mxGeometry>
        </mxCell>
        <mxCell id="454v5ZOSkwqWWJUFdsZ7-14" value="" style="group" parent="1" vertex="1" connectable="0">
          <mxGeometry x="320" y="280" width="150" height="110" as="geometry" />
        </mxCell>
        <mxCell id="454v5ZOSkwqWWJUFdsZ7-6" value="&lt;b&gt;crm_prd_info&lt;/b&gt;" style="swimlane;fontStyle=0;childLayout=stackLayout;horizontal=1;startSize=26;fillColor=#cce5ff;horizontalStack=0;resizeParent=1;resizeParentMax=0;resizeLast=0;collapsible=1;marginBottom=0;html=1;strokeColor=#7EA6E0;rounded=1;fontSize=14;movable=1;resizable=1;rotatable=1;deletable=1;editable=1;locked=0;connectable=1;" parent="454v5ZOSkwqWWJUFdsZ7-14" vertex="1">
          <mxGeometry x="-10" y="40" width="140" height="70" as="geometry" />
        </mxCell>
        <mxCell id="454v5ZOSkwqWWJUFdsZ7-7" value="&lt;font style=&quot;font-size: 14px;&quot;&gt;prd_id&lt;/font&gt;" style="text;strokeColor=none;fillColor=none;align=left;verticalAlign=top;spacingLeft=4;spacingRight=4;overflow=hidden;rotatable=0;points=[[0,0.5],[1,0.5]];portConstraint=eastwest;whiteSpace=wrap;html=1;" parent="454v5ZOSkwqWWJUFdsZ7-6" vertex="1">
          <mxGeometry y="26" width="140" height="44" as="geometry" />
        </mxCell>
        <mxCell id="454v5ZOSkwqWWJUFdsZ7-8" value="Current &amp;amp; History Product Information" style="text;html=1;align=center;verticalAlign=middle;whiteSpace=wrap;rounded=0;movable=1;resizable=1;rotatable=1;deletable=1;editable=1;locked=0;connectable=1;" parent="454v5ZOSkwqWWJUFdsZ7-14" vertex="1">
          <mxGeometry x="-20" width="150" height="30" as="geometry" />
        </mxCell>
        <mxCell id="454v5ZOSkwqWWJUFdsZ7-15" value="&lt;b&gt;erp_cust_az12&lt;/b&gt;" style="swimlane;fontStyle=0;childLayout=stackLayout;horizontal=1;startSize=26;fillColor=#ffcc99;horizontalStack=0;resizeParent=1;resizeParentMax=0;resizeLast=0;collapsible=1;marginBottom=0;html=1;strokeColor=#FFB570;rounded=1;fontSize=14;" parent="1" vertex="1">
          <mxGeometry x="570" y="150" width="140" height="70" as="geometry" />
        </mxCell>
        <mxCell id="454v5ZOSkwqWWJUFdsZ7-16" value="&lt;font style=&quot;font-size: 14px;&quot;&gt;cid&lt;/font&gt;" style="text;strokeColor=#FFD966;fillColor=none;align=left;verticalAlign=top;spacingLeft=4;spacingRight=4;overflow=hidden;rotatable=0;points=[[0,0.5],[1,0.5]];portConstraint=eastwest;whiteSpace=wrap;html=1;" parent="454v5ZOSkwqWWJUFdsZ7-15" vertex="1">
          <mxGeometry y="26" width="140" height="44" as="geometry" />
        </mxCell>
        <mxCell id="454v5ZOSkwqWWJUFdsZ7-17" value="Extra Customer Information" style="text;html=1;align=center;verticalAlign=middle;whiteSpace=wrap;rounded=0;" parent="1" vertex="1">
          <mxGeometry x="580" y="120" width="120" height="30" as="geometry" />
        </mxCell>
        <mxCell id="454v5ZOSkwqWWJUFdsZ7-19" style="edgeStyle=orthogonalEdgeStyle;rounded=0;orthogonalLoop=1;jettySize=auto;html=1;entryX=1.029;entryY=0.352;entryDx=0;entryDy=0;entryPerimeter=0;" parent="1" source="454v5ZOSkwqWWJUFdsZ7-16" target="454v5ZOSkwqWWJUFdsZ7-2" edge="1">
          <mxGeometry relative="1" as="geometry" />
        </mxCell>
        <mxCell id="454v5ZOSkwqWWJUFdsZ7-20" value="&lt;b&gt;erp_loc_a101&lt;/b&gt;" style="swimlane;fontStyle=0;childLayout=stackLayout;horizontal=1;startSize=26;fillColor=none;horizontalStack=0;resizeParent=1;resizeParentMax=0;resizeLast=0;collapsible=1;marginBottom=0;html=1;strokeColor=#FFB570;rounded=1;fontSize=14;" parent="1" vertex="1">
          <mxGeometry x="580" y="290" width="140" height="70" as="geometry" />
        </mxCell>
        <mxCell id="454v5ZOSkwqWWJUFdsZ7-21" value="&lt;font style=&quot;font-size: 14px;&quot;&gt;cid&lt;/font&gt;" style="text;strokeColor=#FFD966;fillColor=none;align=left;verticalAlign=top;spacingLeft=4;spacingRight=4;overflow=hidden;rotatable=0;points=[[0,0.5],[1,0.5]];portConstraint=eastwest;whiteSpace=wrap;html=1;" parent="454v5ZOSkwqWWJUFdsZ7-20" vertex="1">
          <mxGeometry y="26" width="140" height="44" as="geometry" />
        </mxCell>
        <mxCell id="454v5ZOSkwqWWJUFdsZ7-22" value="Location of Customer" style="text;html=1;align=center;verticalAlign=middle;whiteSpace=wrap;rounded=0;" parent="1" vertex="1">
          <mxGeometry x="590" y="250" width="120" height="30" as="geometry" />
        </mxCell>
        <mxCell id="454v5ZOSkwqWWJUFdsZ7-23" style="edgeStyle=orthogonalEdgeStyle;rounded=0;orthogonalLoop=1;jettySize=auto;html=1;entryX=1;entryY=0.5;entryDx=0;entryDy=0;" parent="1" source="454v5ZOSkwqWWJUFdsZ7-21" target="454v5ZOSkwqWWJUFdsZ7-2" edge="1">
          <mxGeometry relative="1" as="geometry" />
        </mxCell>
        <mxCell id="454v5ZOSkwqWWJUFdsZ7-24" value="&lt;b&gt;erp_px_cat_g1v2&lt;/b&gt;" style="swimlane;fontStyle=0;childLayout=stackLayout;horizontal=1;startSize=26;fillColor=#ffcc99;horizontalStack=0;resizeParent=1;resizeParentMax=0;resizeLast=0;collapsible=1;marginBottom=0;html=1;strokeColor=#FFB570;rounded=1;fontSize=14;" parent="1" vertex="1">
          <mxGeometry x="580" y="410" width="140" height="70" as="geometry" />
        </mxCell>
        <mxCell id="454v5ZOSkwqWWJUFdsZ7-25" value="&lt;font style=&quot;font-size: 14px;&quot;&gt;id&lt;/font&gt;" style="text;strokeColor=#FFD966;fillColor=none;align=left;verticalAlign=top;spacingLeft=4;spacingRight=4;overflow=hidden;rotatable=0;points=[[0,0.5],[1,0.5]];portConstraint=eastwest;whiteSpace=wrap;html=1;" parent="454v5ZOSkwqWWJUFdsZ7-24" vertex="1">
          <mxGeometry y="26" width="140" height="44" as="geometry" />
        </mxCell>
        <mxCell id="454v5ZOSkwqWWJUFdsZ7-26" value="Product Categories" style="text;html=1;align=center;verticalAlign=middle;whiteSpace=wrap;rounded=0;" parent="1" vertex="1">
          <mxGeometry x="590" y="380" width="120" height="30" as="geometry" />
        </mxCell>
        <mxCell id="454v5ZOSkwqWWJUFdsZ7-27" style="edgeStyle=orthogonalEdgeStyle;rounded=0;orthogonalLoop=1;jettySize=auto;html=1;exitX=0;exitY=0.5;exitDx=0;exitDy=0;entryX=1;entryY=0.5;entryDx=0;entryDy=0;" parent="1" source="454v5ZOSkwqWWJUFdsZ7-25" target="454v5ZOSkwqWWJUFdsZ7-7" edge="1">
          <mxGeometry relative="1" as="geometry" />
        </mxCell>
        <mxCell id="454v5ZOSkwqWWJUFdsZ7-28" value="" style="rounded=1;whiteSpace=wrap;html=1;fillColor=none;dashed=1;" parent="1" vertex="1">
          <mxGeometry x="20" y="90" width="470" height="380" as="geometry" />
        </mxCell>
        <mxCell id="454v5ZOSkwqWWJUFdsZ7-29" value="&lt;font style=&quot;font-size: 25px;&quot;&gt;&lt;b style=&quot;&quot;&gt;CRM&lt;/b&gt;&lt;/font&gt;" style="rounded=1;whiteSpace=wrap;html=1;fillColor=#cce5ff;strokeColor=#36393d;" parent="1" vertex="1">
          <mxGeometry x="190" y="60" width="100" height="40" as="geometry" />
        </mxCell>
        <mxCell id="454v5ZOSkwqWWJUFdsZ7-30" value="" style="rounded=1;whiteSpace=wrap;html=1;fillColor=none;dashed=1;" parent="1" vertex="1">
          <mxGeometry x="540" y="90" width="230" height="400" as="geometry" />
        </mxCell>
        <mxCell id="454v5ZOSkwqWWJUFdsZ7-31" value="&lt;font style=&quot;font-size: 25px;&quot;&gt;&lt;b style=&quot;&quot;&gt;ERP&lt;/b&gt;&lt;/font&gt;" style="rounded=1;whiteSpace=wrap;html=1;fillColor=#ffcc99;strokeColor=#36393d;" parent="1" vertex="1">
          <mxGeometry x="600" y="60" width="100" height="40" as="geometry" />
        </mxCell>
        <mxCell id="MB5LKBl5-fEMYA9Mc4g1-1" value="&lt;font style=&quot;font-size: 16px;&quot;&gt;&lt;b&gt;PRODUCT&lt;/b&gt;&lt;/font&gt;" style="text;html=1;strokeColor=#d6b656;fillColor=#fff2cc;align=center;verticalAlign=middle;whiteSpace=wrap;overflow=hidden;" vertex="1" parent="1">
          <mxGeometry x="310" y="380" width="140" height="20" as="geometry" />
        </mxCell>
        <mxCell id="MB5LKBl5-fEMYA9Mc4g1-2" value="&lt;font style=&quot;font-size: 16px;&quot;&gt;&lt;b&gt;PRODUCT&lt;/b&gt;&lt;/font&gt;" style="text;html=1;strokeColor=#d6b656;fillColor=#fff2cc;align=center;verticalAlign=middle;whiteSpace=wrap;overflow=hidden;" vertex="1" parent="1">
          <mxGeometry x="580" y="460" width="140" height="20" as="geometry" />
        </mxCell>
        <mxCell id="MB5LKBl5-fEMYA9Mc4g1-3" value="&lt;b&gt;&lt;font style=&quot;font-size: 16px;&quot;&gt;CUSTOMER&lt;/font&gt;&lt;/b&gt;" style="text;html=1;strokeColor=#b85450;fillColor=#f8cecc;align=center;verticalAlign=middle;whiteSpace=wrap;overflow=hidden;" vertex="1" parent="1">
          <mxGeometry x="310" y="230" width="140" height="20" as="geometry" />
        </mxCell>
        <mxCell id="MB5LKBl5-fEMYA9Mc4g1-4" value="&lt;b&gt;&lt;font style=&quot;font-size: 16px;&quot;&gt;CUSTOMER&lt;/font&gt;&lt;/b&gt;" style="text;html=1;strokeColor=#b85450;fillColor=#f8cecc;align=center;verticalAlign=middle;whiteSpace=wrap;overflow=hidden;" vertex="1" parent="1">
          <mxGeometry x="570" y="210" width="140" height="20" as="geometry" />
        </mxCell>
        <mxCell id="MB5LKBl5-fEMYA9Mc4g1-5" value="&lt;b&gt;&lt;font style=&quot;font-size: 16px;&quot;&gt;CUSTOMER&lt;/font&gt;&lt;/b&gt;" style="text;html=1;strokeColor=#b85450;fillColor=#f8cecc;align=center;verticalAlign=middle;whiteSpace=wrap;overflow=hidden;" vertex="1" parent="1">
          <mxGeometry x="580" y="350" width="140" height="20" as="geometry" />
        </mxCell>
        <mxCell id="MB5LKBl5-fEMYA9Mc4g1-6" value="&lt;font style=&quot;font-size: 16px;&quot;&gt;&lt;b&gt;SALES&lt;/b&gt;&lt;/font&gt;" style="text;html=1;strokeColor=#82b366;fillColor=#d5e8d4;align=center;verticalAlign=middle;whiteSpace=wrap;overflow=hidden;" vertex="1" parent="1">
          <mxGeometry x="50" y="270" width="140" height="20" as="geometry" />
        </mxCell>
      </root>
    </mxGraphModel>
  </diagram>
</mxfile>
